SplineFontDB: 3.2
FontName: SeriousShanns
FullName: Serious Shanns
FamilyName: Serious Shanns
Weight: Book
Copyright: https://github.com/kaBeech/serious-shanns/blob/main/LICENSE
Version: 6.0.0
ItalicAngle: 0
UnderlinePosition: 0
UnderlineWidth: 0
Ascent: 800
Descent: 200
InvalidEm: 0
sfntRevision: 0x00003333
LayerCount: 2
Layer: 0 0 "Back" 1
Layer: 1 0 "Fore" 0
XUID: [1021 45 630387186 12505762]
StyleMap: 0x0040
FSType: 4
OS2Version: 3
OS2_WeightWidthSlopeOnly: 0
OS2_UseTypoMetrics: 0
CreationTime: 1532631502
ModificationTime: 315532800
PfmFamily: 81
TTFWeight: 400
TTFWidth: 5
LineGap: 0
VLineGap: 0
Panose: 0 0 0 0 0 0 0 0 0 0
OS2TypoAscent: 613
OS2TypoAOffset: 0
OS2TypoDescent: -188
OS2TypoDOffset: 0
OS2TypoLinegap: 98
OS2WinAscent: 778
OS2WinAOffset: 0
OS2WinDescent: 308
OS2WinDOffset: 0
HheadAscent: 796
HheadAOffset: 0
HheadDescent: -317
HheadDOffset: 0
OS2SubXSize: 317
OS2SubYSize: 293
OS2SubXOff: 0
OS2SubYOff: 37
OS2SupXSize: 317
OS2SupYSize: 293
OS2SupXOff: 0
OS2SupYOff: 171
OS2StrikeYSize: 0
OS2StrikeYPos: 132
OS2CapHeight: 576
OS2XHeight: 485
OS2Vendor: 'NONE'
OS2CodePages: 00000001.00000000
OS2UnicodeRanges: 00000001.00000000.00000000.00000000
MarkAttachClasses: 1
DEI: 91125
LangName: 1033 "" "" "Normal" "FontForge 2.0 : Serious Shanns : 11-6-2024" "" "Version 0.2.0"
Encoding: UnicodeBmp
Compacted: 1
UnicodeInterp: none
NameList: AGL For New Fonts
DisplaySize: -48
AntiAlias: 1
FitToEm: 0
WinInfo: 0 16 11
BeginPrivate: 8
BlueValues 32 [-40 -6 502 523 708 718 765 769]
OtherBlues 11 [-297 -287]
BlueScale 9 0.0291667
BlueShift 1 2
StdHW 4 [85]
StdVW 4 [96]
StemSnapH 7 [65 85]
StemSnapV 4 [96]
EndPrivate
BeginChars: 65537 97

StartChar: .notdef
Encoding: 65536 -1 0
Width: 630
GlyphClass: 1
Flags: W
HStem: -268 54<154 475> 695 54<154 475>
VStem: 101 53<-214 695> 475 54<-214 695>
LayerCount: 2
Fore
SplineSet
101 -268 m 1
 101 749 l 1
 529 749 l 1
 529 -268 l 1
 101 -268 l 1
154 -214 m 1
 475 -214 l 1
 475 695 l 1
 154 695 l 1
 154 -214 l 1
EndSplineSet
Validated: 1
EndChar

StartChar: exclam
Encoding: 33 33 1
Width: 630
GlyphClass: 2
Flags: HMW
HStem: -24.5727 153.613
VStem: 232.999 164.001 273.999 92.3857
LayerCount: 2
Fore
SplineSet
374.002929688 738 m 0xa0
 374.002929688 732 372.500976562 688.16796875 369.500976562 606.500976562 c 0
 367.423828125 549.961914062 366.385742188 500.692382812 366.385742188 458.692382812 c 0
 366.385742188 440.026367188 366.590820312 422.795898438 367.000976562 407.000976562 c 0
 367.666992188 382.000976562 367.999023438 362.04296875 367.999023438 347.125976562 c 0
 367.999023438 332.208984375 367.666992188 322.333984375 366.999023438 317.5 c 0
 366.111328125 311.056640625 365.666992188 302.022460938 365.666992188 290.397460938 c 0
 365.666992188 284.580078125 365.778320312 278.114257812 366.000976562 271 c 0
 364.666992188 256.333007812 359.000976562 244.833007812 349.000976562 236.5 c 0
 339.741210938 228.784179688 328.768554688 224.926757812 316.081054688 224.926757812 c 0
 315.065429688 224.926757812 314.038085938 224.951171875 313.001953125 225.000976562 c 0
 299.668945312 225.000976562 288.668945312 229.333984375 280.001953125 238.000976562 c 0
 272.490234375 245.512695312 268.733398438 256.029296875 268.733398438 269.55078125 c 0
 268.733398438 271.629882812 268.823242188 273.780273438 269.000976562 276.001953125 c 0
 269.666992188 286.001953125 270.666992188 295.668945312 272.000976562 305.001953125 c 0
 273.333984375 314.334960938 274.166992188 322.16796875 274.499023438 328.500976562 c 0
 274.833007812 334.833984375 275.333007812 349.833984375 275.999023438 373.500976562 c 0
 276.166992188 379.41796875 276.249023438 385.762695312 276.249023438 392.534179688 c 0
 276.249023438 412.846679688 275.499023438 437.001953125 273.999023438 465.000976562 c 0
 273.333007812 491.000976562 272.833007812 518.500976562 272.499023438 547.500976562 c 0
 272.388671875 557.158203125 272.333007812 566.279296875 272.333007812 574.864257812 c 0
 272.333007812 592.059570312 272.555664062 607.10546875 273.000976562 620 c 0
 273.666992188 639.333007812 274.334960938 661.333007812 275.001953125 686 c 0
 275.668945312 710.666992188 276.001953125 727 276.001953125 735 c 0
 276.668945312 753 281.834960938 766.666992188 291.502929688 776 c 0
 301.169921875 785.333007812 313.002929688 790 327.002929688 790 c 0
 328.002929688 790.047851562 328.989257812 790.071289062 329.962890625 790.071289062 c 0
 342.608398438 790.071289062 352.955078125 786.047851562 361.002929688 778 c 0
 369.669921875 769.333007812 374.002929688 756 374.002929688 738 c 0xa0
317.000976562 -23.9990234375 m 0
 313.475585938 -24.3798828125 310.041992188 -24.5703125 306.700195312 -24.5703125 c 0
 286.661132812 -24.5703125 269.927734375 -17.7158203125 256.499023438 -4.0029296875 c 0
 240.833007812 11.9970703125 232.999023438 31.330078125 232.999023438 53.9970703125 c 0
 232.999023438 73.9970703125 241.833007812 91.330078125 259.499023438 105.997070312 c 0
 277.166992188 120.6640625 296.333984375 128.331054688 317.000976562 128.998046875 c 0
 318.038085938 129.02734375 319.067382812 129.041992188 320.088867188 129.041992188 c 0
 342.030273438 129.041992188 360.166992188 122.194335938 374.500976562 108.499023438 c 0
 389.500976562 94.166015625 397.000976562 76.3330078125 397.000976562 55 c 0xc0
 397.000976562 33.6669921875 389.666992188 15.833984375 375.000976562 1.5009765625 c 0
 360.333984375 -12.83203125 341.000976562 -21.33203125 317.000976562 -23.9990234375 c 0
EndSplineSet
Validated: 524289
EndChar

StartChar: quotedbl
Encoding: 34 34 2
Width: 630
GlyphClass: 2
Flags: HMW
VStem: 185.485 101.426 343.437 103.475
LayerCount: 2
Fore
SplineSet
287.912109375 738 m 0
 288.133789062 728.908203125 288.244140625 717.880859375 288.244140625 704.916015625 c 0
 288.244140625 678.904296875 287.797851562 645.09765625 286.908203125 603.498046875 c 0
 285.575195312 541.165039062 283.2421875 498.33203125 279.909179688 474.999023438 c 0
 277.909179688 461.666015625 272.2421875 451.666015625 262.909179688 444.999023438 c 0
 254.424804688 438.938476562 245.114257812 435.908203125 234.977539062 435.908203125 c 0
 233.963867188 435.908203125 232.94140625 435.938476562 231.911132812 435.999023438 c 0
 218.578125 436.666015625 206.745117188 440.833007812 196.412109375 448.5 c 0
 187.259765625 455.291015625 182.68359375 464.565429688 182.68359375 476.32421875 c 0
 182.68359375 480.546875 185.483398438 511.731445312 185.483398438 589.744140625 c 0
 185.483398438 596.965820312 185.459960938 604.383789062 185.412109375 611.999023438 c 0
 185.079101562 665.33203125 183.912109375 709.33203125 181.912109375 743.999023438 c 0
 181.245117188 751.999023438 182.745117188 758.83203125 186.412109375 764.499023438 c 0
 190.079101562 770.166015625 194.912109375 774.333007812 200.912109375 777 c 0
 206.912109375 779.666992188 213.079101562 781.5 219.412109375 782.5 c 0
 225.745117188 783.5 231.912109375 783.666992188 237.912109375 783 c 0
 243.912109375 783 249.579101562 782.333007812 254.912109375 781 c 0
 260.245117188 779.666992188 265.412109375 777.5 270.412109375 774.5 c 0
 275.412109375 771.5 279.579101562 766.833007812 282.912109375 760.5 c 0
 286.245117188 754.166992188 287.912109375 746.666992188 287.912109375 738 c 0
447.908203125 737.997070312 m 0
 448.130859375 728.875976562 448.241210938 717.805664062 448.241210938 704.786132812 c 0
 448.241210938 678.791015625 447.797851562 645.026367188 446.91015625 603.495117188 c 0
 445.577148438 541.162109375 443.577148438 498.329101562 440.91015625 474.99609375 c 0
 438.91015625 461.663085938 433.077148438 451.663085938 423.41015625 444.99609375 c 0
 414.622070312 438.935546875 405.420898438 435.905273438 395.806640625 435.905273438 c 0
 394.844726562 435.905273438 393.87890625 435.935546875 392.909179688 435.99609375 c 0
 379.576171875 436.663085938 367.576171875 440.830078125 356.909179688 448.497070312 c 0
 347.926757812 454.953125 343.435546875 463.654296875 343.435546875 474.6015625 c 0
 343.435546875 476.654296875 343.59375 478.786132812 343.909179688 480.997070312 c 0
 345.409179688 506.49609375 346.159179688 537.432617188 346.159179688 573.805664062 c 0
 346.159179688 585.931640625 346.076171875 598.662109375 345.909179688 611.99609375 c 0
 345.2421875 665.329101562 343.909179688 709.329101562 341.909179688 743.99609375 c 0
 341.909179688 751.99609375 343.7421875 758.829101562 347.409179688 764.49609375 c 0
 351.076171875 770.163085938 355.909179688 774.330078125 361.909179688 776.997070312 c 0
 367.909179688 779.6640625 373.909179688 781.497070312 379.909179688 782.497070312 c 0
 385.909179688 783.497070312 391.909179688 783.6640625 397.909179688 782.997070312 c 0
 403.909179688 782.997070312 409.576171875 782.330078125 414.909179688 780.997070312 c 0
 420.2421875 779.6640625 425.575195312 777.497070312 430.908203125 774.497070312 c 0
 436.241210938 771.497070312 440.408203125 766.830078125 443.408203125 760.497070312 c 0
 446.408203125 754.1640625 447.908203125 746.6640625 447.908203125 737.997070312 c 0
EndSplineSet
Validated: 524289
EndChar

StartChar: numbersign
Encoding: 35 35 3
Width: 630
GlyphClass: 2
Flags: HMW
HStem: 192 82 445 84 697.667 20G
LayerCount: 2
Fore
SplineSet
201.041015625 42 m 0
 196.374023438 28 186.706054688 16.4990234375 172.0390625 7.4990234375 c 0
 161.884765625 1.2685546875 152.209960938 -1.8466796875 143.014648438 -1.8466796875 c 0
 138.927734375 -1.8466796875 134.935546875 -1.2314453125 131.038085938 -0.0009765625 c 0
 118.37109375 2.666015625 109.038085938 11.166015625 103.038085938 25.4990234375 c 0
 99.861328125 33.0869140625 98.2734375 41.095703125 98.2734375 49.5244140625 c 0
 98.2734375 57.0166015625 99.5283203125 64.8408203125 102.038085938 72.998046875 c 0
 107.37109375 90.998046875 116.704101562 129.665039062 130.037109375 188.998046875 c 1
 100.037109375 188.998046875 l 2
 83.3701171875 188.998046875 70.703125 192.331054688 62.0361328125 198.998046875 c 0
 49.291015625 208.801757812 48.958984375 221.170898438 48.958984375 228.732421875 c 0
 48.958984375 239.524414062 52.6513671875 248.61328125 60.0361328125 255.998046875 c 0
 68.0361328125 263.998046875 80.703125 268.665039062 98.0361328125 269.998046875 c 0
 103.369140625 269.998046875 111.536132812 270.165039062 122.536132812 270.498046875 c 0
 133.536132812 270.831054688 141.703125 270.998046875 147.036132812 270.998046875 c 1
 181.036132812 443.998046875 l 1
 175.703125 443.998046875 168.370117188 443.831054688 159.037109375 443.498046875 c 0
 149.704101562 443.165039062 143.37109375 442.998046875 140.038085938 442.998046875 c 0
 138.704101562 442.944335938 137.39453125 442.91796875 136.109375 442.91796875 c 0
 121.340820312 442.91796875 109.817382812 446.444335938 101.538085938 453.498046875 c 0
 88.28125 464.791015625 87.9658203125 477.244140625 87.9658203125 484.541992188 c 0
 87.9658203125 495.44140625 91.9892578125 504.759765625 100.037109375 512.497070312 c 0
 108.704101562 520.830078125 121.704101562 525.330078125 139.037109375 525.997070312 c 0
 151.704101562 526.6640625 171.037109375 526.997070312 197.037109375 526.997070312 c 1
 215.704101562 627.6640625 225.37109375 679.6640625 226.038085938 682.997070312 c 0
 231.37109375 699.6640625 239.704101562 711.331054688 251.037109375 717.998046875 c 0
 258.592773438 722.443359375 266.296875 724.666015625 274.149414062 724.666015625 c 0
 278.075195312 724.666015625 282.038085938 724.110351562 286.038085938 722.999023438 c 0
 300.038085938 720.33203125 310.87109375 713.665039062 318.538085938 702.998046875 c 0
 323.881835938 695.563476562 326.553710938 686.509765625 326.553710938 675.836914062 c 0
 326.553710938 671.197265625 326.048828125 666.250976562 325.0390625 660.999023438 c 2
 298.0390625 528.999023438 l 1
 411.0390625 528.999023438 l 1
 438.0390625 674.999023438 l 2
 443.372070312 692.33203125 451.5390625 704.33203125 462.5390625 710.999023438 c 0
 469.873046875 715.444335938 477.725585938 717.666992188 486.096679688 717.666992188 c 0
 490.28125 717.666992188 494.595703125 717.111328125 499.040039062 716 c 0
 513.70703125 713.333007812 524.70703125 706.666015625 532.040039062 695.999023438 c 0
 536.78515625 689.096679688 539.158203125 680.798828125 539.158203125 671.10546875 c 0
 539.158203125 665.818359375 538.452148438 660.116210938 537.040039062 653.999023438 c 0
 529.70703125 625.999023438 521.374023438 584.999023438 512.041015625 530.999023438 c 1
 523.041015625 530.999023438 l 2
 539.041015625 530.999023438 552.541015625 526.499023438 563.541015625 517.499023438 c 0
 574.541015625 508.499023438 580.374023438 498.999023438 581.041015625 488.999023438 c 0
 581.041015625 476.999023438 577.041015625 466.83203125 569.041015625 458.499023438 c 0
 561.041015625 450.166015625 548.708007812 445.666015625 532.041015625 444.999023438 c 2
 496.041015625 444.999023438 l 1
 467.041015625 273.999023438 l 1
 508.041015625 273.999023438 l 2
 523.374023438 273.999023438 534.041015625 270.499023438 540.041015625 263.499023438 c 0
 546.041015625 256.499023438 549.374023438 247.33203125 550.041015625 235.999023438 c 0
 550.041015625 206.666015625 536.041015625 191.999023438 508.041015625 191.999023438 c 2
 452.041015625 191.999023438 l 1
 438.708007812 115.999023438 429.041015625 64.666015625 423.041015625 37.9990234375 c 0
 417.708007812 23.9990234375 408.208007812 13.166015625 394.541015625 5.4990234375 c 0
 385.559570312 0.4609375 376.650390625 -2.0576171875 367.813476562 -2.0576171875 c 0
 363.203125 -2.0576171875 358.612304688 -1.3720703125 354.041015625 -0.0009765625 c 0
 341.374023438 2.666015625 332.041015625 10.4990234375 326.041015625 23.4990234375 c 0
 322.864257812 30.380859375 321.276367188 37.77734375 321.276367188 45.6875 c 0
 321.276367188 52.71875 322.53125 60.15625 325.041015625 68 c 0
 331.708007812 94.6669921875 340.375 135.666992188 351.041992188 191 c 1
 337.041992188 191 316.708984375 190.833007812 290.041992188 190.5 c 0
 263.375 190.166992188 243.708007812 190 231.041015625 190 c 1
 217.041015625 118 207.041015625 68.6669921875 201.041015625 42 c 0
282.040039062 444.999023438 m 1
 247.041015625 273.998046875 l 1
 274.374023438 274.665039062 313.70703125 274.998046875 365.040039062 274.998046875 c 1
 375.70703125 329.665039062 386.040039062 386.33203125 396.040039062 444.999023438 c 1
 282.040039062 444.999023438 l 1
EndSplineSet
Validated: 524289
EndChar

StartChar: dollar
Encoding: 36 36 4
Width: 630
GlyphClass: 2
Flags: HMW
HStem: -28.9932 84.9932 642.998 79.002
VStem: 88.499 92.001 276.499 87.001 466.501 92.999
LayerCount: 2
Fore
SplineSet
356.5 -99 m 0
 355.16796875 -113.666992188 349.5 -124.993164062 339.5 -132.993164062 c 0
 329.5 -140.993164062 317.833007812 -144.993164062 304.5 -144.993164062 c 0
 291.833007812 -144.993164062 282.333007812 -140.493164062 276 -131.493164062 c 0
 270.76953125 -124.05859375 268.15234375 -114.0078125 268.15234375 -101.340820312 c 0
 268.15234375 -98.6748046875 268.26953125 -95.892578125 268.5 -92.994140625 c 0
 269.388671875 -82.330078125 269.833007812 -69.296875 269.833007812 -53.89453125 c 0
 269.833007812 -46.1875 269.72265625 -37.8876953125 269.5 -28.994140625 c 1
 266.5 -28.994140625 l 2
 242.5 -28.994140625 220 -25.994140625 199 -19.994140625 c 0
 178 -13.994140625 160 -5.994140625 145 4.005859375 c 0
 130 14.005859375 117 24.6728515625 106 36.005859375 c 0
 95 47.3388671875 86.166015625 59.671875 79.5 73.0048828125 c 0
 73.5 86.5048828125 70.5 98.1298828125 70.5 107.879882812 c 0
 70.5 111.129882812 70.83203125 114.171875 71.5 117.004882812 c 0
 74.166015625 128.337890625 81.166015625 136.670898438 92.5 142.00390625 c 0
 100.5 145.336914062 106.83203125 147.669921875 111.5 149.002929688 c 0
 116.166015625 150.3359375 121.333007812 150.668945312 127 150.001953125 c 0
 132.66796875 149.334960938 138.16796875 146.66796875 143.5 142.000976562 c 0
 148.833007812 137.333984375 154.5 130.666992188 160.5 122 c 0
 173.833007812 101.333007812 189.166015625 85.166015625 206.5 73.4990234375 c 0
 223.83203125 61.83203125 244.83203125 55.9990234375 269.5 55.9990234375 c 2
 273.5 55.9990234375 l 1
 274.83203125 167.33203125 275.5 266.665039062 275.5 353.998046875 c 1
 272.166015625 353.998046875 266.333007812 354.665039062 258 355.998046875 c 0
 249.66796875 357.331054688 243.5 357.998046875 239.5 357.998046875 c 0
 215.5 360.665039062 193.5 366.998046875 173.5 376.998046875 c 0
 153.5 386.998046875 137.66796875 399.165039062 126 413.498046875 c 0
 114.333984375 427.831054688 105.166015625 442.831054688 98.5 458.498046875 c 0
 91.83203125 474.165039062 88.5 489.998046875 88.5 505.998046875 c 0
 88.5 529.998046875 92.166015625 552.998046875 99.5 574.998046875 c 0
 106.83203125 596.998046875 118 617.498046875 133 636.498046875 c 0
 148 655.498046875 167.5 671.831054688 191.5 685.498046875 c 0
 215.5 699.165039062 243.83203125 708.665039062 276.5 713.998046875 c 1
 277.166015625 729.998046875 277.5 749.331054688 277.5 771.998046875 c 0
 278.166015625 808.665039062 291.833007812 826.998046875 318.5 826.998046875 c 0
 319.055664062 827.010742188 319.606445312 827.016601562 320.15234375 827.016601562 c 0
 349.05078125 827.016601562 363.5 809.677734375 363.5 774.999023438 c 2
 363.5 721.999023438 l 1
 378.16796875 721.33203125 398.66796875 717.999023438 425 711.999023438 c 0
 451.333007812 705.999023438 470.833007812 700.33203125 483.5 694.999023438 c 0
 496.16796875 690.33203125 505.16796875 682.999023438 510.5 672.999023438 c 0
 514.766601562 664.999023438 516.899414062 656.572265625 516.899414062 647.71875 c 0
 516.899414062 645.505859375 516.766601562 643.266601562 516.5 641 c 0
 515.833007812 633 513.333007812 626.833007812 509 622.5 c 0
 504.66796875 618.166992188 499.333984375 615.5 493.000976562 614.5 c 0
 486.66796875 613.5 480.66796875 613.333007812 475.000976562 614 c 0
 469.333984375 614.666992188 463.16796875 615.666992188 456.5 617 c 0
 450.5 618.333007812 443 621.166015625 434 625.499023438 c 0
 425 629.83203125 414.833007812 633.665039062 403.5 636.998046875 c 0
 392.16796875 640.331054688 378.5 642.331054688 362.5 642.998046875 c 1
 361.833007812 589.665039062 360.5 518.998046875 358.5 430.998046875 c 1
 389.16796875 426.998046875 416.5 419.831054688 440.5 409.498046875 c 0
 464.5 399.165039062 483.66796875 387.33203125 498 373.999023438 c 0
 512.333007812 360.666015625 524.5 345.333007812 534.5 328 c 0
 544.5 310.666992188 551.16796875 293.666992188 554.5 277 c 0
 557.833007812 260.333007812 559.5 243 559.5 225 c 0
 559.5 194.333007812 554.333007812 165.333007812 544 138 c 0
 533.66796875 110.666992188 519.16796875 87 500.5 67 c 0
 481.833007812 47 460.166015625 29.6669921875 435.5 15 c 0
 410.83203125 0.3330078125 383.83203125 -10.6669921875 354.5 -18 c 1
 355.166015625 -58 355.833007812 -85 356.5 -99 c 0
180.5 531.006835938 m 0
 180.5 509.673828125 189.000976562 491.006835938 206.000976562 475.006835938 c 0
 223.000976562 459.006835938 246.16796875 447.673828125 275.500976562 441.006835938 c 1
 276.16796875 487.006835938 276.500976562 551.006835938 276.500976562 633.006835938 c 1
 247.833984375 624.33984375 224.66796875 611.33984375 207 594.006835938 c 0
 189.333007812 576.673828125 180.5 555.673828125 180.5 531.006835938 c 0
466.500976562 208.006835938 m 0
 466.500976562 220.673828125 464.83203125 232.340820312 461.5 243.0078125 c 0
 458.166015625 253.674804688 452.833007812 264.841796875 445.5 276.508789062 c 0
 438.16796875 288.17578125 427.16796875 299.008789062 412.5 309.008789062 c 0
 397.833007812 319.008789062 379.5 327.67578125 357.5 335.008789062 c 1
 357.5 305.67578125 357.333007812 261.508789062 357 202.508789062 c 0
 356.66796875 143.508789062 355.833984375 100.67578125 354.500976562 74.0087890625 c 1
 386.500976562 87.341796875 413.16796875 105.674804688 434.500976562 129.0078125 c 0
 455.833984375 152.340820312 466.500976562 178.673828125 466.500976562 208.006835938 c 0
EndSplineSet
Validated: 524289
EndChar

StartChar: percent
Encoding: 37 37 5
Width: 630
GlyphClass: 2
Flags: HMW
HStem: -28.0313 75.9731 170.999 74 432 75<183.126 191.459 183.126 194.125> 632 73
VStem: 56.1255 71.919 236.188 70.301 324.056 71.992 443.124 88.8789 502.143 71.7321
LayerCount: 2
Fore
SplineSet
172.125 432 m 0xfe
 148.791992188 432 127.958984375 438.5 109.625 451.5 c 0
 91.29296875 464.5 77.79296875 480.833007812 69.125 500.5 c 0
 60.458984375 520.166992188 56.125 541.333984375 56.125 564.000976562 c 0
 56.125 605.333984375 67.625 639.166992188 90.625 665.5 c 0
 113.625 691.833007812 146.125 705 188.125 705 c 0
 204.79296875 705 220.29296875 702.166992188 234.625 696.5 c 0
 248.958984375 690.833007812 261.791992188 682.333007812 273.125 671 c 0
 284.45703125 659.666992188 293.125 644.166992188 299.125 624.5 c 0
 304.034179688 608.408203125 306.48828125 590.197265625 306.48828125 569.866210938 c 0
 306.48828125 565.348632812 306.3671875 560.7265625 306.125 556 c 0
 304.125 515.333007812 292.291992188 484.5 270.625 463.5 c 0
 248.95703125 442.5 216.125 432 172.125 432 c 0xfe
81.125 19 m 0
 95.125 47.6669921875 128.29296875 107.833984375 180.625 199.500976562 c 0
 232.958984375 291.16796875 285.291992188 383.66796875 337.625 477.000976562 c 0
 389.95703125 570.333984375 425.125 637.000976562 443.125 677.000976562 c 0
 451.125 689.000976562 461.625 696.500976562 474.625 699.500976562 c 0
 478.659179688 700.431640625 482.61328125 700.897460938 486.487304688 700.897460938 c 0
 495.095703125 700.897460938 503.30859375 698.598632812 511.124023438 694.000976562 c 0
 517.794921875 691.036132812 532.002929688 683.4609375 532.002929688 665.655273438 c 0xff
 532.002929688 656.331054688 528.04296875 645.446289062 520.125 633.001953125 c 0
 495.45703125 592.334960938 436.625 488.66796875 343.625 322.000976562 c 0
 250.625 155.333984375 189.125 42.6669921875 159.125 -16 c 0
 146.32421875 -39.630859375 131.889648438 -51.4462890625 115.818359375 -51.4462890625 c 0
 110.125 -51.4462890625 104.228515625 -49.9638671875 98.125 -47 c 0
 81.193359375 -38.95703125 72.728515625 -27.15234375 72.728515625 -11.5849609375 c 0
 72.728515625 -2.6337890625 75.52734375 7.5615234375 81.125 19 c 0
183.125 507 m 0
 199.79296875 507 212.291992188 512.333007812 220.625 523 c 0
 233.095703125 538.962890625 236.1875 561.026367188 236.1875 570.180664062 c 0
 236.1875 590.727539062 231.5 606.000976562 222.125 616.000976562 c 0
 212.125 626.66796875 198.125 632.000976562 180.125 632.000976562 c 0
 164.125 632.000976562 151.79296875 626.16796875 143.125 614.500976562 c 0
 140.20703125 610.572265625 128.045898438 592.4140625 128.045898438 562.6015625 c 0
 128.045898438 546.06640625 131.572265625 533.19921875 138.625 524 c 0
 146.29296875 514 161.125 508.333007812 183.125 507 c 0
439.125 -28 m 0
 415.791992188 -28 395.125 -21.5 377.125 -8.5 c 0
 359.125 4.5 345.625 20.8330078125 336.625 40.5 c 0
 328.24609375 58.810546875 324.0546875 78.4208984375 324.0546875 99.3310546875 c 0
 324.0546875 122.313476562 325.23046875 167.287109375 358.125 205.5 c 0
 380.791992188 231.833007812 413.125 245 455.125 245 c 0
 471.791992188 245 487.291992188 242.333007812 501.625 237 c 0
 515.95703125 231.666992188 528.95703125 223.166992188 540.625 211.5 c 0
 552.291992188 199.833007812 561.125 184.166015625 567.125 164.499023438 c 0
 571.625 149.749023438 573.875 133.217773438 573.875 114.905273438 c 0xfe80
 573.875 108.80078125 573.625 102.499023438 573.125 95.9990234375 c 0
 571.125 55.33203125 559.291992188 24.33203125 537.625 2.9990234375 c 0
 516.615234375 -17.6875 485.10546875 -28.0302734375 443.095703125 -28.0302734375 c 0
 441.78125 -28.0302734375 440.458984375 -28.0205078125 439.125 -28 c 0
450.125 48 m 0
 451.0390625 47.9619140625 451.94140625 47.9443359375 452.83203125 47.9443359375 c 0
 467.522460938 47.9443359375 478.953125 53.1298828125 487.125 63.5009765625 c 0
 488.499023438 65.2451171875 502.142578125 83.193359375 502.142578125 108.302734375 c 0
 502.142578125 150.1015625 484.13671875 171.000976562 448.125 171.000976562 c 0
 432.791992188 171.000976562 420.625 165.16796875 411.625 153.500976562 c 0
 408.4765625 149.418945312 396.046875 131.494140625 396.046875 102.913085938 c 0
 396.046875 86.8427734375 399.740234375 74.0380859375 407.125 64.5 c 0
 415.125 54.1669921875 429.45703125 48.6669921875 450.125 48 c 0
EndSplineSet
Validated: 524289
EndChar

StartChar: ampersand
Encoding: 38 38 6
Width: 630
GlyphClass: 2
Flags: HMW
HStem: -41.998 93.998 -40.3768 21G 645.001 79
VStem: 56.3799 100.997 143.379 95.998 377.377 83.002
LayerCount: 2
Fore
SplineSet
540.376953125 -35 m 0xac
 534.510742188 -38.5849609375 528.287109375 -40.3779296875 521.704101562 -40.3779296875 c 0x6c
 514.8203125 -40.3779296875 507.544921875 -38.41796875 499.876953125 -34.4990234375 c 0
 484.876953125 -26.83203125 471.709960938 -13.6650390625 460.376953125 5.001953125 c 0
 459.043945312 8.3349609375 455.2109375 18.3349609375 448.877929688 35.001953125 c 0
 442.544921875 51.6689453125 437.711914062 63.6689453125 434.37890625 71.001953125 c 1
 432.37890625 68.3349609375 428.045898438 62.66796875 421.37890625 54.0009765625 c 0
 414.711914062 45.333984375 409.711914062 39.0009765625 406.37890625 35.0009765625 c 0
 403.045898438 31.0009765625 397.712890625 25.0009765625 390.379882812 17.0009765625 c 0
 383.046875 9.0009765625 376.546875 2.833984375 370.879882812 -1.4990234375 c 0
 365.212890625 -5.83203125 357.879882812 -10.9990234375 348.879882812 -16.9990234375 c 0
 339.879882812 -22.9990234375 331.212890625 -27.4990234375 322.879882812 -30.4990234375 c 0
 314.546875 -33.4990234375 304.546875 -36.166015625 292.879882812 -38.4990234375 c 0
 281.212890625 -40.83203125 269.379882812 -41.9990234375 257.379882812 -41.9990234375 c 0
 220.046875 -41.9990234375 185.879882812 -32.33203125 154.879882812 -12.9990234375 c 0
 123.879882812 6.333984375 99.712890625 31.6669921875 82.3798828125 63 c 0
 65.046875 94.3330078125 56.3798828125 128.333007812 56.3798828125 165 c 0xb4
 56.3798828125 291 108.379882812 376.666992188 212.379882812 422 c 1
 206.379882812 432 199.212890625 444 190.879882812 458 c 0
 182.546875 472 176.379882812 481.833007812 172.379882812 487.5 c 0
 168.379882812 493.166992188 164.046875 500.5 159.379882812 509.5 c 0
 154.712890625 518.5 151.545898438 526.333007812 149.87890625 533 c 0
 148.211914062 539.666992188 146.711914062 547.833984375 145.37890625 557.500976562 c 0
 144.045898438 567.16796875 143.37890625 577.66796875 143.37890625 589.000976562 c 0
 143.37890625 601.000976562 144.87890625 612.833984375 147.87890625 624.500976562 c 0
 150.87890625 636.16796875 156.545898438 648.16796875 164.87890625 660.500976562 c 0
 173.211914062 672.833984375 182.87890625 683.666992188 193.87890625 693 c 0
 204.87890625 702.333007812 219.87890625 709.833007812 238.87890625 715.5 c 0
 257.87890625 721.166992188 279.37890625 724 303.37890625 724 c 0
 322.711914062 724 341.711914062 721 360.37890625 715 c 0
 379.045898438 709 395.87890625 700.166992188 410.87890625 688.5 c 0
 425.87890625 676.833007812 437.87890625 661.5 446.87890625 642.5 c 0
 455.87890625 623.5 460.37890625 602.333007812 460.37890625 579 c 0
 460.37890625 557.666992188 457.711914062 537.833984375 452.37890625 519.500976562 c 0
 447.045898438 501.16796875 440.212890625 485.834960938 431.879882812 473.501953125 c 0
 423.546875 461.168945312 413.046875 449.3359375 400.379882812 438.002929688 c 0
 387.712890625 426.669921875 376.045898438 417.669921875 365.37890625 411.002929688 c 0
 354.711914062 404.3359375 342.37890625 397.668945312 328.37890625 391.001953125 c 1
 340.37890625 370.334960938 360.711914062 339.66796875 389.37890625 299.000976562 c 0
 418.045898438 258.333984375 436.37890625 231.333984375 444.37890625 218.000976562 c 1
 449.045898438 227.333984375 454.37890625 238.166992188 460.37890625 250.5 c 0
 466.37890625 262.833007812 470.87890625 272.833007812 473.87890625 280.5 c 0
 476.87890625 288.166992188 479.711914062 293.666992188 482.37890625 297 c 0
 494.37890625 314.333007812 505.87890625 325.166015625 516.87890625 329.499023438 c 0
 521.211914062 331.206054688 525.673828125 332.059570312 530.265625 332.059570312 c 0
 537.330078125 332.059570312 544.701171875 330.0390625 552.37890625 325.998046875 c 0
 563.711914062 320.665039062 570.544921875 310.83203125 572.877929688 296.499023438 c 0
 573.373046875 293.458984375 573.620117188 290.336914062 573.620117188 287.131835938 c 0
 573.620117188 275.225585938 570.206054688 262.181640625 563.376953125 247.999023438 c 0
 560.043945312 241.999023438 550.043945312 228.666015625 533.376953125 207.999023438 c 0
 516.709960938 187.33203125 503.376953125 168.33203125 493.376953125 150.999023438 c 1
 500.709960938 138.33203125 510.876953125 120.165039062 523.876953125 96.498046875 c 0
 536.876953125 72.8310546875 544.709960938 58.998046875 547.376953125 54.998046875 c 0
 555.485351562 42.025390625 559.5390625 27.9560546875 559.5390625 12.7919921875 c 0
 559.5390625 9.25390625 559.318359375 5.65625 558.876953125 1.9990234375 c 0
 556.543945312 -17.333984375 550.376953125 -29.6669921875 540.376953125 -35 c 0xac
239.377929688 572 m 0
 239.377929688 555.333007812 243.7109375 537 252.377929688 517 c 0
 261.044921875 497 271.711914062 479.333007812 284.37890625 464 c 1
 299.045898438 468.666992188 311.545898438 473.5 321.87890625 478.5 c 0
 332.211914062 483.5 342.044921875 490 351.377929688 498 c 0
 360.7109375 506 367.377929688 515.833007812 371.377929688 527.5 c 0
 375.377929688 539.166992188 377.377929688 553 377.377929688 569 c 0
 377.377929688 593.666992188 369.877929688 612.5 354.877929688 625.5 c 0
 339.877929688 638.5 321.7109375 645 300.377929688 645 c 0
 259.7109375 645 239.377929688 620.666992188 239.377929688 572 c 0
157.377929688 174 m 0xb4
 157.377929688 139.333007812 166.708984375 110.33203125 185.375976562 86.9990234375 c 0
 204.04296875 63.666015625 228.375976562 51.9990234375 258.375976562 51.9990234375 c 0
 267.708984375 51.9990234375 276.875976562 52.9990234375 285.875976562 54.9990234375 c 0
 294.875976562 56.9990234375 302.54296875 58.9990234375 308.875976562 60.9990234375 c 0
 315.208984375 62.9990234375 321.875976562 66.33203125 328.875976562 70.9990234375 c 0
 335.875976562 75.666015625 341.375976562 79.4990234375 345.375976562 82.4990234375 c 0
 349.375976562 85.4990234375 354.208984375 90.166015625 359.875976562 96.4990234375 c 0
 365.54296875 102.83203125 369.209960938 107.33203125 370.876953125 109.999023438 c 0
 372.543945312 112.666015625 376.043945312 117.499023438 381.376953125 124.499023438 c 0
 386.709960938 131.499023438 389.709960938 135.666015625 390.376953125 136.999023438 c 0
 378.376953125 162.999023438 368.376953125 183.33203125 360.376953125 197.999023438 c 0
 352.376953125 213.33203125 336.209960938 238.33203125 311.876953125 272.999023438 c 0
 287.543945312 307.666015625 270.376953125 333.333007812 260.376953125 350 c 1
 240.376953125 341.333007812 223.209960938 330.5 208.876953125 317.5 c 0
 194.543945312 304.5 183.7109375 290.166992188 176.377929688 274.5 c 0
 169.044921875 258.833007812 164.044921875 243 161.377929688 227 c 0
 158.7109375 211 157.377929688 193.333007812 157.377929688 174 c 0xb4
EndSplineSet
Validated: 524289
EndChar

StartChar: quotesingle
Encoding: 39 39 7
Width: 630
GlyphClass: 2
Flags: HMW
HStem: 445.91 325.59
VStem: 261.834 106.332
LayerCount: 2
Fore
SplineSet
367.83203125 728 m 0
 368.0546875 719.106445312 368.166015625 708.600585938 368.166015625 696.482421875 c 0
 368.166015625 672.263671875 367.721679688 641.603515625 366.833007812 604.500976562 c 0
 365.5 548.833984375 363.166992188 509.333984375 359.833984375 486.000976562 c 0
 357.833984375 472.000976562 352.000976562 461.66796875 342.333984375 455.000976562 c 0
 333.545898438 448.940429688 324.344726562 445.91015625 314.73046875 445.91015625 c 0
 313.768554688 445.91015625 312.802734375 445.940429688 311.833007812 446.000976562 c 0
 298.5 446.66796875 286.666992188 451.000976562 276.333984375 459.000976562 c 0
 267.181640625 466.086914062 262.60546875 475.526367188 262.60546875 487.319335938 c 0
 262.60546875 490.916015625 265.083984375 520.942382812 265.083984375 578.998046875 c 0
 265.083984375 589.666015625 265.000976562 600.666992188 264.833984375 612.000976562 c 0
 264.166992188 657.333984375 263.166992188 697.666992188 261.833984375 733 c 0
 261.833984375 741 263.333984375 748 266.333984375 754 c 0
 269.333984375 760 274.000976562 764.166992188 280.333984375 766.5 c 0
 286.666992188 768.833007812 292.833984375 770.5 298.833984375 771.5 c 0
 304.833984375 772.5 310.833984375 772.666992188 316.833984375 772 c 0
 322.833984375 772 328.500976562 771.333007812 333.833984375 770 c 0
 339.166992188 768.666992188 344.5 766.5 349.833007812 763.5 c 0
 355.166015625 760.5 359.499023438 756 362.83203125 750 c 0
 366.165039062 744 367.83203125 736.666992188 367.83203125 728 c 0
EndSplineSet
Validated: 524289
EndChar

StartChar: parenleft
Encoding: 40 40 8
Width: 630
GlyphClass: 2
Flags: HMW
HStem: -130.998 83.998 733.002 81
VStem: 165.548 97.3819
LayerCount: 2
Fore
SplineSet
463.4296875 -93 m 0
 463.4296875 -103.666992188 459.09765625 -112.6640625 450.430664062 -119.997070312 c 0
 441.763671875 -127.330078125 432.763671875 -130.997070312 423.430664062 -130.997070312 c 0
 378.763671875 -130.997070312 338.263671875 -114.997070312 301.930664062 -82.9970703125 c 0
 265.59765625 -50.9970703125 235.930664062 -6.6640625 212.930664062 50.0029296875 c 0
 189.930664062 106.669921875 175.09765625 172.002929688 168.430664062 246.002929688 c 0
 166.508789062 266.04296875 165.547851562 288.569335938 165.547851562 313.58203125 c 0
 165.547851562 349.314453125 167.508789062 390.12109375 171.430664062 436.002929688 c 0
 178.09765625 514.002929688 191.09765625 578.3359375 210.430664062 629.002929688 c 0
 219.09765625 651.002929688 230.59765625 672.8359375 244.930664062 694.502929688 c 0
 259.263671875 716.169921875 275.596679688 736.002929688 293.9296875 754.002929688 c 0
 312.262695312 772.002929688 332.9296875 786.502929688 355.9296875 797.502929688 c 0
 378.9296875 808.502929688 401.762695312 814.002929688 424.4296875 814.002929688 c 0
 451.111328125 814.002929688 464.452148438 800.979492188 464.452148438 774.93359375 c 0
 464.452148438 767.493164062 464.306640625 751.90625 452.428710938 742.502929688 c 0
 444.428710938 736.169921875 434.428710938 733.002929688 422.428710938 733.002929688 c 0
 405.095703125 733.002929688 388.928710938 728.002929688 373.928710938 718.002929688 c 0
 358.928710938 708.002929688 345.76171875 694.3359375 334.428710938 677.002929688 c 0
 323.095703125 659.669921875 313.262695312 640.669921875 304.9296875 620.002929688 c 0
 296.596679688 599.3359375 289.4296875 577.002929688 283.4296875 553.002929688 c 0
 274.762695312 518.3359375 268.762695312 470.668945312 265.4296875 410.001953125 c 0
 263.763671875 379.66796875 262.930664062 352.16796875 262.930664062 327.500976562 c 0
 262.930664062 302.833984375 263.763671875 281.000976562 265.4296875 262.000976562 c 0
 268.762695312 221.333984375 275.9296875 181.833984375 286.9296875 143.500976562 c 0
 297.9296875 105.16796875 310.762695312 72.16796875 325.4296875 44.5009765625 c 0
 340.096679688 16.833984375 356.096679688 -5.3330078125 373.4296875 -22 c 0
 390.762695312 -38.6669921875 407.4296875 -47 423.4296875 -47 c 0
 436.762695312 -47 446.762695312 -50.3330078125 453.4296875 -57 c 0
 460.096679688 -63.6669921875 463.4296875 -75.6669921875 463.4296875 -93 c 0
EndSplineSet
Validated: 524289
EndChar

StartChar: parenright
Encoding: 41 41 9
Width: 630
GlyphClass: 2
Flags: HMW
HStem: -131.005 84 732.998 81.002
VStem: 365.192 99.2482
LayerCount: 2
Fore
SplineSet
461.55859375 246 m 0
 454.225585938 172 439.0625 106.662109375 416.0625 49.9951171875 c 0
 393.0625 -6.671875 363.5625 -51.0048828125 327.5625 -83.0048828125 c 0
 291.5625 -115.004882812 251.229492188 -131.004882812 206.5625 -131.004882812 c 0
 197.229492188 -131.004882812 188.229492188 -127.337890625 179.5625 -120.004882812 c 0
 170.89453125 -112.671875 166.5625 -103.671875 166.5625 -93.0048828125 c 0
 166.5625 -75.671875 170.0625 -63.671875 177.0625 -57.0048828125 c 0
 184.0625 -50.337890625 193.89453125 -47.0048828125 206.5625 -47.0048828125 c 0
 221.89453125 -47.0048828125 238.0625 -38.671875 255.0625 -22.0048828125 c 0
 272.0625 -5.337890625 287.89453125 16.8291015625 302.5625 44.49609375 c 0
 317.229492188 72.1630859375 330.229492188 105.330078125 341.5625 143.997070312 c 0
 352.89453125 182.6640625 359.89453125 221.997070312 362.5625 261.997070312 c 0
 364.31640625 281.998046875 365.193359375 305.137695312 365.193359375 331.416992188 c 0
 365.193359375 355.067382812 364.482421875 381.260742188 363.061523438 409.997070312 c 0
 360.061523438 470.6640625 353.89453125 518.331054688 344.561523438 552.998046875 c 0
 339.228515625 576.998046875 332.561523438 599.331054688 324.561523438 619.998046875 c 0
 316.561523438 640.665039062 306.728515625 659.665039062 295.061523438 676.998046875 c 0
 283.39453125 694.331054688 270.2265625 707.998046875 255.560546875 717.998046875 c 0
 240.893554688 727.998046875 225.2265625 732.998046875 208.55859375 732.998046875 c 0
 195.892578125 732.998046875 185.55859375 736.165039062 177.55859375 742.498046875 c 0
 169.55859375 748.831054688 165.55859375 758.998046875 165.55859375 772.998046875 c 0
 165.55859375 781.665039062 166.55859375 788.83203125 168.55859375 794.499023438 c 0
 170.55859375 800.166015625 174.05859375 804.333007812 179.05859375 807 c 0
 184.05859375 809.666992188 188.392578125 811.5 192.05859375 812.5 c 0
 195.7265625 813.5 200.2265625 814 205.55859375 814 c 0
 228.2265625 814 251.05859375 808.5 274.05859375 797.5 c 0
 297.05859375 786.5 317.55859375 772 335.55859375 754 c 0
 353.55859375 736 369.7265625 716.166992188 384.05859375 694.5 c 0
 398.392578125 672.833007812 410.225585938 651 419.55859375 629 c 0
 438.890625 578.333007812 451.890625 514 458.55859375 436 c 0
 462.48046875 390.118164062 464.44140625 349.311523438 464.44140625 313.579101562 c 0
 464.44140625 288.56640625 463.48046875 266.040039062 461.55859375 246 c 0
EndSplineSet
Validated: 524289
EndChar

StartChar: asterisk
Encoding: 42 42 10
Width: 630
GlyphClass: 2
Flags: HMW
HStem: 292.998 103.999 306.499 76.5001
LayerCount: 2
Fore
SplineSet
262.001953125 139 m 0x40
 259.333984375 131 254.83203125 124.999023438 248.498046875 120.999023438 c 0
 242.166015625 116.999023438 235.166015625 114.666015625 227.498046875 113.999023438 c 0
 219.83203125 113.33203125 212.498046875 113.83203125 205.498046875 115.499023438 c 0
 198.498046875 117.166015625 192.33203125 119.333007812 186.998046875 122 c 0
 180.998046875 125.333007812 175.998046875 130.166015625 171.998046875 136.499023438 c 0
 167.998046875 142.83203125 165.33203125 150.665039062 163.998046875 159.998046875 c 0
 162.666015625 169.331054688 164.666015625 178.998046875 169.998046875 188.998046875 c 2
 236.998046875 297.998046875 l 1
 182.33203125 294.665039062 141.998046875 292.998046875 115.998046875 292.998046875 c 0
 99.998046875 292.998046875 87.33203125 298.331054688 77.998046875 308.998046875 c 0
 68.666015625 319.665039062 63.998046875 330.998046875 63.998046875 342.998046875 c 0
 63.998046875 348.998046875 64.83203125 355.165039062 66.498046875 361.498046875 c 0
 68.166015625 367.831054688 70.666015625 373.831054688 73.998046875 379.498046875 c 0
 77.33203125 385.165039062 82.498046875 389.665039062 89.498046875 392.998046875 c 0
 96.498046875 396.331054688 104.33203125 397.6640625 112.998046875 396.997070312 c 0x80
 143.666015625 394.330078125 188.998046875 390.997070312 248.998046875 386.997070312 c 1
 220.33203125 435.6640625 196.665039062 472.997070312 177.998046875 498.997070312 c 0
 170.079101562 512.006835938 166.119140625 524.776367188 166.119140625 537.306640625 c 0
 166.119140625 539.544921875 166.24609375 541.775390625 166.498046875 543.998046875 c 0
 168.166015625 558.665039062 174.333007812 568.33203125 185 572.999023438 c 0
 191 576.999023438 198.5 579.166015625 207.5 579.499023438 c 0
 216.5 579.83203125 225.666015625 577.33203125 235 571.999023438 c 0
 244.333007812 566.666015625 251.666015625 558.666015625 256.998046875 547.999023438 c 0
 264.33203125 531.999023438 283.998046875 493.666015625 315.998046875 432.999023438 c 1
 342.666015625 478.33203125 362.666015625 516.33203125 375.998046875 546.999023438 c 0
 380.666015625 557.666015625 387.498046875 565.666015625 396.498046875 570.999023438 c 0
 405.498046875 576.33203125 414.166015625 578.83203125 422.498046875 578.499023438 c 0
 430.83203125 578.166015625 437.998046875 575.666015625 443.998046875 570.999023438 c 0
 450.666015625 567.666015625 456.166015625 562.333007812 460.498046875 555 c 0
 464.83203125 547.666992188 466.998046875 539 466.998046875 529 c 0
 466.998046875 519 463.666015625 509.333007812 456.998046875 500 c 0
 435.666015625 468.666992188 412.333007812 429.666992188 387 383 c 1
 445 383 486.333007812 386.666992188 511 394 c 0
 515.666015625 395.485351562 520.130859375 396.227539062 524.392578125 396.227539062 c 0
 533.525390625 396.227539062 541.728515625 392.818359375 549.000976562 386 c 0
 559.66796875 376 565.333984375 365.333007812 566.001953125 354 c 0
 566.001953125 348 565.333984375 342 564.001953125 336 c 0
 562.668945312 330 560.3359375 324 557.001953125 318 c 0
 553.669921875 312 549.001953125 307.333007812 543.001953125 304 c 0
 537.001953125 300.666992188 529.669921875 300 521.001953125 302 c 0
 504.001953125 305 474.813476562 306.5 433.4375 306.5 c 0
 419.646484375 306.5 404.500976562 306.333007812 388.001953125 306 c 1
 455.001953125 190 l 2
 460.9765625 177.506835938 463.962890625 166.23046875 463.962890625 156.170898438 c 0
 463.962890625 153.883789062 463.809570312 151.66015625 463.500976562 149.499023438 c 0
 461.833984375 137.83203125 457.000976562 129.33203125 449.000976562 123.999023438 c 0
 442.333984375 119.999023438 433.833984375 117.666015625 423.500976562 116.999023438 c 0
 422.208984375 116.916015625 420.916015625 116.874023438 419.625 116.874023438 c 2
 392.501953125 122.999023438 l 2
 382.168945312 127.666015625 375.668945312 135.333007812 373.001953125 146 c 0
 364.333984375 172.666992188 346.66796875 211 320.000976562 261 c 1
 288.66796875 199.666992188 269.333984375 159 262.001953125 139 c 0x40
EndSplineSet
Validated: 524289
EndChar

StartChar: plus
Encoding: 43 43 11
Width: 630
GlyphClass: 2
Flags: HMW
HStem: 359.8 79.1992
VStem: 273.04 80.9971
LayerCount: 2
Fore
SplineSet
354.037109375 250 m 0
 354.037109375 234.666992188 350.708007812 223.833007812 344.041015625 217.5 c 0
 337.374023438 211.166992188 328.041015625 208 316.041015625 208 c 0
 287.374023438 208 273.041015625 222 273.041015625 250 c 2
 273.041015625 357 l 1
 259.708007812 357 241.708007812 356.833007812 219.041015625 356.5 c 0
 196.374023438 356.166992188 180.70703125 356 172.040039062 356 c 0
 155.373046875 356 143.040039062 360.166992188 135.040039062 368.5 c 0
 123.399414062 380.625 122.962890625 393.616210938 122.962890625 401.888671875 c 0
 122.962890625 413.296875 126.655273438 423.000976562 134.040039062 431.000976562 c 0
 141.46875 439.048828125 152.6328125 443.072265625 167.533203125 443.072265625 c 0
 168.6796875 443.072265625 169.848632812 443.048828125 171.040039062 443.000976562 c 0
 217.70703125 441.66796875 251.70703125 441.000976562 273.040039062 441.000976562 c 1
 273.040039062 499.8203125 270.955078125 548.575195312 270.955078125 552.581054688 c 0
 270.955078125 578.860351562 285.31640625 592 314.040039062 592 c 0
 315.374023438 592.06640625 316.682617188 592.099609375 317.965820312 592.099609375 c 0
 329.514648438 592.099609375 339.0390625 589.399414062 346.538085938 584 c 0
 353.721679688 578.827148438 357.313476562 569.69140625 357.313476562 556.590820312 c 0
 357.313476562 554.495117188 357.221679688 552.297851562 357.038085938 549.999023438 c 0
 355.038085938 511.33203125 354.038085938 474.33203125 354.038085938 438.999023438 c 1
 464.038085938 438.999023438 l 2
 479.37109375 438.999023438 490.204101562 435.666015625 496.537109375 428.999023438 c 0
 502.870117188 422.33203125 506.370117188 413.33203125 507.037109375 401.999023438 c 0
 507.037109375 395.999023438 506.370117188 390.499023438 505.037109375 385.499023438 c 0
 503.704101562 380.499023438 501.704101562 375.666015625 499.037109375 370.999023438 c 0
 496.370117188 366.33203125 492.037109375 362.83203125 486.037109375 360.499023438 c 0
 480.037109375 358.166015625 472.704101562 357.333007812 464.037109375 358 c 0
 453.637695312 359.200195312 436.158203125 359.799804688 411.598632812 359.799804688 c 0
 395.224609375 359.799804688 375.704101562 359.533203125 353.037109375 359 c 1
 353.037109375 341 353.204101562 319.666992188 353.537109375 295 c 0
 353.870117188 270.333007812 354.037109375 255.333007812 354.037109375 250 c 0
EndSplineSet
Validated: 524289
EndChar

StartChar: comma
Encoding: 44 44 12
Width: 630
GlyphClass: 2
Flags: HMW
VStem: 212.51 204.501
LayerCount: 2
Fore
SplineSet
417.010742188 96 m 0
 410.34375 63.3330078125 396.010742188 12.9990234375 374.010742188 -55.0009765625 c 0
 352.010742188 -123.000976562 335.010742188 -165.000976562 323.010742188 -181.000976562 c 0
 312.34375 -195.000976562 298.84375 -205.000976562 282.510742188 -211.000976562 c 0
 272.7109375 -214.600585938 263.811523438 -216.400390625 255.811523438 -216.400390625 c 0
 250.478515625 -216.400390625 245.544921875 -215.600585938 241.01171875 -214.000976562 c 0
 234.344726562 -212.000976562 228.177734375 -208.000976562 222.510742188 -202.000976562 c 0
 216.84375 -196.000976562 213.510742188 -188.66796875 212.510742188 -180.000976562 c 0
 211.510742188 -171.333984375 214.010742188 -162.333984375 220.010742188 -153.000976562 c 0
 234.010742188 -133.000976562 253.34375 -89.0009765625 278.010742188 -21.0009765625 c 0
 302.677734375 46.9990234375 317.677734375 94.33203125 323.010742188 120.999023438 c 0
 325.010742188 130.33203125 329.677734375 137.665039062 337.010742188 142.998046875 c 0
 344.34375 148.331054688 352.010742188 150.998046875 360.010742188 150.998046875 c 0
 368.010742188 150.998046875 376.010742188 150.331054688 384.010742188 148.998046875 c 0
 394.677734375 145.665039062 403.344726562 139.33203125 410.01171875 129.999023438 c 0
 415.139648438 122.8203125 417.703125 114.458007812 417.703125 104.912109375 c 0
 417.703125 102.047851562 417.47265625 99.0771484375 417.010742188 96 c 0
EndSplineSet
Validated: 524289
EndChar

StartChar: hyphen
Encoding: 45 45 13
Width: 630
GlyphClass: 2
Flags: HMW
HStem: 243 87<189.763 215.429> 251 82<423.097 433.763 423.097 440.429>
VStem: 160.905 308.191
LayerCount: 2
Fore
SplineSet
202.095703125 330 m 0xa0
 240.095703125 330 285.4296875 330.5 338.096679688 331.5 c 0
 390.763671875 332.5 420.096679688 333 426.096679688 333 c 0
 441.4296875 333 452.262695312 329.5 458.595703125 322.5 c 0
 464.928710938 315.5 468.428710938 306.333007812 469.095703125 295 c 0
 469.095703125 265.666992188 454.762695312 251 426.095703125 251 c 0x60
 417.428710938 251 383.928710938 249.666992188 325.595703125 247 c 0
 267.262695312 244.333007812 226.762695312 243 204.095703125 243 c 0
 175.428710938 243 161.095703125 257.333007812 161.095703125 286 c 0
 160.967773438 287.872070312 160.904296875 289.684570312 160.904296875 291.4375 c 0
 160.904296875 317.145507812 174.634765625 330 202.095703125 330 c 0xa0
EndSplineSet
Validated: 524289
EndChar

StartChar: period
Encoding: 46 46 14
Width: 630
GlyphClass: 2
Flags: HMW
HStem: -14.5617 154.604
VStem: 232.999 164.001
LayerCount: 2
Fore
SplineSet
317 -14 m 0
 313.536132812 -14.3740234375 310.161132812 -14.5615234375 306.875 -14.5615234375 c 0
 286.7578125 -14.5615234375 269.965820312 -7.5439453125 256.5 6.49609375 c 0
 240.83203125 22.8291015625 233 41.99609375 233 63.99609375 c 0
 233 84.6630859375 241.83203125 102.330078125 259.5 116.997070312 c 0
 277.166015625 131.6640625 296.333007812 139.331054688 317 139.998046875 c 0
 318.037109375 140.02734375 319.06640625 140.041992188 320.087890625 140.041992188 c 0
 342.029296875 140.041992188 360.16796875 133.194335938 374.5 119.499023438 c 0
 389.5 105.166015625 397 86.9990234375 397 64.9990234375 c 0
 397 43.666015625 389.66796875 25.8330078125 375 11.5 c 0
 360.333007812 -2.8330078125 341 -11.3330078125 317 -14 c 0
EndSplineSet
Validated: 524289
EndChar

StartChar: slash
Encoding: 47 47 15
Width: 630
GlyphClass: 2
Flags: W
LayerCount: 2
Fore
SplineSet
556.029296875 676 m 0
 538.696289062 642 490.029296875 558.49609375 410.029296875 425.49609375 c 0
 330.029296875 292.49609375 281.362304688 209.99609375 264.029296875 177.99609375 c 0
 253.362304688 157.329101562 236.029296875 122.329101562 212.029296875 72.99609375 c 0
 188.029296875 23.6630859375 173.029296875 -6.3369140625 167.029296875 -17.00390625 c 0
 156.362304688 -35.6708984375 142.862304688 -48.6708984375 126.529296875 -56.00390625 c 0
 118.362304688 -59.669921875 110.737304688 -61.5029296875 103.654296875 -61.5029296875 c 0
 96.5712890625 -61.5029296875 90.029296875 -59.669921875 84.029296875 -56.0029296875 c 0
 74.029296875 -50.669921875 68.029296875 -38.3369140625 66.029296875 -19.00390625 c 0
 65.6767578125 -15.5927734375 65.5 -12.2333984375 65.5 -8.92578125 c 0
 65.5 6.51171875 69.34375 20.8193359375 77.0302734375 33.99609375 c 0
 174.36328125 193.99609375 257.696289062 336.329101562 327.029296875 460.99609375 c 0
 370.362304688 537.663085938 416.362304688 624.330078125 465.029296875 720.997070312 c 0
 470.362304688 731.6640625 477.6953125 739.831054688 487.028320312 745.498046875 c 0
 496.361328125 751.165039062 505.361328125 753.83203125 514.028320312 753.499023438 c 0
 522.6953125 753.166015625 531.362304688 751.333007812 540.029296875 748 c 0
 552.029296875 742 559.696289062 732.666992188 563.029296875 720 c 0
 564.009765625 716.274414062 564.5 712.375976562 564.5 708.3046875 c 0
 564.5 698.533203125 561.676757812 687.764648438 556.029296875 676 c 0
EndSplineSet
Validated: 524289
EndChar

StartChar: zero
Encoding: 48 48 16
Width: 630
GlyphClass: 2
Flags: HMW
HStem: -24 83.999 636.999 81.001
VStem: 79.0782 95.502 454.082 96.8403
LayerCount: 2
Fore
SplineSet
293.076171875 -24 m 0
 261.743164062 -24 232.912109375 -18.33203125 206.579101562 -6.9990234375 c 0
 180.24609375 4.333984375 157.74609375 20.0009765625 139.079101562 40.0009765625 c 0
 120.412109375 60.0009765625 105.745117188 85.0009765625 95.078125 115.000976562 c 0
 85.0390625 143.235351562 80.01953125 174.126953125 80.01953125 207.67578125 c 0
 80.01953125 209.7734375 80.0390625 211.881835938 80.078125 214 c 0
 80.078125 220.666992188 79.9111328125 237.166992188 79.578125 263.5 c 0
 79.2451171875 289.833007812 79.078125 310.833007812 79.078125 326.5 c 0
 79.078125 342.166992188 79.578125 363.833984375 80.578125 391.500976562 c 0
 81.578125 419.16796875 83.4111328125 443.000976562 86.078125 463.000976562 c 0
 88.7451171875 483.000976562 92.2451171875 504.500976562 96.578125 527.500976562 c 0
 100.911132812 550.500976562 106.744140625 570.66796875 114.077148438 588.000976562 c 0
 130.077148438 630.000976562 157.077148438 662.16796875 195.077148438 684.500976562 c 0
 233.077148438 706.833984375 279.41015625 718.000976562 334.077148438 718.000976562 c 0
 361.41015625 718.000976562 387.077148438 713.333984375 411.077148438 704.000976562 c 0
 435.077148438 694.66796875 456.41015625 681.000976562 475.077148438 663.000976562 c 0
 493.744140625 645.000976562 509.244140625 621.66796875 521.577148438 593.000976562 c 0
 533.91015625 564.333984375 541.743164062 531.333984375 545.076171875 494.000976562 c 0
 547.743164062 460.66796875 549.576171875 422.834960938 550.576171875 380.501953125 c 0
 550.806640625 370.733398438 550.921875 360.947265625 550.921875 351.143554688 c 0
 550.921875 318.459960938 549.639648438 285.579101562 547.076171875 252.500976562 c 0
 543.743164062 209.500976562 539.076171875 176.66796875 533.076171875 154.000976562 c 0
 527.076171875 131.333984375 520.409179688 111.333984375 513.076171875 94.0009765625 c 0
 505.743164062 76.66796875 497.91015625 61.66796875 489.577148438 49.0009765625 c 0
 481.244140625 36.333984375 471.911132812 25.6669921875 461.578125 17 c 0
 451.245117188 8.3330078125 440.245117188 1.3330078125 428.578125 -4 c 0
 416.911132812 -9.3330078125 403.744140625 -13.5 389.077148438 -16.5 c 0
 374.41015625 -19.5 359.743164062 -21.5 345.076171875 -22.5 c 0
 330.409179688 -23.5 313.076171875 -24 293.076171875 -24 c 0
178.078125 230.000976562 m 0
 178.078125 227.333984375 178.249023438 223.333984375 178.58203125 218.000976562 c 0
 178.915039062 212.66796875 179.08203125 209.000976562 179.08203125 207.000976562 c 1
 268.415039062 329.000976562 348.748046875 454.333984375 420.081054688 583.000976562 c 1
 408.081054688 600.333984375 393.4140625 613.666992188 376.081054688 623 c 0
 358.748046875 632.333007812 340.081054688 637 320.081054688 637 c 0
 282.748046875 637 253.581054688 626.666992188 232.581054688 606 c 0
 211.581054688 585.333007812 195.748046875 552 185.081054688 506 c 0
 181.081054688 489.333007812 178.248046875 469.833007812 176.581054688 447.5 c 0
 175.19140625 428.885742188 174.497070312 407.029296875 174.497070312 381.930664062 c 0
 174.497070312 376.916992188 174.524414062 371.7734375 174.580078125 366.500976562 c 0
 174.913085938 334.833984375 175.24609375 312.500976562 175.579101562 299.500976562 c 0
 175.912109375 286.500976562 176.745117188 263.333984375 178.078125 230.000976562 c 0
439.08203125 168.000976562 m 0
 441.749023438 176.000976562 444.58203125 198 447.58203125 234 c 0
 450.58203125 270 452.749023438 311.166992188 454.08203125 357.5 c 0
 454.462890625 370.736328125 454.653320312 383.823242188 454.653320312 396.760742188 c 0
 454.653320312 429.109375 453.462890625 460.522460938 451.08203125 491 c 1
 379.749023438 344.333007812 295.749023438 221.333007812 199.08203125 122 c 1
 217.08203125 80.6669921875 248.415039062 60 293.08203125 60 c 0
 311.08203125 60 327.249023438 61.5 341.58203125 64.5 c 0
 355.915039062 67.5 369.58203125 72.8330078125 382.58203125 80.5 c 0
 395.58203125 88.1669921875 406.58203125 99.333984375 415.58203125 114.000976562 c 0
 424.58203125 128.66796875 432.415039062 146.66796875 439.08203125 168.000976562 c 0
EndSplineSet
Validated: 524289
EndChar

StartChar: one
Encoding: 49 49 17
Width: 630
GlyphClass: 2
Flags: HMW
HStem: -9 85.5 -5 89<108.004 131.004 108.004 131.004> 511.539 21G
VStem: 267.337 96.6644 277.003 91.498
LayerCount: 2
Fore
SplineSet
558.08203125 34.8388671875 m 0xb0
 558.08203125 22.892578125 554.556640625 12.779296875 547.50390625 4.5 c 0
 539.837890625 -4.5 526.337890625 -9 507.00390625 -9 c 0xb0
 498.337890625 -9 438.837890625 -8.3330078125 328.50390625 -7 c 0
 218.170898438 -5.6669921875 147.00390625 -5 115.00390625 -5 c 0
 100.337890625 -5 89.50390625 -1 82.50390625 7 c 0
 75.50390625 15 72.00390625 25.3330078125 72.00390625 38 c 0
 71.947265625 39.16015625 71.91796875 40.302734375 71.91796875 41.4267578125 c 0
 71.91796875 53.2294921875 75.11328125 63.0869140625 81.50390625 71 c 0
 88.50390625 79.6669921875 100.00390625 84 116.00390625 84 c 0
 146.00390625 84 197.00390625 83.6669921875 269.00390625 83 c 1
 269.00390625 109.666992188 268.670898438 131 268.00390625 147 c 0
 267.55859375 150.556640625 267.3359375 159.600585938 267.3359375 174.131835938 c 0x70
 267.3359375 181.38671875 267.392578125 190.009765625 267.502929688 200 c 0
 267.8359375 230 268.002929688 251.666992188 268.002929688 265 c 0
 268.002929688 278.333007812 268.669921875 303 270.002929688 339 c 0
 271.3359375 375 272.3359375 401.833007812 273.002929688 419.5 c 0
 273.669921875 437.166992188 275.002929688 465.166992188 277.002929688 503.5 c 0
 279.002929688 541.833007812 280.3359375 570 281.002929688 588 c 1
 231.669921875 546.666992188 195.669921875 522 173.002929688 514 c 0
 168.900390625 512.359375 164.783203125 511.5390625 160.6484375 511.5390625 c 0
 151.346679688 511.5390625 141.96484375 515.692382812 132.502929688 524 c 0
 119.47265625 535.44140625 112.95703125 546.8828125 112.95703125 558.32421875 c 0
 112.95703125 558.8828125 112.97265625 559.44140625 113.00390625 560 c 0
 113.00390625 570.666992188 115.3359375 580.166992188 120.002929688 588.5 c 0
 124.669921875 596.833007812 133.002929688 605.333007812 145.002929688 614 c 0
 164.3359375 628.666992188 184.669921875 644.833984375 206.001953125 662.500976562 c 0
 227.334960938 680.16796875 242.66796875 693.000976562 252.001953125 701.000976562 c 0
 261.333984375 709.000976562 271.001953125 715.833984375 281.001953125 721.500976562 c 0
 291.001953125 727.16796875 299.66796875 730.000976562 307.001953125 730.000976562 c 0
 321.001953125 730.000976562 335.66796875 724.000976562 351.001953125 712.000976562 c 0
 366.333984375 700.000976562 374.001953125 690.000976562 374.001953125 682.000976562 c 0
 374.001953125 666.66796875 372.16796875 612.16796875 368.501953125 518.500976562 c 0x68
 364.833984375 424.833984375 363.001953125 370.000976562 363.001953125 354.000976562 c 0
 363.001953125 287.333984375 363.333984375 231.666992188 364.001953125 187 c 0
 364.001953125 162.333007812 364.66796875 126.333007812 366.001953125 79 c 1
 385.333984375 79 405.666992188 78.6669921875 427 78 c 0
 448.333984375 77.3330078125 465.833984375 76.8330078125 479.5 76.5 c 0
 493.166992188 76.1669921875 503 76 509 76 c 0
 527.666992188 76 540.333984375 72.5 547.001953125 65.5 c 0
 552.42578125 59.8046875 558.08203125 50.1865234375 558.08203125 34.8388671875 c 0xb0
EndSplineSet
Validated: 524289
EndChar

StartChar: two
Encoding: 50 50 18
Width: 630
GlyphClass: 2
Flags: HMW
HStem: -18.0049 84.0049 -14.0059 91.0059 637.997 83.999
VStem: 81.8357 99.9971 434.833 98.9971
LayerCount: 2
Fore
SplineSet
514.83203125 -12 m 0x78
 486.83203125 -12 452.001953125 -12.6728515625 410.334960938 -14.005859375 c 0x78
 368.66796875 -15.3388671875 331.834960938 -16.671875 299.834960938 -18.0048828125 c 0
 267.834960938 -19.337890625 235.001953125 -20.0048828125 201.334960938 -20.0048828125 c 0
 167.66796875 -20.0048828125 141.500976562 -18.671875 122.833984375 -16.0048828125 c 0
 108.166992188 -14.671875 97.6669921875 -5.671875 91.333984375 10.9951171875 c 0
 85.0009765625 27.662109375 81.833984375 51.662109375 81.833984375 82.9951171875 c 0
 81.833984375 111.662109375 88.0009765625 141.829101562 100.333984375 173.49609375 c 0
 112.666992188 205.163085938 130.833984375 235.49609375 154.833984375 264.49609375 c 0
 178.833984375 293.49609375 206.833984375 316.99609375 238.833984375 334.99609375 c 0
 310.166992188 374.99609375 356.166992188 402.99609375 376.833984375 418.99609375 c 0
 404.166992188 440.329101562 421.5 462.99609375 428.833007812 486.99609375 c 0
 432.833007812 500.99609375 434.833007812 518.329101562 434.833007812 538.99609375 c 0
 434.833007812 573.663085938 424.666015625 598.830078125 404.333007812 614.497070312 c 0
 384 630.1640625 355.166992188 637.997070312 317.833984375 637.997070312 c 0
 291.833984375 637.997070312 267.000976562 629.997070312 243.333984375 613.997070312 c 0
 219.666992188 597.997070312 201.5 580.330078125 188.833007812 560.997070312 c 0
 182.833007812 552.330078125 177.166015625 545.497070312 171.833007812 540.497070312 c 0
 166.5 535.497070312 160.833007812 532.6640625 154.833007812 531.997070312 c 0
 148.833007812 531.330078125 143.5 531.663085938 138.833007812 532.99609375 c 0
 134.166015625 534.329101562 127.833007812 536.662109375 119.833007812 539.995117188 c 0
 108.5 545.995117188 101.5 554.662109375 98.8330078125 565.995117188 c 0
 98.166015625 568.828125 97.8330078125 571.870117188 97.8330078125 575.120117188 c 0
 97.8330078125 584.870117188 100.833007812 596.495117188 106.833007812 609.995117188 c 0
 113.5 622.662109375 123.5 635.329101562 136.833007812 647.99609375 c 0
 150.166015625 660.663085938 165.499023438 672.663085938 182.83203125 683.99609375 c 0
 200.165039062 695.329101562 220.498046875 704.49609375 243.831054688 711.49609375 c 0
 267.1640625 718.49609375 290.497070312 721.99609375 313.830078125 721.99609375 c 0
 385.830078125 721.99609375 440.497070312 705.329101562 477.830078125 671.99609375 c 0
 515.163085938 638.663085938 533.830078125 588.663085938 533.830078125 521.99609375 c 0
 533.830078125 466.663085938 519.830078125 422.330078125 491.830078125 388.997070312 c 0
 471.163085938 364.330078125 433.830078125 336.997070312 379.830078125 306.997070312 c 0
 366.497070312 298.997070312 343.497070312 286.6640625 310.830078125 269.997070312 c 0
 282.163085938 254.6640625 258.163085938 235.831054688 238.830078125 213.498046875 c 0
 219.497070312 191.165039062 205.6640625 168.33203125 197.331054688 144.999023438 c 0
 188.998046875 121.666015625 183.831054688 96.3330078125 181.831054688 69 c 1
 219.1640625 67 255.1640625 66 289.831054688 66 c 0xb8
 324.498046875 66 351.498046875 66.5 370.831054688 67.5 c 0
 390.1640625 68.5 412.497070312 70 437.830078125 72 c 0
 463.163085938 74 479.830078125 75.3330078125 487.830078125 76 c 0
 488.497070312 76 491.6640625 76.1669921875 497.331054688 76.5 c 0
 502.998046875 76.8330078125 506.831054688 77 508.831054688 77 c 2
 518.831054688 77 l 2
 523.498046875 77 526.998046875 76.3330078125 529.331054688 75 c 0
 531.6640625 73.6669921875 534.331054688 72 537.331054688 70 c 0
 540.331054688 68 542.6640625 65.3330078125 544.331054688 62 c 0
 545.998046875 58.6669921875 547.165039062 54.6669921875 547.83203125 50 c 0
 548.499023438 42 548.166015625 33.5 546.833007812 24.5 c 0
 545.5 15.5 542 7.1669921875 536.333007812 -0.5 c 0
 530.666015625 -8.1669921875 523.499023438 -12 514.83203125 -12 c 0x78
EndSplineSet
Validated: 524289
EndChar

StartChar: three
Encoding: 51 51 19
Width: 630
GlyphClass: 2
Flags: HMW
HStem: -23.9941 84 318.006 100 638.006 83.998
VStem: 422.02 99.0491 444.002 99.998
LayerCount: 2
Fore
SplineSet
544 199 m 0xe8
 544 130.333007812 522.830078125 76.0078125 480.497070312 36.0078125 c 0
 438.1640625 -3.9921875 378.6640625 -23.9921875 301.997070312 -23.9921875 c 0
 278.6640625 -23.9921875 255.33203125 -20.4921875 231.998046875 -13.4921875 c 0
 208.665039062 -6.4921875 188.498046875 2.5078125 171.498046875 13.5078125 c 0
 154.498046875 24.5078125 139.33203125 36.5078125 125.998046875 49.5078125 c 0
 112.666015625 62.5078125 102.33203125 75.3408203125 95 88.0078125 c 0
 89 99.5078125 86 110.2578125 86 120.2578125 c 0
 86 123.590820312 86.33203125 126.840820312 87 130.0078125 c 0
 89.666015625 142.674804688 97 151.674804688 109 157.0078125 c 0
 118.1953125 161.60546875 126.755859375 163.904296875 134.68359375 163.904296875 c 0
 138.25 163.904296875 141.689453125 163.438476562 145 162.5078125 c 0
 155.66796875 159.5078125 166.333984375 151.0078125 177.000976562 137.0078125 c 0
 191.66796875 117.0078125 210.3359375 99.1748046875 233.001953125 83.5078125 c 0
 255.668945312 67.8408203125 280.001953125 60.0078125 306.001953125 60.0078125 c 0
 346.001953125 60.0078125 379.001953125 71.3408203125 405.001953125 94.0078125 c 0
 431.001953125 116.674804688 444.001953125 146.0078125 444.001953125 182.0078125 c 0xe8
 444.001953125 204.0078125 440.668945312 223.0078125 434.001953125 239.0078125 c 0
 427.3359375 255.0078125 416.66796875 269.0078125 402.000976562 281.0078125 c 0
 387.333984375 293.0078125 367.16796875 302.174804688 341.5 308.5078125 c 0
 315.833007812 314.840820312 286 318.0078125 252 318.0078125 c 0
 238 318.0078125 225.833007812 323.5078125 215.5 334.5078125 c 0
 205.16796875 345.5078125 200 357.674804688 200 371.0078125 c 0
 200 385.0078125 203.66796875 396.340820312 211 405.0078125 c 0
 218.333007812 413.674804688 229 418.0078125 243 418.0078125 c 0
 299 418.0078125 343 429.174804688 375 451.5078125 c 0
 406.34765625 473.384765625 422.020507812 505.017578125 422.020507812 546.407226562 c 0
 422.020507812 547.26953125 422.013671875 548.13671875 422 549.0078125 c 0
 422.01953125 549.903320312 422.029296875 550.791992188 422.029296875 551.673828125 c 0
 422.029296875 580.333984375 411.51953125 601.778320312 390.5 616.006835938 c 0
 368.833007812 630.673828125 337.666015625 638.006835938 297 638.006835938 c 0
 289 638.006835938 281.166015625 637.173828125 273.5 635.506835938 c 0
 265.83203125 633.83984375 259.665039062 632.172851562 254.998046875 630.505859375 c 0
 250.33203125 628.838867188 245.33203125 626.005859375 239.998046875 622.005859375 c 0
 234.665039062 618.005859375 230.165039062 614.672851562 226.498046875 612.005859375 c 0
 222.83203125 609.338867188 218.83203125 605.005859375 214.498046875 599.005859375 c 0
 210.165039062 593.005859375 206.83203125 588.838867188 204.5 586.505859375 c 0
 202.166015625 584.172851562 199 579.33984375 195 572.006835938 c 0
 184.33203125 557.33984375 173.5 548.672851562 162.5 546.005859375 c 0
 159.356445312 545.244140625 156.118164062 544.86328125 152.78515625 544.86328125 c 0
 144.451171875 544.86328125 135.5234375 547.244140625 126 552.005859375 c 0
 114.666015625 557.338867188 107.833984375 566.171875 105.5 578.504882812 c 0
 104.896484375 581.702148438 104.59375 585.044921875 104.59375 588.533203125 c 0
 104.59375 598.500976562 107.0625 609.658203125 112.001953125 622.004882812 c 0
 118.66796875 635.337890625 127.3359375 647.504882812 138.001953125 658.504882812 c 0
 148.668945312 669.504882812 161.001953125 680.004882812 175.001953125 690.004882812 c 0
 189.001953125 700.004882812 206.168945312 707.837890625 226.501953125 713.504882812 c 0
 246.8359375 719.171875 268.66796875 722.004882812 292.000976562 722.004882812 c 0
 368.66796875 722.004882812 426.3359375 706.004882812 465.001953125 674.004882812 c 0
 502.379882812 643.071289062 521.0703125 597.809570312 521.0703125 538.21875 c 0xf0
 521.0703125 536.1640625 521.046875 534.092773438 521.00390625 532.00390625 c 0
 521.00390625 512.670898438 518.50390625 495.170898438 513.50390625 479.50390625 c 0
 508.50390625 463.836914062 501.669921875 450.50390625 493.00390625 439.50390625 c 0
 484.3359375 428.50390625 473.668945312 418.836914062 461.001953125 410.50390625 c 0
 448.3359375 402.170898438 435.501953125 395.670898438 422.501953125 391.00390625 c 0
 409.501953125 386.336914062 395.668945312 382.669921875 381.001953125 380.002929688 c 1
 408.3359375 374.002929688 431.66796875 366.669921875 451.000976562 358.002929688 c 0
 470.333984375 349.3359375 487.16796875 338.168945312 501.5 324.501953125 c 0
 515.833007812 310.834960938 526.5 293.66796875 533.5 273.000976562 c 0
 540.5 252.333984375 544 227.666992188 544 199 c 0xe8
EndSplineSet
Validated: 524289
EndChar

StartChar: four
Encoding: 52 52 20
Width: 630
GlyphClass: 2
Flags: HMW
HStem: -23.001 21G 224.234 80.335
VStem: 382.003 87.4971 389.002 88.998 389.002 97.0561
LayerCount: 2
Fore
SplineSet
484 55 m 0xd0
 485.372070312 47.68359375 486.057617188 40.71875 486.057617188 34.107421875 c 0
 486.057617188 21.4423828125 483.540039062 10.072265625 478.502929688 -0.001953125 c 0
 470.8359375 -15.3349609375 459.668945312 -23.001953125 445.001953125 -23.001953125 c 0
 432.334960938 -23.001953125 420.001953125 -18.1689453125 408.001953125 -8.501953125 c 0
 396.001953125 1.1650390625 389.668945312 10.998046875 389.001953125 20.998046875 c 2
 389.001953125 59.998046875 l 1
 389.001953125 137.498046875 l 1xc8
 389.001953125 223.998046875 l 1xd0
 374.729492188 224.155273438 360.973632812 224.233398438 347.734375 224.233398438 c 0
 248.423828125 224.233398438 178.1796875 219.822265625 137.001953125 210.999023438 c 0
 126.334960938 208.999023438 116.66796875 209.33203125 108.000976562 211.999023438 c 0
 99.333984375 214.666015625 92.5009765625 219.333007812 87.5009765625 226 c 0
 82.5009765625 232.666992188 78.66796875 240.333984375 76.0009765625 249.000976562 c 0
 73.333984375 257.66796875 72.0009765625 266.66796875 72.0009765625 276.000976562 c 0
 72.0009765625 285.333984375 73.66796875 294.333984375 77.0009765625 303.000976562 c 0
 83.66796875 321.66796875 101.500976562 352.16796875 130.500976562 394.500976562 c 0
 159.500976562 436.833984375 197.16796875 489.166992188 243.500976562 551.5 c 0
 289.833984375 613.833007812 322.666992188 659 342 687 c 0
 350.666992188 699.666992188 360.5 709.166992188 371.5 715.5 c 0
 382.5 721.833007812 393 725 403 725 c 0
 405.423828125 725.2421875 407.809570312 725.36328125 410.15625 725.36328125 c 0
 420.71875 725.36328125 430.5 722.909179688 439.5 718 c 0
 450.5 712 457.333007812 701.666992188 460 687 c 0
 464 663.666992188 467.166992188 627.666992188 469.5 579 c 0xe0
 471.833007812 530.333007812 473.333007812 489.166015625 474 455.499023438 c 0
 474.666992188 421.83203125 475.666992188 370.999023438 477 302.999023438 c 1
 488.333007812 302.33203125 501 301.999023438 515 301.999023438 c 0
 530.333007812 301.999023438 541.166015625 298.499023438 547.499023438 291.499023438 c 0
 553.83203125 284.499023438 557.33203125 275.33203125 557.999023438 263.999023438 c 0
 557.999023438 234.666015625 543.666015625 219.999023438 514.999023438 219.999023438 c 0
 501.666015625 219.999023438 489.333007812 220.33203125 478 220.999023438 c 1
 479.333007812 123.666015625 481.333007812 68.3330078125 484 55 c 0xd0
382.001953125 601.997070312 m 1xe0
 283.334960938 472.6640625 216.334960938 372.330078125 181.001953125 300.997070312 c 1
 218.146484375 303.377929688 264.134765625 304.568359375 318.967773438 304.568359375 c 0
 340.897460938 304.568359375 364.2421875 304.377929688 389.001953125 303.997070312 c 1
 389.001953125 428.6640625 386.668945312 527.997070312 382.001953125 601.997070312 c 1xe0
EndSplineSet
Validated: 524289
EndChar

StartChar: five
Encoding: 53 53 21
Width: 630
GlyphClass: 2
Flags: HMW
HStem: -18.001 83.998 419.997 89.0029 619 88.998 630 79.998
VStem: 87.598 93.405 94.998 88.0029 452.996 100.006
LayerCount: 2
Fore
SplineSet
553.001953125 296 m 0xda
 553.001953125 246.666992188 546.827148438 202.166015625 534.494140625 162.499023438 c 0
 522.162109375 122.83203125 504.828125 89.83203125 482.495117188 63.4990234375 c 0
 460.162109375 37.166015625 433.330078125 16.9990234375 401.99609375 2.9990234375 c 0
 370.663085938 -11.0009765625 336.330078125 -18.0009765625 298.998046875 -18.0009765625 c 0
 269.6640625 -18.0009765625 242.6640625 -15.0009765625 217.998046875 -9.0009765625 c 0
 193.330078125 -3.0009765625 172.663085938 5.33203125 155.99609375 15.9990234375 c 0
 139.330078125 26.666015625 125.330078125 37.8330078125 113.99609375 49.5 c 0
 102.6640625 61.1669921875 93.330078125 73.333984375 85.998046875 86.0009765625 c 0
 79.998046875 99.5009765625 76.998046875 111.125976562 76.998046875 120.875976562 c 0
 76.998046875 124.125976562 77.330078125 127.16796875 77.998046875 130.000976562 c 0
 80.6640625 141.333984375 87.6640625 150.000976562 98.998046875 156.000976562 c 0
 106.330078125 159.333984375 112.498046875 161.666992188 117.498046875 163 c 0
 122.498046875 164.333007812 127.998046875 164.666015625 133.998046875 163.999023438 c 0
 139.998046875 163.33203125 145.6640625 160.665039062 150.998046875 155.998046875 c 0
 156.330078125 151.331054688 161.998046875 144.6640625 167.998046875 135.997070312 c 0
 197.998046875 89.9970703125 238.6640625 66.6640625 289.998046875 65.9970703125 c 0
 339.998046875 65.9970703125 379.6640625 85.830078125 408.998046875 125.497070312 c 0
 438.330078125 165.1640625 452.998046875 218.331054688 452.998046875 284.998046875 c 0
 452.998046875 326.331054688 443.830078125 359.1640625 425.498046875 383.497070312 c 0
 407.1640625 407.830078125 378.998046875 419.997070312 340.998046875 419.997070312 c 0
 330.998046875 419.997070312 321.330078125 419.497070312 311.998046875 418.497070312 c 0
 302.6640625 417.497070312 294.6640625 416.1640625 287.998046875 414.497070312 c 0
 281.330078125 412.830078125 274.330078125 410.330078125 266.998046875 406.997070312 c 0
 259.6640625 403.6640625 253.831054688 400.997070312 249.498046875 398.997070312 c 0
 245.166015625 396.997070312 239.83203125 393.330078125 233.499023438 387.997070312 c 0
 227.166015625 382.6640625 222.999023438 378.997070312 220.999023438 376.997070312 c 0
 218.999023438 374.997070312 214.666015625 370.830078125 207.999023438 364.497070312 c 0
 201.33203125 358.1640625 197.33203125 354.331054688 195.999023438 352.998046875 c 0
 190.666015625 348.331054688 184.166015625 344.331054688 176.499023438 340.998046875 c 0
 168.83203125 337.665039062 160.33203125 335.498046875 150.999023438 334.498046875 c 0
 141.666015625 333.498046875 132.333984375 334.998046875 123 338.998046875 c 0
 111.66796875 343.665039062 103.16796875 353.998046875 97.5 369.998046875 c 0
 91.833984375 385.998046875 88.666015625 405.665039062 88 428.998046875 c 0
 87.732421875 438.331054688 87.599609375 447.530273438 87.599609375 456.596679688 c 0xda
 87.599609375 470.197265625 87.8984375 483.498046875 88.498046875 496.499023438 c 0
 89.498046875 518.166015625 90.83203125 541.499023438 92.498046875 566.499023438 c 0
 94.166015625 591.499023438 94.998046875 608.666015625 94.998046875 617.999023438 c 1
 89.666015625 626.666015625 86.33203125 636.499023438 85 647.499023438 c 0
 83.666015625 658.499023438 84.166015625 668.666015625 86.5 677.999023438 c 0
 88.83203125 687.33203125 93.5 695.33203125 100.5 701.999023438 c 0
 107.5 708.666015625 115.666015625 711.999023438 124.999023438 711.999023438 c 0
 149.666015625 711.999023438 207.833984375 711.33203125 299.5 709.999023438 c 0xd6
 391.166992188 708.666015625 461 707.999023438 509 707.999023438 c 0
 517.666992188 707.999023438 524.833984375 704.33203125 530.501953125 696.999023438 c 0
 536.16796875 689.666015625 539.834960938 681.333007812 541.501953125 672 c 0
 543.169921875 662.666992188 543.3359375 654 542.002929688 646 c 0
 541.3359375 641.333007812 540.169921875 637.333007812 538.501953125 634 c 0
 536.834960938 630.666992188 534.501953125 628.166992188 531.501953125 626.5 c 0
 528.501953125 624.833007812 525.834960938 623.333007812 523.501953125 622 c 0
 521.169921875 620.666992188 517.669921875 619.833984375 513.001953125 619.500976562 c 0
 508.334960938 619.16796875 505.001953125 619.000976562 503.001953125 619.000976562 c 0xe6
 501.001953125 619.000976562 497.169921875 619.333984375 491.501953125 620.000976562 c 0
 485.834960938 620.66796875 482.66796875 621.000976562 482.001953125 621.000976562 c 0
 472.66796875 621.000976562 456.001953125 622.000976562 432.001953125 624.000976562 c 0
 408.001953125 626.000976562 386.66796875 627.500976562 368.001953125 628.500976562 c 0
 349.333984375 629.500976562 323.333984375 630.000976562 290.001953125 630.000976562 c 0
 256.66796875 630.000976562 221.66796875 629.000976562 185.001953125 627.000976562 c 1
 185.001953125 620.333984375 184.333984375 601.000976562 183.001953125 569.000976562 c 0xd6
 181.66796875 537.000976562 180.834960938 513.833984375 180.501953125 499.500976562 c 0
 180.390625 494.727539062 180.334960938 489.270507812 180.334960938 483.129882812 c 0
 180.334960938 470.830078125 180.557617188 455.787109375 181.002929688 438 c 1
 199.669921875 458.666992188 225.002929688 475.666992188 257.002929688 489 c 0
 289.002929688 502.333007812 325.669921875 509 367.002929688 509 c 0
 396.3359375 509 422.8359375 503.5 446.502929688 492.5 c 0
 470.169921875 481.5 489.669921875 466.333007812 505.002929688 447 c 0
 520.3359375 427.666992188 532.169921875 405.166992188 540.501953125 379.5 c 0
 548.834960938 353.833007812 553.001953125 326 553.001953125 296 c 0xda
EndSplineSet
Validated: 524289
EndChar

StartChar: six
Encoding: 54 54 22
Width: 630
GlyphClass: 2
Flags: HMW
HStem: -21.9971 84.0049 393.004 87.9961
VStem: 74.9672 91.0658 457.033 98<227.333 249.672>
LayerCount: 2
Fore
SplineSet
555.033203125 246 m 0
 555.033203125 208.666992188 548.866210938 173.502929688 536.533203125 140.502929688 c 0
 524.200195312 107.502929688 507.3671875 79.169921875 486.034179688 55.5029296875 c 0
 464.701171875 31.8359375 439.201171875 13.0029296875 409.534179688 -0.9970703125 c 0
 379.8671875 -14.9970703125 348.3671875 -21.9970703125 315.034179688 -21.9970703125 c 0
 273.701171875 -21.9970703125 237.701171875 -14.1640625 207.034179688 1.5029296875 c 0
 176.3671875 17.169921875 151.200195312 39.8369140625 131.533203125 69.50390625 c 0
 111.866210938 99.1708984375 97.3662109375 134.670898438 88.033203125 176.00390625 c 0
 79.322265625 214.580078125 74.966796875 257.51171875 74.966796875 304.798828125 c 0
 74.966796875 308.177734375 74.9892578125 311.579101562 75.0341796875 315.002929688 c 0
 75.701171875 372.3359375 81.3681640625 424.002929688 92.03515625 470.002929688 c 0
 102.702148438 516.002929688 117.53515625 554.669921875 136.53515625 586.002929688 c 0
 155.53515625 617.3359375 179.03515625 643.8359375 207.03515625 665.502929688 c 0
 235.03515625 687.169921875 265.202148438 703.669921875 297.53515625 715.002929688 c 0
 329.868164062 726.3359375 365.701171875 733.668945312 405.034179688 737.001953125 c 0
 407.954101562 737.255859375 410.807617188 737.3828125 413.594726562 737.3828125 c 0
 425.442382812 737.3828125 436.088867188 735.088867188 445.534179688 730.500976562 c 0
 457.201171875 724.833984375 463.701171875 715.666992188 465.034179688 703 c 0
 465.701171875 695 461.701171875 686.166992188 453.034179688 676.5 c 0
 444.3671875 666.833007812 434.700195312 660.333007812 424.033203125 657 c 0
 416.700195312 655 405.533203125 652.333007812 390.533203125 649 c 0
 375.533203125 645.666992188 362.700195312 642.5 352.033203125 639.5 c 0
 341.366210938 636.5 328.69921875 632 314.032226562 626 c 0
 299.365234375 620 284.865234375 611.333007812 270.532226562 600 c 0
 256.19921875 588.666992188 242.032226562 575 228.032226562 559 c 0
 213.365234375 541.666992188 199.865234375 518 187.532226562 488 c 0
 175.19921875 458 167.366210938 431.333007812 164.033203125 408 c 1
 184.700195312 432.666992188 211.700195312 451 245.033203125 463 c 0
 278.366210938 475 315.366210938 481 356.033203125 481 c 0
 386.700195312 481 414.033203125 476.666992188 438.033203125 468 c 0
 462.033203125 459.333007812 482.866210938 445.666015625 500.533203125 426.999023438 c 0
 518.200195312 408.33203125 531.700195312 383.83203125 541.033203125 353.499023438 c 0
 550.366210938 323.166015625 555.033203125 287.333007812 555.033203125 246 c 0
166.033203125 230.002929688 m 0
 167.366210938 215.3359375 170.3671875 200.506835938 175.034179688 185.506835938 c 0
 179.701171875 170.506835938 186.201171875 155.33984375 194.534179688 140.006835938 c 0
 202.8671875 124.673828125 212.700195312 111.340820312 224.033203125 100.0078125 c 0
 235.366210938 88.6748046875 249.033203125 79.5078125 265.033203125 72.5078125 c 0
 281.033203125 65.5078125 298.033203125 62.0078125 316.033203125 62.0078125 c 0
 340.700195312 62.0078125 364.033203125 70.6748046875 386.033203125 88.0078125 c 0
 408.033203125 105.340820312 425.366210938 127.173828125 438.033203125 153.506835938 c 0
 450.700195312 179.83984375 457.033203125 206.672851562 457.033203125 234.005859375 c 0
 457.033203125 265.338867188 454.366210938 291.671875 449.033203125 313.004882812 c 0
 443.700195312 334.337890625 435.200195312 350.670898438 423.533203125 362.00390625 c 0
 411.866210938 373.336914062 398.69921875 381.336914062 384.032226562 386.00390625 c 0
 369.365234375 390.670898438 351.365234375 393.00390625 330.032226562 393.00390625 c 0
 296.69921875 393.00390625 265.366210938 384.336914062 236.033203125 367.00390625 c 0
 206.700195312 349.670898438 182.700195312 327.670898438 164.033203125 301.00390625 c 1
 164.033203125 272.336914062 164.700195312 248.669921875 166.033203125 230.002929688 c 0
EndSplineSet
Validated: 524289
EndChar

StartChar: seven
Encoding: 55 55 23
Width: 630
GlyphClass: 2
Flags: HMW
HStem: -22.9443 21G 622.497 90.5
LayerCount: 2
Fore
SplineSet
214.741210938 26 m 0
 206.741210938 8.6669921875 196.236328125 -4.3349609375 183.236328125 -13.001953125 c 0
 173.294921875 -19.6298828125 163.451171875 -22.943359375 153.705078125 -22.943359375 c 0
 150.706054688 -22.943359375 147.715820312 -22.6298828125 144.735351562 -22.001953125 c 0
 130.735351562 -18.6689453125 120.90234375 -10.6689453125 115.235351562 1.998046875 c 0
 112.631835938 7.818359375 111.330078125 13.919921875 111.330078125 20.302734375 c 0
 111.330078125 27.8115234375 113.131835938 35.7099609375 116.735351562 43.998046875 c 0
 150.735351562 112.665039062 187.235351562 180.998046875 226.235351562 248.998046875 c 0
 265.235351562 316.998046875 297.568359375 371.165039062 323.235351562 411.498046875 c 0
 348.90234375 451.831054688 372.569335938 490.998046875 394.236328125 528.998046875 c 0
 415.903320312 566.998046875 430.403320312 597.998046875 437.736328125 621.998046875 c 1
 406.098632812 623.088867188 373.370117188 623.634765625 339.55078125 623.634765625 c 0
 311.370117188 623.634765625 282.431640625 623.255859375 252.736328125 622.498046875 c 0
 187.403320312 620.831054688 144.736328125 617.331054688 124.736328125 611.998046875 c 0
 116.736328125 609.998046875 109.569335938 610.331054688 103.236328125 612.998046875 c 0
 96.9033203125 615.665039062 91.736328125 619.665039062 87.736328125 624.998046875 c 0
 83.736328125 630.331054688 80.736328125 635.998046875 78.736328125 641.998046875 c 0
 76.736328125 647.998046875 75.736328125 653.998046875 75.736328125 659.998046875 c 0
 75.736328125 671.998046875 78.736328125 681.498046875 84.736328125 688.498046875 c 0
 90.736328125 695.498046875 101.736328125 700.665039062 117.736328125 703.998046875 c 0
 142.403320312 708.665039062 176.5703125 711.665039062 220.237304688 712.998046875 c 0
 242.071289062 713.6640625 263.030273438 713.997070312 283.114257812 713.997070312 c 0
 303.198242188 713.997070312 322.407226562 713.6640625 340.740234375 712.998046875 c 0
 377.407226562 711.665039062 413.407226562 710.33203125 448.740234375 708.999023438 c 0
 484.073242188 707.666015625 503.073242188 706.999023438 505.740234375 706.999023438 c 0
 512.407226562 706.999023438 519.240234375 705.499023438 526.240234375 702.499023438 c 0
 533.240234375 699.499023438 539.573242188 694.666015625 545.240234375 687.999023438 c 0
 549.575195312 682.8984375 554.263671875 674.20703125 554.263671875 660.463867188 c 0
 554.263671875 650.153320312 551.088867188 638.331054688 544.739257812 624.997070312 c 0
 535.40625 604.997070312 518.573242188 574.830078125 494.240234375 534.497070312 c 0
 469.907226562 494.1640625 444.57421875 452.831054688 418.241210938 410.498046875 c 0
 391.908203125 368.165039062 359.908203125 311.83203125 322.241210938 241.499023438 c 0
 284.57421875 171.166015625 248.741210938 99.3330078125 214.741210938 26 c 0
EndSplineSet
Validated: 524289
EndChar

StartChar: eight
Encoding: 56 56 24
Width: 630
GlyphClass: 2
Flags: W
HStem: -27.9922 85.9971<221.679 396.527> 646.004 72.001<237.915 371.632>
VStem: 68.998 85.998<120.066 256.492> 95.999 93.998<487.944 598.703> 426.997 90.002<483.938 592.01> 467.996 93.0059<121.363 264.134>
LayerCount: 2
Fore
SplineSet
561.001953125 204 m 0xc4
 561.001953125 182.666992188 558.1640625 161.338867188 552.497070312 140.005859375 c 0
 546.830078125 118.672851562 537.330078125 97.83984375 523.997070312 77.5068359375 c 0
 510.6640625 57.173828125 494.331054688 39.3408203125 474.998046875 24.0078125 c 0
 455.665039062 8.6748046875 430.998046875 -3.8251953125 400.998046875 -13.4921875 c 0
 370.998046875 -23.1591796875 337.665039062 -27.9921875 300.998046875 -27.9921875 c 0
 267.665039062 -27.9921875 237.33203125 -23.3251953125 209.999023438 -13.9921875 c 0
 182.666015625 -4.6591796875 160.499023438 7.173828125 143.499023438 21.5068359375 c 0
 126.499023438 35.83984375 112.166015625 53.0068359375 100.499023438 73.0068359375 c 0
 88.83203125 93.0068359375 80.6650390625 113.173828125 75.998046875 133.506835938 c 0
 71.3310546875 153.83984375 68.998046875 174.672851562 68.998046875 196.005859375 c 0xe4
 68.998046875 218.672851562 74.6650390625 243.005859375 85.998046875 269.005859375 c 0
 97.3310546875 295.005859375 113.831054688 319.005859375 135.498046875 341.005859375 c 0
 157.165039062 363.005859375 181.33203125 378.338867188 207.999023438 387.005859375 c 1
 172.666015625 403.672851562 145.166015625 425.505859375 125.499023438 452.505859375 c 0
 105.83203125 479.505859375 95.9990234375 507.005859375 95.9990234375 535.005859375 c 0
 95.9990234375 543.005859375 96.666015625 551.505859375 97.9990234375 560.505859375 c 0
 99.33203125 569.505859375 101.83203125 580.172851562 105.499023438 592.505859375 c 0
 109.166015625 604.838867188 114.166015625 616.671875 120.499023438 628.004882812 c 0
 126.83203125 639.337890625 135.499023438 650.504882812 146.499023438 661.504882812 c 0
 157.499023438 672.504882812 169.999023438 682.171875 183.999023438 690.504882812 c 0
 197.999023438 698.837890625 215.499023438 705.504882812 236.499023438 710.504882812 c 0
 257.499023438 715.504882812 280.33203125 718.004882812 304.999023438 718.004882812 c 0
 330.999023438 718.004882812 354.499023438 715.504882812 375.499023438 710.504882812 c 0
 396.499023438 705.504882812 414.166015625 698.837890625 428.499023438 690.504882812 c 0
 442.83203125 682.171875 455.499023438 672.504882812 466.499023438 661.504882812 c 0
 477.499023438 650.504882812 485.999023438 639.337890625 491.999023438 628.004882812 c 0
 497.999023438 616.671875 502.999023438 604.671875 506.999023438 592.004882812 c 0
 510.999023438 579.337890625 513.666015625 568.170898438 514.999023438 558.50390625 c 0
 516.33203125 548.836914062 516.999023438 539.669921875 516.999023438 531.002929688 c 0xd8
 516.999023438 523.002929688 515.999023438 515.002929688 513.999023438 507.002929688 c 0
 511.999023438 499.002929688 509.33203125 492.002929688 505.999023438 486.002929688 c 0
 502.666015625 480.002929688 498.333007812 473.669921875 493 467.002929688 c 0
 487.666992188 460.3359375 482.666992188 454.668945312 478 450.001953125 c 0
 473.333007812 445.334960938 467.333007812 440.001953125 460 434.001953125 c 0
 452.666992188 428.001953125 446.833984375 423.501953125 442.500976562 420.501953125 c 0
 438.16796875 417.501953125 432.000976562 413.334960938 424.000976562 408.001953125 c 0
 416.000976562 402.668945312 410.66796875 399.001953125 408.000976562 397.001953125 c 1
 432.66796875 386.334960938 454.334960938 374.334960938 473.001953125 361.001953125 c 0
 491.668945312 347.668945312 506.501953125 334.501953125 517.501953125 321.501953125 c 0
 528.501953125 308.501953125 537.334960938 294.668945312 544.001953125 280.001953125 c 0
 550.668945312 265.334960938 555.168945312 252.16796875 557.501953125 240.500976562 c 0
 559.834960938 228.833984375 561.001953125 216.666992188 561.001953125 204 c 0xc4
189.997070312 538.004882812 m 0xd8
 189.997070312 516.004882812 200.1640625 496.504882812 220.497070312 479.504882812 c 0
 240.830078125 462.504882812 274.330078125 445.337890625 320.997070312 428.004882812 c 1
 348.997070312 439.337890625 373.6640625 454.670898438 394.997070312 474.00390625 c 0
 416.330078125 493.336914062 426.997070312 511.336914062 426.997070312 528.00390625 c 0
 426.997070312 546.670898438 421.6640625 565.00390625 410.997070312 583.00390625 c 0
 400.330078125 601.00390625 385.497070312 616.00390625 366.497070312 628.00390625 c 0
 347.497070312 640.00390625 326.997070312 646.00390625 304.997070312 646.00390625 c 0
 273.6640625 646.00390625 246.6640625 634.836914062 223.997070312 612.50390625 c 0
 201.330078125 590.170898438 189.997070312 565.337890625 189.997070312 538.004882812 c 0xd8
304.997070312 58.0048828125 m 0
 324.330078125 58.0048828125 343.662109375 60.8330078125 362.995117188 66.5 c 0
 382.328125 72.1669921875 399.828125 80.333984375 415.495117188 91.0009765625 c 0
 431.162109375 101.66796875 443.829101562 115.66796875 453.49609375 133.000976562 c 0
 463.163085938 150.333984375 467.99609375 168.666992188 467.99609375 188 c 0
 467.99609375 198.666992188 466.99609375 208.833984375 464.99609375 218.500976562 c 0
 462.99609375 228.16796875 458.99609375 239.334960938 452.99609375 252.001953125 c 0
 446.99609375 264.668945312 438.663085938 276.3359375 427.99609375 287.002929688 c 0
 417.329101562 297.669921875 402.49609375 308.836914062 383.49609375 320.50390625 c 0
 364.49609375 332.170898438 342.329101562 342.670898438 316.99609375 352.00390625 c 1
 268.99609375 339.336914062 229.99609375 317.336914062 199.99609375 286.00390625 c 0
 169.99609375 254.670898438 154.99609375 221.337890625 154.99609375 186.004882812 c 0xe4
 154.99609375 161.337890625 162.49609375 139.004882812 177.49609375 119.004882812 c 0
 192.49609375 99.0048828125 211.329101562 83.837890625 233.99609375 73.5048828125 c 0
 256.663085938 63.171875 280.330078125 58.0048828125 304.997070312 58.0048828125 c 0
EndSplineSet
Validated: 524289
EndChar

StartChar: nine
Encoding: 57 57 25
Width: 630
GlyphClass: 2
Flags: HMW
HStem: -22.3812 21G 234.998 89 654.995 84.0049
VStem: 74.4688 98.0049 467.639 87.8928
LayerCount: 2
Fore
SplineSet
201.466796875 -22 m 0
 198.543945312 -22.25390625 195.686523438 -22.3828125 192.897460938 -22.3828125 c 0
 181.0546875 -22.3828125 170.416015625 -20.091796875 160.973632812 -15.5048828125 c 0
 149.306640625 -9.837890625 142.806640625 -0.6708984375 141.473632812 11.99609375 c 0
 140.806640625 20.6630859375 144.639648438 29.6630859375 152.97265625 38.99609375 c 0
 161.305664062 48.3291015625 171.138671875 54.662109375 182.471679688 57.9951171875 c 0
 189.8046875 59.9951171875 201.637695312 62.662109375 217.970703125 65.9951171875 c 0
 234.303710938 69.328125 248.970703125 72.828125 261.970703125 76.4951171875 c 0
 274.970703125 80.162109375 289.637695312 84.9951171875 305.970703125 90.9951171875 c 0
 322.303710938 96.9951171875 338.13671875 105.328125 353.469726562 115.995117188 c 0
 368.802734375 126.662109375 382.802734375 139.329101562 395.469726562 153.99609375 c 0
 412.13671875 173.329101562 426.969726562 195.829101562 439.969726562 221.49609375 c 0
 452.969726562 247.163085938 462.13671875 270.330078125 467.469726562 290.997070312 c 1
 448.802734375 269.6640625 424.802734375 254.997070312 395.469726562 246.997070312 c 0
 366.13671875 238.997070312 330.13671875 234.997070312 287.469726562 234.997070312 c 0
 258.13671875 234.997070312 230.13671875 241.830078125 203.469726562 255.497070312 c 0
 176.802734375 269.1640625 154.135742188 287.331054688 135.46875 309.998046875 c 0
 116.801757812 332.665039062 101.96875 358.83203125 90.96875 388.499023438 c 0
 79.96875 418.166015625 74.46875 448.333007812 74.46875 479 c 0
 74.46875 516.333007812 80.8017578125 551.166015625 93.46875 583.499023438 c 0
 106.135742188 615.83203125 123.135742188 643.33203125 144.46875 665.999023438 c 0
 165.801757812 688.666015625 191.134765625 706.499023438 220.467773438 719.499023438 c 0
 249.80078125 732.499023438 281.133789062 738.999023438 314.466796875 738.999023438 c 0
 396.466796875 738.999023438 457.466796875 707.999023438 497.466796875 645.999023438 c 0
 536.176757812 585.999023438 555.53125 500.711914062 555.53125 390.138671875 c 0
 555.53125 386.454101562 555.509765625 382.741210938 555.466796875 379 c 0
 554.799804688 325.666992188 548.1328125 277.5 535.465820312 234.5 c 0
 522.798828125 191.5 505.798828125 155 484.465820312 125 c 0
 463.1328125 95 437.6328125 69.3330078125 407.965820312 48 c 0
 378.298828125 26.6669921875 346.298828125 10.5 311.965820312 -0.5 c 0
 277.6328125 -11.5 240.799804688 -18.6669921875 201.466796875 -22 c 0
172.47265625 490.993164062 m 0
 172.47265625 436.326171875 184.302734375 394.829101562 207.969726562 366.49609375 c 0
 231.63671875 338.163085938 266.803710938 323.99609375 313.470703125 323.99609375 c 0
 342.803710938 323.99609375 371.470703125 330.663085938 399.470703125 343.99609375 c 0
 427.470703125 357.329101562 450.137695312 375.662109375 467.470703125 398.995117188 c 0
 467.58203125 402.21875 467.637695312 405.720703125 467.637695312 409.500976562 c 0
 467.637695312 428.388671875 466.249023438 454.219726562 463.471679688 486.994140625 c 0
 462.138671875 501.661132812 459.305664062 516.494140625 454.97265625 531.494140625 c 0
 450.639648438 546.494140625 444.139648438 561.661132812 435.47265625 576.994140625 c 0
 426.805664062 592.327148438 416.805664062 605.66015625 405.47265625 616.993164062 c 0
 394.139648438 628.326171875 380.47265625 637.493164062 364.47265625 644.493164062 c 0
 348.47265625 651.493164062 331.47265625 654.993164062 313.47265625 654.993164062 c 0
 288.805664062 654.993164062 265.47265625 646.993164062 243.47265625 630.993164062 c 0
 221.47265625 614.993164062 204.139648438 594.493164062 191.47265625 569.493164062 c 0
 178.805664062 544.493164062 172.47265625 518.326171875 172.47265625 490.993164062 c 0
EndSplineSet
Validated: 524289
EndChar

StartChar: colon
Encoding: 58 58 26
Width: 630
GlyphClass: 2
Flags: HMW
HStem: 39.8998 155.096 306.91 155.09
VStem: 249.71 127.695
LayerCount: 2
Fore
SplineSet
377.041015625 417 m 0
 377.283203125 413 377.404296875 408.956054688 377.404296875 404.868164062 c 0
 377.404296875 386.470703125 374.951171875 367.1796875 370.041015625 346.997070312 c 0
 366.708984375 333.6640625 359.375 323.497070312 348.041992188 316.497070312 c 0
 337.694335938 310.106445312 327.625 306.91015625 317.833984375 306.91015625 c 0
 316.900390625 306.91015625 315.970703125 306.939453125 315.041992188 306.997070312 c 0
 275.041992188 308.997070312 253.708984375 324.330078125 251.041992188 352.997070312 c 0
 250.154296875 364.994140625 249.708984375 379.211914062 249.708984375 395.651367188 c 0
 249.708984375 403.876953125 249.8203125 412.659179688 250.04296875 421.997070312 c 0
 250.04296875 430.6640625 252.54296875 437.831054688 257.54296875 443.498046875 c 0
 262.54296875 449.165039062 268.709960938 453.33203125 276.04296875 455.999023438 c 0
 283.376953125 458.666015625 290.376953125 460.333007812 297.04296875 461 c 0
 303.709960938 461.666992188 310.04296875 462 316.04296875 462 c 0
 322.04296875 462 328.209960938 461.333007812 334.54296875 460 c 0
 340.876953125 458.666992188 347.208984375 456.5 353.541992188 453.5 c 0
 359.875 450.5 365.208984375 445.833007812 369.541015625 439.5 c 0
 373.874023438 433.166992188 376.374023438 425.666992188 377.041015625 417 c 0
378.041015625 149.997070312 m 0
 379.541015625 141.249023438 380.291015625 132.40625 380.291015625 123.469726562 c 0
 380.291015625 108.571289062 378.206054688 93.412109375 374.0390625 77.9931640625 c 0
 370.706054688 64.66015625 362.373046875 54.8271484375 349.041015625 48.494140625 c 0
 336.978515625 42.7646484375 325.733398438 39.8994140625 315.307617188 39.8994140625 c 0
 314.209960938 39.8994140625 313.12109375 39.931640625 312.041015625 39.9951171875 c 0
 298.708984375 40.662109375 285.708984375 44.8291015625 273.041015625 52.49609375 c 0
 260.374023438 60.1630859375 253.374023438 70.99609375 252.041015625 84.99609375 c 0
 251.374023438 98.99609375 250.874023438 107.829101562 250.541015625 111.49609375 c 0
 250.208984375 115.163085938 250.541015625 121.99609375 251.541015625 131.99609375 c 0
 252.541015625 141.99609375 253.041015625 149.663085938 253.041015625 154.99609375 c 0
 253.041015625 162.99609375 255.374023438 169.99609375 260.041015625 175.99609375 c 0
 264.708984375 181.99609375 270.541015625 186.163085938 277.541015625 188.49609375 c 0
 284.541015625 190.829101562 291.374023438 192.49609375 298.041015625 193.49609375 c 0
 304.708984375 194.49609375 311.041015625 194.99609375 317.041015625 194.99609375 c 0
 325.041015625 194.99609375 333.041015625 193.829101562 341.041015625 191.49609375 c 0
 349.041015625 189.163085938 356.708984375 184.330078125 364.041015625 176.997070312 c 0
 371.374023438 169.6640625 376.041015625 160.6640625 378.041015625 149.997070312 c 0
EndSplineSet
Validated: 524289
EndChar

StartChar: semicolon
Encoding: 59 59 27
Width: 630
GlyphClass: 2
Flags: HMW
HStem: 264.912 155.087
VStem: 280.098 127.698
LayerCount: 2
Fore
SplineSet
407.432617188 375 m 0
 407.674804688 371.000976562 407.795898438 366.958984375 407.795898438 362.872070312 c 0
 407.795898438 344.473632812 405.340820312 325.182617188 400.431640625 304.999023438 c 0
 397.098632812 291.666015625 389.931640625 281.499023438 378.931640625 274.499023438 c 0
 368.888671875 268.108398438 358.706054688 264.912109375 348.384765625 264.912109375 c 0
 347.401367188 264.912109375 346.416992188 264.94140625 345.431640625 264.999023438 c 0
 336.764648438 265.666015625 327.931640625 267.499023438 318.931640625 270.499023438 c 0
 309.931640625 273.499023438 301.598632812 278.666015625 293.931640625 285.999023438 c 0
 286.264648438 293.33203125 282.09765625 301.999023438 281.430664062 311.999023438 c 0
 280.541992188 323.99609375 280.09765625 338.213867188 280.09765625 354.653320312 c 0
 280.09765625 362.87890625 280.208984375 371.661132812 280.431640625 380.999023438 c 0
 280.431640625 388.999023438 282.764648438 395.999023438 287.431640625 401.999023438 c 0
 292.098632812 407.999023438 298.265625 412.166015625 305.932617188 414.499023438 c 0
 313.599609375 416.83203125 320.932617188 418.499023438 327.932617188 419.499023438 c 0
 334.932617188 420.499023438 341.099609375 420.666015625 346.432617188 419.999023438 c 0
 352.432617188 419.999023438 358.432617188 419.499023438 364.432617188 418.499023438 c 0
 370.432617188 417.499023438 376.765625 415.33203125 383.432617188 411.999023438 c 0
 390.099609375 408.666015625 395.599609375 403.833007812 399.932617188 397.5 c 0
 404.265625 391.166992188 406.765625 383.666992188 407.432617188 375 c 0
388.431640625 74 m 0
 387.098632812 52.6669921875 365.431640625 -34.333984375 323.431640625 -187.000976562 c 0
 320.098632812 -201.000976562 313.265625 -211.16796875 302.932617188 -217.500976562 c 0
 293.583984375 -223.23046875 284.098632812 -226.095703125 274.4765625 -226.095703125 c 0
 273.462890625 -226.095703125 272.448242188 -226.063476562 271.431640625 -226 c 0
 258.098632812 -225.333007812 246.265625 -221 235.932617188 -213 c 0
 226.780273438 -205.9140625 222.204101562 -196.474609375 222.204101562 -184.681640625 c 0
 222.204101562 -172.114257812 230.10546875 -128.228515625 243.431640625 -63 c 0
 256.098632812 -1 266.098632812 46.3330078125 273.431640625 79 c 0
 275.431640625 89 278.431640625 97 282.431640625 103 c 0
 286.431640625 109 290.931640625 113 295.931640625 115 c 0
 300.931640625 117 306.264648438 118.333007812 311.931640625 119 c 0
 317.598632812 119.666992188 322.431640625 119.666992188 326.431640625 119 c 0
 332.431640625 119 338.931640625 118.166992188 345.931640625 116.5 c 0
 352.931640625 114.833007812 359.931640625 112.5 366.931640625 109.5 c 0
 373.931640625 106.5 379.431640625 102 383.431640625 96 c 0
 387.431640625 90 389.098632812 82.6669921875 388.431640625 74 c 0
EndSplineSet
Validated: 524289
EndChar

StartChar: less
Encoding: 60 60 28
Width: 630
GlyphClass: 2
Flags: HMW
HStem: -12.3989 21G
LayerCount: 2
Fore
SplineSet
560.041015625 14 m 0
 556.708007812 7.3330078125 551.708007812 1.6689453125 545.041015625 -2.998046875 c 0
 538.374023438 -7.6650390625 529.541015625 -10.6650390625 518.541015625 -11.998046875 c 0
 516.341796875 -12.2646484375 514.041992188 -12.3974609375 511.642578125 -12.3974609375 c 0
 502.041992188 -12.3974609375 490.841796875 -10.2646484375 478.041015625 -5.998046875 c 0
 461.374023438 -0.6650390625 440.874023438 11.001953125 416.541015625 29.001953125 c 0
 392.208007812 47.001953125 365.875 68.501953125 337.541992188 93.501953125 c 0
 309.208984375 118.501953125 281.041992188 144.001953125 253.041992188 170.001953125 c 0
 225.041992188 196.001953125 195.541992188 222.834960938 164.541992188 250.501953125 c 0
 133.541992188 278.168945312 107.375 299.668945312 86.0419921875 315.001953125 c 0
 77.375 321.001953125 71.7080078125 330.001953125 69.041015625 342.001953125 c 0
 67.7861328125 347.6484375 67.158203125 353.184570312 67.158203125 358.610351562 c 0
 67.158203125 364.713867188 67.9521484375 370.677734375 69.5400390625 376.500976562 c 0
 72.5400390625 387.500976562 78.373046875 395.333984375 87.0400390625 400.000976562 c 0
 125.040039062 428.000976562 169.540039062 463.16796875 220.540039062 505.500976562 c 0
 271.540039062 547.833984375 318.20703125 586.166992188 360.540039062 620.5 c 0
 402.873046875 654.833007812 440.373046875 682 473.040039062 702 c 0
 483.70703125 708.666992188 493.540039062 712.166992188 502.540039062 712.5 c 0
 511.540039062 712.833007812 519.373046875 711.166015625 526.040039062 707.499023438 c 0
 532.70703125 703.83203125 538.540039062 699.33203125 543.540039062 693.999023438 c 0
 548.540039062 688.666015625 552.373046875 682.999023438 555.040039062 676.999023438 c 0
 557.673828125 672.0234375 558.991210938 667.015625 558.991210938 661.975585938 c 0
 558.991210938 655.536132812 556.840820312 649.043945312 552.540039062 642.499023438 c 0
 544.873046875 630.83203125 530.040039062 616.999023438 508.040039062 600.999023438 c 0
 470.70703125 574.999023438 413.874023438 532.33203125 337.541015625 472.999023438 c 0
 261.208007812 413.666015625 213.041015625 375.999023438 193.041015625 359.999023438 c 1
 219.041015625 339.999023438 247.708007812 315.83203125 279.041015625 287.499023438 c 0
 310.374023438 259.166015625 338.374023438 233.499023438 363.041015625 210.499023438 c 0
 387.708007812 187.499023438 414.041015625 163.999023438 442.041015625 139.999023438 c 0
 470.041015625 115.999023438 494.041015625 96.9990234375 514.041015625 82.9990234375 c 0
 535.374023438 68.9990234375 549.541015625 56.83203125 556.541015625 46.4990234375 c 0
 560.741210938 40.298828125 562.841796875 33.9189453125 562.841796875 27.359375 c 0
 562.841796875 22.986328125 561.908203125 18.533203125 560.041015625 14 c 0
EndSplineSet
Validated: 524289
EndChar

StartChar: equal
Encoding: 61 61 29
Width: 630
GlyphClass: 2
Flags: HMW
HStem: 246.996 83 442.999 85.0725
LayerCount: 2
Fore
SplineSet
171.038085938 528 m 0
 209.038085938 526.666992188 248.206054688 525.99609375 288.540039062 525.99609375 c 0
 328.873046875 525.99609375 366.540039062 526.329101562 401.540039062 526.99609375 c 0
 436.540039062 527.663085938 457.373046875 527.99609375 464.040039062 527.99609375 c 0
 479.373046875 527.99609375 490.206054688 524.663085938 496.538085938 517.99609375 c 0
 502.872070312 511.329101562 506.372070312 502.329101562 507.038085938 490.99609375 c 0
 507.038085938 484.99609375 506.372070312 479.49609375 505.038085938 474.49609375 c 0
 503.706054688 469.49609375 501.706054688 464.663085938 499.038085938 459.99609375 c 0
 496.372070312 455.329101562 492.038085938 451.829101562 486.038085938 449.49609375 c 0
 480.038085938 447.163085938 472.706054688 446.330078125 464.038085938 446.997070312 c 0
 448.030273438 447.442382812 431.502929688 447.665039062 414.458007812 447.665039062 c 0
 405.947265625 447.665039062 397.307617188 447.609375 388.538085938 447.498046875 c 0
 362.205078125 447.165039062 325.705078125 446.33203125 279.038085938 444.999023438 c 0
 232.370117188 443.666015625 198.038085938 442.999023438 176.038085938 442.999023438 c 0
 159.370117188 442.999023438 146.370117188 446.999023438 137.038085938 454.999023438 c 0
 123.095703125 466.950195312 122.959960938 479.587890625 122.959960938 486.887695312 c 0
 122.959960938 498.295898438 126.653320312 508 134.038085938 516 c 0
 141.466796875 524.047851562 152.630859375 528.071289062 167.530273438 528.071289062 c 0
 168.677734375 528.071289062 169.846679688 528.047851562 171.038085938 528 c 0
174.040039062 329.99609375 m 0
 191.626953125 329.7734375 210.180664062 329.662109375 229.700195312 329.662109375 c 0
 268.635742188 329.662109375 311.416015625 330.10546875 358.041015625 330.993164062 c 0
 428.041015625 332.326171875 463.374023438 332.993164062 464.041015625 332.993164062 c 0
 479.374023438 332.993164062 490.206054688 329.493164062 496.540039062 322.493164062 c 0
 502.873046875 315.493164062 506.373046875 306.326171875 507.040039062 294.993164062 c 0
 507.040039062 288.993164062 506.373046875 283.493164062 505.040039062 278.493164062 c 0
 503.706054688 273.493164062 501.706054688 268.66015625 499.040039062 263.993164062 c 0
 496.373046875 259.326171875 492.040039062 255.826171875 486.040039062 253.493164062 c 0
 480.040039062 251.16015625 472.706054688 250.327148438 464.040039062 250.994140625 c 0
 448.032226562 251.439453125 431.357421875 251.662109375 414.014648438 251.662109375 c 0
 405.356445312 251.662109375 396.530273438 251.606445312 387.540039062 251.495117188 c 0
 360.540039062 251.162109375 323.373046875 250.329101562 276.040039062 248.99609375 c 0
 228.706054688 247.663085938 194.040039062 246.99609375 172.040039062 246.99609375 c 0
 155.373046875 246.99609375 143.040039062 251.163085938 135.040039062 259.49609375 c 0
 123.663085938 271.346679688 122.967773438 284.059570312 122.967773438 292.397460938 c 0
 122.967773438 302.677734375 126.991210938 311.376953125 135.040039062 318.49609375 c 0
 143.706054688 326.163085938 156.706054688 329.99609375 174.040039062 329.99609375 c 0
EndSplineSet
Validated: 524289
EndChar

StartChar: greater
Encoding: 62 62 30
Width: 630
GlyphClass: 2
Flags: W
LayerCount: 2
Fore
SplineSet
156.842773438 5 m 0
 146.842773438 -1 137.174804688 -4.33203125 127.840820312 -4.9990234375 c 0
 118.5078125 -5.666015625 110.5078125 -4.166015625 103.840820312 -0.4990234375 c 0
 97.173828125 3.16796875 91.5068359375 7.66796875 86.83984375 13.0009765625 c 0
 82.1728515625 18.333984375 78.505859375 24.0009765625 75.8388671875 30.0009765625 c 0
 73.138671875 35.1005859375 71.7890625 40.234375 71.7890625 45.4013671875 c 0
 71.7890625 51.716796875 73.8056640625 58.0830078125 77.8388671875 64.5 c 0
 85.171875 76.1669921875 100.171875 90 122.838867188 106 c 0
 160.171875 132 216.838867188 174.666992188 292.838867188 234 c 0
 368.838867188 293.333007812 417.506835938 331 438.838867188 347 c 1
 412.838867188 367 383.671875 391.166992188 351.338867188 419.5 c 0
 319.006835938 447.833007812 290.838867188 473.5 266.838867188 496.5 c 0
 242.838867188 519.5 216.838867188 543 188.838867188 567 c 0
 160.838867188 591 136.171875 610 114.838867188 624 c 0
 93.505859375 638 79.3388671875 650.166992188 72.3388671875 660.5 c 0
 68.3662109375 666.364257812 66.3798828125 672.389648438 66.3798828125 678.576171875 c 0
 66.3798828125 683.290039062 67.533203125 688.09765625 69.83984375 692.998046875 c 0
 73.1728515625 699.665039062 78.005859375 705.33203125 84.3388671875 709.999023438 c 0
 90.671875 714.666015625 99.671875 717.666015625 111.338867188 718.999023438 c 0
 113.671875 719.265625 116.078125 719.3984375 118.557617188 719.3984375 c 0
 128.479492188 719.3984375 139.573242188 717.265625 151.838867188 712.999023438 c 0
 168.506835938 707.666015625 189.172851562 696.166015625 213.83984375 678.499023438 c 0
 238.506835938 660.83203125 265.006835938 639.33203125 293.33984375 613.999023438 c 0
 321.672851562 588.666015625 349.83984375 562.999023438 377.83984375 536.999023438 c 0
 405.83984375 510.999023438 435.172851562 484.33203125 465.83984375 456.999023438 c 0
 496.506835938 429.666015625 523.174804688 407.999023438 545.840820312 391.999023438 c 0
 553.840820312 385.999023438 559.174804688 376.999023438 561.840820312 364.999023438 c 0
 563.026367188 359.665039062 563.620117188 354.4296875 563.620117188 349.29296875 c 0
 563.620117188 342.874023438 562.694335938 336.609375 560.842773438 330.499023438 c 0
 557.508789062 319.499023438 551.842773438 311.666015625 543.842773438 306.999023438 c 0
 505.842773438 278.999023438 461.342773438 243.83203125 410.342773438 201.499023438 c 0
 359.342773438 159.166015625 312.674804688 120.833007812 270.342773438 86.5 c 0
 228.008789062 52.1669921875 190.17578125 25 156.842773438 5 c 0
EndSplineSet
Validated: 524289
EndChar

StartChar: question
Encoding: 63 63 31
Width: 630
GlyphClass: 2
Flags: HMW
HStem: -14.5656 154.604 637.999 84.001
VStem: 211.326 163 423.328 99
LayerCount: 2
Fore
SplineSet
346.328125 262 m 0
 343.661132812 244.666992188 337.490234375 231.330078125 327.82421875 221.997070312 c 0
 321.37890625 215.775390625 313.083007812 212.6640625 302.935546875 212.6640625 c 0
 297.861328125 212.6640625 292.32421875 213.442382812 286.32421875 214.998046875 c 0
 267.657226562 219.665039062 255.32421875 228.33203125 249.32421875 240.999023438 c 0
 246.1484375 247.705078125 244.559570312 255.625 244.559570312 264.759765625 c 0
 244.559570312 272.879882812 245.814453125 281.959960938 248.32421875 291.999023438 c 0
 252.9921875 309.999023438 259.82421875 326.999023438 268.82421875 342.999023438 c 0
 277.82421875 358.999023438 287.657226562 372.666015625 298.32421875 383.999023438 c 0
 308.9921875 395.33203125 320.158203125 406.165039062 331.825195312 416.498046875 c 0
 343.4921875 426.831054688 354.66015625 436.498046875 365.326171875 445.498046875 c 0
 375.993164062 454.498046875 385.66015625 463.665039062 394.328125 472.998046875 c 0
 402.994140625 482.331054688 409.994140625 492.498046875 415.328125 503.498046875 c 0
 420.66015625 514.498046875 423.328125 526.331054688 423.328125 538.998046875 c 0
 423.328125 573.665039062 413.16015625 598.83203125 392.828125 614.499023438 c 0
 372.494140625 630.166015625 343.661132812 637.999023438 306.328125 637.999023438 c 0
 296.99609375 637.999023438 287.662109375 635.83203125 278.329101562 631.499023438 c 0
 268.99609375 627.166015625 260.829101562 622.333007812 253.829101562 617 c 0
 246.829101562 611.666992188 239.49609375 604.5 231.829101562 595.5 c 0
 224.162109375 586.5 218.162109375 578.833007812 213.829101562 572.5 c 0
 209.49609375 566.166992188 204.329101562 558.666992188 198.329101562 550 c 0
 192.329101562 541.333007812 186.662109375 534.5 181.329101562 529.5 c 0
 175.99609375 524.5 170.329101562 521.833007812 164.329101562 521.5 c 0
 158.329101562 521.166992188 152.99609375 521.5 148.329101562 522.5 c 0
 143.662109375 523.5 137.662109375 525.666992188 130.329101562 529 c 0
 118.99609375 535 111.829101562 543.666992188 108.829101562 555 c 0
 108.057617188 557.9140625 107.671875 561.048828125 107.671875 564.404296875 c 0
 107.671875 574.096679688 110.890625 585.62890625 117.329101562 599 c 0
 124.662109375 613 133.49609375 626.5 143.828125 639.5 c 0
 154.161132812 652.5 166.994140625 665.5 182.328125 678.5 c 0
 197.66015625 691.5 215.828125 702 236.828125 710 c 0
 257.828125 718 279.66015625 722 302.328125 722 c 0
 374.328125 722 428.994140625 705.333007812 466.328125 672 c 0
 503.66015625 638.666992188 522.328125 588.666992188 522.328125 522 c 0
 522.328125 504 519.494140625 487.666992188 513.828125 473 c 0
 508.16015625 458.333007812 500.66015625 445.666015625 491.328125 434.999023438 c 0
 481.994140625 424.33203125 471.494140625 414.33203125 459.828125 404.999023438 c 0
 448.16015625 395.666015625 436.16015625 386.333007812 423.828125 377 c 0
 411.494140625 367.666992188 400.161132812 358 389.828125 348 c 0
 379.49609375 338 370.328125 325.5 362.328125 310.5 c 0
 354.328125 295.5 348.99609375 279.333007812 346.328125 262 c 0
295.32421875 -14.00390625 m 0
 291.861328125 -14.3779296875 288.486328125 -14.5654296875 285.200195312 -14.5654296875 c 0
 265.083007812 -14.5654296875 248.291015625 -7.5478515625 234.82421875 6.4921875 c 0
 219.157226562 22.8251953125 211.32421875 41.9921875 211.32421875 63.9921875 c 0
 211.32421875 84.6591796875 219.82421875 102.326171875 236.82421875 116.993164062 c 0
 253.82421875 131.66015625 273.32421875 139.327148438 295.32421875 139.994140625 c 0
 296.361328125 140.0234375 297.390625 140.038085938 298.411132812 140.038085938 c 0
 320.33984375 140.038085938 338.309570312 133.190429688 352.32421875 119.495117188 c 0
 366.9921875 105.162109375 374.32421875 86.9951171875 374.32421875 64.9951171875 c 0
 374.32421875 43.662109375 367.157226562 25.8291015625 352.82421875 11.49609375 c 0
 338.4921875 -2.8369140625 319.32421875 -11.3369140625 295.32421875 -14.00390625 c 0
EndSplineSet
Validated: 524289
EndChar

StartChar: at
Encoding: 64 64 32
Width: 630
GlyphClass: 2
Flags: HMW
HStem: -129.182 85.178 102.002 77.9951 118.002 79.9941 381 77.1335 612.994 90.0078
VStem: 57.0004 87.0029 180.001 76.999 361.999 80.002 500.003 72.998
LayerCount: 2
Fore
SplineSet
522.005859375 5 m 0xdf80
 518.673828125 -4.3330078125 515.166015625 -12.5009765625 511.499023438 -19.5009765625 c 0
 507.83203125 -26.5009765625 502.83203125 -35.16796875 496.499023438 -45.5009765625 c 0
 490.166015625 -55.833984375 483.499023438 -64.6669921875 476.499023438 -72 c 0
 469.499023438 -79.3330078125 460.33203125 -86.8330078125 448.999023438 -94.5 c 0
 437.666015625 -102.166992188 425.499023438 -108.5 412.499023438 -113.5 c 0
 399.499023438 -118.5 383.999023438 -122.5 365.999023438 -125.5 c 0
 351.272460938 -127.954101562 335.654296875 -129.181640625 319.142578125 -129.181640625 c 0
 315.471679688 -129.181640625 311.7578125 -129.12109375 307.999023438 -129 c 0
 272.666015625 -129 239.666015625 -120.333007812 208.999023438 -103 c 0
 178.33203125 -85.6669921875 151.83203125 -61.5 129.499023438 -30.5 c 0
 107.166015625 0.5 89.5 38.1669921875 76.5 82.5 c 0
 63.5 126.833007812 57 175.333007812 57 228 c 0
 57 286.666992188 61.5 341.333984375 70.5 392.000976562 c 0
 79.5 442.66796875 92.33203125 486.834960938 109 524.501953125 c 0
 125.666015625 562.168945312 145.333984375 594.501953125 168 621.501953125 c 0
 190.666992188 648.501953125 215.666992188 668.834960938 243 682.501953125 c 0
 270.333984375 696.168945312 299 703.001953125 329 703.001953125 c 0
 351.666992188 703.001953125 372 701.168945312 390 697.501953125 c 0
 408 693.834960938 425.5 687.834960938 442.5 679.501953125 c 0
 459.5 671.168945312 474.5 660.001953125 487.5 646.001953125 c 0
 500.5 632.001953125 512.5 614.501953125 523.5 593.501953125 c 0
 534.5 572.501953125 543.5 548.001953125 550.5 520.001953125 c 0
 557.5 492.001953125 563 459.001953125 567 421.001953125 c 0
 571 383.001953125 573 340.334960938 573 293.001953125 c 0
 573 269.001953125 571.166992188 246.168945312 567.5 224.501953125 c 0
 563.833984375 202.834960938 558.5 182.501953125 551.5 163.501953125 c 0
 544.5 144.501953125 534.166992188 129.501953125 520.5 118.501953125 c 0
 506.833984375 107.501953125 491 102.001953125 473 102.001953125 c 0xdf80
 425 102.001953125 398 130.001953125 392 186.001953125 c 1
 376.666992188 140.668945312 347.666992188 118.001953125 305 118.001953125 c 0
 265.666992188 118.001953125 235 130.334960938 213 155.001953125 c 0
 191 179.668945312 180 217.3359375 180 268.002929688 c 0
 180 293.3359375 182.833984375 316.668945312 188.5 338.001953125 c 0
 194.166992188 359.334960938 201.833984375 377.501953125 211.501953125 392.501953125 c 0
 221.16796875 407.501953125 232.501953125 420.168945312 245.501953125 430.501953125 c 0
 258.501953125 440.834960938 272.66796875 448.16796875 288.001953125 452.500976562 c 0
 301.2890625 456.255859375 314.827148438 458.133789062 328.616210938 458.133789062 c 0
 330.73828125 458.133789062 332.8671875 458.088867188 335.001953125 458 c 0
 351.001953125 457.333007812 367.001953125 453.666015625 383.001953125 446.999023438 c 0
 398.334960938 440.999023438 410.66796875 432.999023438 420.001953125 422.999023438 c 0
 429.333984375 412.999023438 431.666992188 403.999023438 427 395.999023438 c 0
 424.333984375 390.666015625 421.333984375 386.333007812 418 383 c 0
 414.666992188 379.666992188 410.666992188 377.333984375 406 376.000976562 c 0
 401.333984375 374.66796875 397 373.66796875 393 373.000976562 c 0
 389 372.333984375 384 372.500976562 378 373.500976562 c 0
 372 374.500976562 367.333984375 375.333984375 364 376.000976562 c 0
 360.666992188 376.66796875 355.666992188 378.000976562 349 380.000976562 c 0
 340.333984375 381.333984375 331.833984375 381.666992188 323.5 381 c 0
 315.166992188 380.333007812 307 377.5 299 372.5 c 0
 291 367.5 284 361.166992188 278 353.5 c 0
 272 345.833007812 267 335.666015625 263 322.999023438 c 0
 259 310.33203125 257 295.999023438 257 279.999023438 c 0
 257 271.33203125 257.5 263.165039062 258.5 255.498046875 c 0
 259.5 247.831054688 261.5 239.1640625 264.5 229.497070312 c 0
 267.5 219.830078125 272.166992188 212.163085938 278.5 206.49609375 c 0
 284.833984375 200.829101562 292.666015625 197.99609375 301.999023438 197.99609375 c 0xbf80
 323.33203125 197.99609375 338.33203125 206.163085938 346.999023438 222.49609375 c 0
 355.666015625 238.829101562 360.666015625 265.99609375 361.999023438 303.99609375 c 0
 361.999023438 314.663085938 370.666015625 323.330078125 387.999023438 329.997070312 c 0
 398.806640625 334.2421875 408.608398438 336.365234375 417.404296875 336.365234375 c 0
 423.802734375 336.365234375 429.666992188 335.2421875 435 332.997070312 c 0
 443.666992188 329.6640625 447.333984375 322.997070312 446.001953125 312.997070312 c 0
 443.333984375 289.44140625 442.001953125 269.3671875 442.001953125 252.774414062 c 0
 442.001953125 244.478515625 442.333984375 237.052734375 443.001953125 230.497070312 c 0
 445.001953125 210.830078125 448.333984375 197.497070312 453.001953125 190.497070312 c 0
 457.66796875 183.497070312 464.334960938 179.997070312 473.001953125 179.997070312 c 0
 478.334960938 179.997070312 483.001953125 184.330078125 487.001953125 192.997070312 c 0
 491.001953125 201.6640625 493.834960938 212.997070312 495.501953125 226.997070312 c 0
 497.169921875 240.997070312 498.3359375 253.330078125 499.002929688 263.997070312 c 0
 499.669921875 274.6640625 500.002929688 284.997070312 500.002929688 294.997070312 c 0
 500.002929688 328.997070312 498.502929688 360.330078125 495.502929688 388.997070312 c 0
 492.502929688 417.6640625 488.8359375 442.1640625 484.502929688 462.497070312 c 0
 480.169921875 482.830078125 474.337890625 501.163085938 467.00390625 517.49609375 c 0
 459.670898438 533.829101562 452.670898438 547.162109375 446.00390625 557.495117188 c 0
 439.337890625 567.828125 431.337890625 576.661132812 422.00390625 583.994140625 c 0
 412.670898438 591.327148438 404.50390625 596.827148438 397.50390625 600.494140625 c 0
 390.50390625 604.161132812 382.50390625 606.994140625 373.50390625 608.994140625 c 0
 364.50390625 610.994140625 357.670898438 612.161132812 353.00390625 612.494140625 c 0
 348.337890625 612.827148438 342.669921875 612.994140625 336.002929688 612.994140625 c 0
 309.3359375 612.994140625 284.502929688 604.661132812 261.502929688 587.994140625 c 0
 238.502929688 571.327148438 218.169921875 548.16015625 200.502929688 518.493164062 c 0
 182.8359375 488.826171875 169.002929688 451.993164062 159.002929688 407.993164062 c 0
 149.002929688 363.993164062 144.002929688 315.993164062 144.002929688 263.993164062 c 0
 144.002929688 218.66015625 147.3359375 177.827148438 154.002929688 141.494140625 c 0
 160.669921875 105.161132812 169.669921875 75.828125 181.002929688 53.4951171875 c 0
 192.3359375 31.162109375 205.502929688 12.3291015625 220.502929688 -3.00390625 c 0
 235.502929688 -18.3369140625 250.502929688 -29.00390625 265.502929688 -35.00390625 c 0
 280.502929688 -41.00390625 296.002929688 -44.00390625 312.002929688 -44.00390625 c 0
 329.3359375 -44.00390625 345.3359375 -42.3369140625 360.002929688 -39.00390625 c 0
 374.669921875 -35.6708984375 386.837890625 -31.6708984375 396.50390625 -27.00390625 c 0
 406.170898438 -22.3369140625 415.337890625 -16.00390625 424.005859375 -8.00390625 c 0
 432.671875 -0.00390625 439.338867188 7.3291015625 444.005859375 13.99609375 c 0
 448.673828125 20.6630859375 454.005859375 29.330078125 460.005859375 39.9970703125 c 0
 462.673828125 44.6640625 465.005859375 48.3310546875 467.005859375 50.998046875 c 0
 469.005859375 53.6650390625 471.338867188 56.83203125 474.005859375 60.4990234375 c 0
 476.673828125 64.166015625 479.005859375 66.8330078125 481.005859375 68.5 c 0
 483.005859375 70.1669921875 485.505859375 71.6669921875 488.505859375 73 c 0
 491.505859375 74.3330078125 494.505859375 75 497.505859375 75 c 0
 500.505859375 75 503.673828125 74.3330078125 507.005859375 73 c 0
 512.338867188 71 516.838867188 68.5 520.505859375 65.5 c 0
 524.173828125 62.5 527.005859375 58.5 529.005859375 53.5 c 0
 531.005859375 48.5 531.338867188 41.8330078125 530.005859375 33.5 c 0
 528.673828125 25.1669921875 526.005859375 15.6669921875 522.005859375 5 c 0xdf80
EndSplineSet
Validated: 524289
EndChar

StartChar: A
Encoding: 65 65 33
Width: 630
GlyphClass: 2
Flags: HMW
HStem: -5.55122 21G 251 81.0059
VStem: 48.5711 90.5231
LayerCount: 2
Fore
SplineSet
139.094726562 41 m 2
 132.426757812 20.3330078125 123.094726562 6.6708984375 111.094726562 0.00390625 c 0
 104.427734375 -3.7001953125 97.658203125 -5.5517578125 90.78515625 -5.5517578125 c 0
 85.287109375 -5.5517578125 79.7236328125 -4.3671875 74.09375 -1.9970703125 c 0
 57.080078125 5.78125 48.5732421875 21.3564453125 48.5732421875 44.7294921875 c 0
 48.5732421875 53.4111328125 49.7470703125 63.1689453125 52.0947265625 74.0029296875 c 0
 56.0947265625 95.3359375 75.427734375 147.3359375 110.094726562 230.002929688 c 1
 98.0947265625 238.002929688 92.0947265625 247.669921875 92.0947265625 259.002929688 c 0
 91.427734375 268.3359375 95.5947265625 277.168945312 104.594726562 285.501953125 c 0
 113.594726562 293.834960938 125.426757812 300.334960938 140.094726562 305.001953125 c 1
 222.094726562 495.668945312 285.094726562 623.001953125 329.094726562 687.001953125 c 0
 339.094726562 700.334960938 347.926757812 710.001953125 355.594726562 716.001953125 c 0
 363.26171875 722.001953125 371.76171875 725.001953125 381.094726562 725.001953125 c 0
 383.397460938 725.244140625 385.661132812 725.365234375 387.887695312 725.365234375 c 0
 397.903320312 725.365234375 407.139648438 722.911132812 415.59375 718.001953125 c 0
 425.926757812 712.001953125 432.09375 701.668945312 434.09375 687.001953125 c 0
 448.09375 604.334960938 471.59375 487.16796875 504.59375 335.500976562 c 0
 537.59375 183.833984375 560.426757812 96.6669921875 573.09375 74 c 0
 578.649414062 63.443359375 581.426757812 53.697265625 581.426757812 44.76171875 c 0
 581.426757812 42.9755859375 581.31640625 41.2216796875 581.094726562 39.5 c 0
 579.76171875 29.1669921875 576.428710938 20.5 571.094726562 13.5 c 0
 565.762695312 6.5 559.4296875 1.3330078125 552.096679688 -2 c 0
 546.305664062 -4.4375 540.514648438 -5.65625 534.723632812 -5.65625 c 2
 514.094726562 -0.4990234375 l 2
 501.426757812 5.833984375 491.094726562 19.6669921875 483.094726562 41 c 0
 474.426757812 61.6669921875 457.760742188 131.666992188 433.09375 251 c 1
 347.760742188 247.666992188 271.426757812 240.666992188 204.094726562 230 c 1
 139.094726562 41 l 2
361.094726562 602.004882812 m 1
 331.76171875 557.337890625 290.094726562 462.671875 236.094726562 318.004882812 c 1
 304.094726562 326.004882812 364.426757812 330.671875 417.094726562 332.004882812 c 1
 361.094726562 602.004882812 l 1
EndSplineSet
Validated: 524289
EndChar

StartChar: B
Encoding: 66 66 34
Width: 630
GlyphClass: 2
Flags: HMW
HStem: -22.9961 21G 297.004 72 630.004 78.999
VStem: 73.0005 96.4978 426.997 90.0384 460.998 98.001
LayerCount: 2
Fore
SplineSet
264 -14 m 0xf4
 252.66796875 -14.6669921875 239.998046875 -15.6640625 225.998046875 -16.9970703125 c 0
 211.998046875 -18.330078125 200.665039062 -19.330078125 191.998046875 -19.9970703125 c 2
 165.998046875 -21.9970703125 l 2
 157.33203125 -22.6640625 149.498046875 -22.9970703125 142.498046875 -22.9970703125 c 0
 135.498046875 -22.9970703125 128.998046875 -22.330078125 122.998046875 -20.9970703125 c 2
 118.998046875 -20.9970703125 l 2
 105.665039062 -20.9970703125 94.83203125 -16.4970703125 86.4990234375 -7.4970703125 c 0
 78.783203125 0.8359375 74.92578125 12.1689453125 74.92578125 26.5029296875 c 0
 74.92578125 33.943359375 77.25 48.533203125 77.25 135.748046875 c 0
 77.25 152.249023438 77.1669921875 170.333984375 77 190.002929688 c 0
 76.3330078125 268.669921875 75 349.669921875 73 433.002929688 c 0
 71.6669921875 477.669921875 71 507.669921875 71 523.002929688 c 0
 71 538.3359375 71.5 559.002929688 72.5 585.002929688 c 0
 73.5 611.002929688 74 629.002929688 74 639.002929688 c 0
 74.6669921875 657.002929688 79.5 670.502929688 88.5 679.502929688 c 0
 97.5 688.502929688 109 693.002929688 123 693.002929688 c 2
 128 693.002929688 l 2
 138.66796875 696.3359375 149.66796875 699.168945312 161 701.501953125 c 0
 172.333007812 703.834960938 182.833007812 705.501953125 192.5 706.501953125 c 0
 202.16796875 707.501953125 212.66796875 708.168945312 224 708.501953125 c 0
 235.333007812 708.834960938 244.166015625 709.001953125 250.5 709.001953125 c 2
 271 709.001953125 l 1
 282 709.001953125 l 2
 327.33203125 709.001953125 367.5 700.668945312 402.5 684.001953125 c 0
 437.5 667.334960938 465.166015625 643.16796875 485.5 611.500976562 c 0
 507.921875 576.581054688 517.03515625 537.415039062 517.03515625 496.803710938 c 0xf8
 517.03515625 459.928710938 508.5234375 428.161132812 491.5 401.500976562 c 0
 473.83203125 373.833984375 449.33203125 353.666992188 418 341 c 1
 440.666015625 333.666992188 462.5 322.833984375 483.5 308.500976562 c 0
 504.5 294.16796875 522.33203125 278.16796875 537 260.500976562 c 0
 551.666015625 242.833984375 559 226.333984375 559 211.000976562 c 0
 559 185.66796875 552.666015625 160.500976562 540 135.500976562 c 0
 527.33203125 110.500976562 508.83203125 87.66796875 484.5 67.0009765625 c 0
 460.166015625 46.333984375 428.833007812 28.6669921875 390.5 14 c 0
 352.16796875 -0.6669921875 310 -10 264 -14 c 0xf4
279.998046875 630.002929688 m 0
 243.998046875 630.002929688 208.998046875 625.668945312 174.998046875 617.001953125 c 1
 174.998046875 604.334960938 174.33203125 584.001953125 172.998046875 556.001953125 c 0
 171.665039062 528.001953125 170.665039062 498.334960938 169.998046875 467.001953125 c 0
 169.6640625 451.3359375 169.497070312 435.502929688 169.497070312 419.502929688 c 0
 169.497070312 403.502929688 169.6640625 387.3359375 169.998046875 371.002929688 c 1
 201.33203125 369.669921875 230.998046875 369.002929688 258.998046875 369.002929688 c 0
 278.998046875 369.002929688 297.33203125 370.669921875 313.998046875 374.002929688 c 0
 330.665039062 377.3359375 344.498046875 381.668945312 355.498046875 387.001953125 c 0
 366.498046875 392.334960938 376.498046875 398.834960938 385.498046875 406.501953125 c 0
 394.498046875 414.168945312 401.33203125 422.001953125 405.998046875 430.001953125 c 0
 410.665039062 438.001953125 414.665039062 446.834960938 417.998046875 456.501953125 c 0
 421.33203125 466.168945312 423.6640625 474.8359375 424.997070312 482.502929688 c 0
 426.330078125 490.169921875 426.997070312 498.336914062 426.997070312 507.00390625 c 0
 426.997070312 524.336914062 423.497070312 540.336914062 416.497070312 555.00390625 c 0
 409.497070312 569.670898438 400.830078125 581.50390625 390.497070312 590.50390625 c 0
 380.1640625 599.50390625 368.33203125 607.170898438 354.998046875 613.50390625 c 0
 341.665039062 619.836914062 328.665039062 624.169921875 315.998046875 626.502929688 c 0
 303.33203125 628.8359375 291.33203125 630.002929688 279.998046875 630.002929688 c 0
265.998046875 297.001953125 m 1
 217.33203125 297.001953125 185.998046875 296.66796875 171.998046875 296.000976562 c 1
 174.665039062 188.66796875 176.665039062 112.334960938 177.998046875 67.001953125 c 1
 185.33203125 67.001953125 197.498046875 67.3349609375 214.498046875 68.001953125 c 0
 231.498046875 68.6689453125 244.33203125 69.001953125 252.998046875 69.001953125 c 0
 283.665039062 70.3349609375 312.498046875 75.66796875 339.498046875 85.0009765625 c 0
 366.498046875 94.333984375 388.33203125 105.500976562 404.998046875 118.500976562 c 0
 421.665039062 131.500976562 435.165039062 145.16796875 445.498046875 159.500976562 c 0
 455.83203125 173.833984375 460.998046875 187.000976562 460.998046875 199.000976562 c 0xf4
 460.998046875 207.66796875 457.33203125 216.334960938 449.998046875 225.001953125 c 0
 442.665039062 233.668945312 431.498046875 242.668945312 416.498046875 252.001953125 c 0
 401.498046875 261.334960938 380.998046875 270.001953125 354.998046875 278.001953125 c 0
 328.998046875 286.001953125 299.33203125 292.334960938 265.998046875 297.001953125 c 1
EndSplineSet
Validated: 524289
EndChar

StartChar: C
Encoding: 67 67 35
Width: 630
GlyphClass: 2
Flags: HMW
HStem: -31.0911 90.092 518.417 222.246 632.001 80.9961
VStem: 56.9985 100.998 470 103.001
LayerCount: 2
Fore
SplineSet
544.994140625 64 m 0xb8
 490.009765625 0.607421875 405.845703125 -31.091796875 292.490234375 -31.091796875 c 0
 289.01953125 -31.091796875 285.522460938 -31.0625 281.998046875 -31.0029296875 c 0
 254.666015625 -31.0029296875 228.666015625 -26.3359375 203.998046875 -17.0029296875 c 0
 179.331054688 -7.669921875 158.498046875 4.6630859375 141.498046875 19.99609375 c 0
 124.498046875 35.3291015625 109.33203125 53.162109375 95.998046875 73.4951171875 c 0
 82.666015625 93.828125 72.83203125 115.495117188 66.5 138.495117188 c 0
 60.166015625 161.495117188 57 184.662109375 57 207.995117188 c 0
 57 256.662109375 62 303.662109375 72 348.995117188 c 0
 82 394.328125 95.5 435.328125 112.5 471.995117188 c 0
 129.499023438 508.662109375 149.33203125 542.329101562 171.999023438 572.99609375 c 0
 194.666015625 603.663085938 218.833984375 629.163085938 244.5 649.49609375 c 0
 270.166992188 669.829101562 296.5 685.49609375 323.5 696.49609375 c 0
 350.5 707.49609375 376.333984375 712.99609375 401 712.99609375 c 0xb8
 425.666992188 712.99609375 448.333984375 710.329101562 469.001953125 704.99609375 c 1
 471.66796875 714.99609375 476.66796875 723.163085938 484.001953125 729.49609375 c 0
 491.333984375 735.829101562 500.001953125 739.329101562 510.001953125 739.99609375 c 0
 512.37109375 740.440429688 514.75 740.663085938 517.13671875 740.663085938 c 0
 525.490234375 740.663085938 533.944335938 737.940429688 542.5 732.49609375 c 0
 553.5 725.49609375 560.333984375 715.329101562 563 701.99609375 c 0
 565 691.99609375 567 682.163085938 569 672.49609375 c 0
 571 662.829101562 572.166992188 653.329101562 572.5 643.99609375 c 0
 572.833984375 634.663085938 573 626.99609375 573 620.99609375 c 2
 573 599.99609375 l 1
 573 584.99609375 l 2
 573 570.99609375 567.666992188 556.829101562 557 542.49609375 c 0
 546.333984375 528.163085938 535.666015625 520.330078125 524.999023438 518.997070312 c 0
 522.677734375 518.610351562 520.34765625 518.416992188 518.013671875 518.416992188 c 0xd8
 508.283203125 518.416992188 498.4453125 521.77734375 488.499023438 528.498046875 c 0
 476.166015625 536.831054688 469.999023438 547.998046875 469.999023438 561.998046875 c 0
 469.999023438 567.331054688 470.33203125 581.331054688 470.999023438 603.998046875 c 0
 470.33203125 604.665039062 467.166015625 606.83203125 461.498046875 610.499023438 c 0
 455.831054688 614.166015625 451.831054688 616.833007812 449.498046875 618.5 c 0
 447.166015625 620.166992188 443.33203125 622.333984375 437.999023438 625.000976562 c 0
 432.666015625 627.66796875 427.499023438 629.500976562 422.499023438 630.500976562 c 0
 417.499023438 631.500976562 412.666015625 632.000976562 407.999023438 632.000976562 c 0
 387.33203125 632.000976562 365.166015625 625.333984375 341.498046875 612.000976562 c 0
 317.831054688 598.66796875 295.1640625 579.66796875 273.498046875 555.000976562 c 0
 251.830078125 530.333984375 232.163085938 502.000976562 214.49609375 470.000976562 c 0
 196.830078125 438.000976562 182.99609375 401.833984375 172.99609375 361.500976562 c 0
 162.99609375 321.16796875 157.99609375 280.66796875 157.99609375 240.000976562 c 0
 157.99609375 210.66796875 163.663085938 182.000976562 174.99609375 154.000976562 c 0
 186.330078125 126.000976562 202.49609375 103.16796875 223.49609375 85.5009765625 c 0
 244.49609375 67.833984375 267.330078125 59.0009765625 291.99609375 59.0009765625 c 0
 313.330078125 59.0009765625 334.49609375 61.16796875 355.49609375 65.5009765625 c 0
 376.49609375 69.833984375 394.99609375 75.5009765625 410.99609375 82.5009765625 c 0
 426.99609375 89.5009765625 440.830078125 96.5009765625 452.49609375 103.500976562 c 0
 464.163085938 110.500976562 474.99609375 118.000976562 484.99609375 126.000976562 c 0
 493.663085938 132.000976562 501.163085938 136.66796875 507.49609375 140.000976562 c 0
 513.830078125 143.333984375 520.662109375 145.000976562 527.995117188 145.000976562 c 0
 535.328125 145.000976562 542.662109375 142.66796875 549.994140625 138.000976562 c 0
 561.21484375 129.2734375 566.826171875 119.234375 566.826171875 107.883789062 c 0
 566.826171875 94.95703125 559.548828125 80.3291015625 544.994140625 64 c 0xb8
EndSplineSet
Validated: 524289
EndChar

StartChar: D
Encoding: 68 68 36
Width: 630
GlyphClass: 2
Flags: HMW
HStem: -31 85.998 694.001 20G
VStem: 55.1877 98.6278 59.8135 102.002 478.815 95.9971
LayerCount: 2
Fore
SplineSet
154.815429688 348 m 0xe8
 155.482421875 319.333007812 156.645507812 276.1640625 158.3125 218.497070312 c 0
 159.979492188 160.830078125 161.1484375 117.330078125 161.815429688 87.9970703125 c 1
 189.1484375 75.9970703125 217.813476562 67.4970703125 247.813476562 62.4970703125 c 0
 277.813476562 57.4970703125 311.813476562 54.9970703125 349.813476562 54.9970703125 c 0
 368.48046875 54.9970703125 386.147460938 61.1640625 402.814453125 73.4970703125 c 0
 419.481445312 85.830078125 433.1484375 101.830078125 443.815429688 121.497070312 c 0
 454.482421875 141.1640625 462.982421875 162.831054688 469.315429688 186.498046875 c 0
 475.6484375 210.165039062 478.815429688 233.33203125 478.815429688 255.999023438 c 0
 478.815429688 381.33203125 427.482421875 476.999023438 324.815429688 542.999023438 c 0
 288.1484375 566.33203125 235.815429688 590.33203125 167.815429688 614.999023438 c 1
 166.815429688 615.999023438 l 1
 165.815429688 615.999023438 l 1
 164.815429688 615.999023438 l 1
 163.815429688 616.999023438 l 1
 162.815429688 616.999023438 l 1
 161.815429688 616.999023438 l 1
 161.815429688 617.999023438 l 1xd8
 160.815429688 617.999023438 l 1
 159.815429688 617.999023438 l 1
 158.815429688 618.999023438 l 1
 157.815429688 618.999023438 l 1
 156.815429688 618.999023438 l 1
 155.815429688 619.999023438 l 1
 154.815429688 619.999023438 l 1
 153.815429688 619.999023438 l 1
 153.815429688 620.999023438 l 1
 152.958007812 583.854492188 152.529296875 545.9140625 152.529296875 507.177734375 c 0
 152.529296875 455.533203125 153.291015625 402.473632812 154.815429688 348 c 0xe8
350.814453125 -31.0009765625 m 0
 317.481445312 -31.0009765625 284.982421875 -29.5 253.315429688 -26.5 c 0
 221.6484375 -23.5 196.481445312 -20 177.814453125 -16 c 0
 159.147460938 -12 142.814453125 -8.3330078125 128.814453125 -5 c 0
 114.814453125 -1.6669921875 106.481445312 0 103.814453125 0 c 0
 90.4814453125 0 79.4814453125 4.5 70.814453125 13.5 c 0
 63.302734375 21.2998046875 59.546875 31.7294921875 59.546875 44.7880859375 c 0
 59.546875 46.796875 59.6357421875 48.8671875 59.8134765625 51 c 0xd8
 61.3134765625 74.9990234375 62.0634765625 112.965820312 62.0634765625 164.901367188 c 0
 62.0634765625 182.21484375 61.98046875 201.081054688 61.8134765625 221.5 c 0
 61.146484375 303.166992188 59.4794921875 391.666992188 56.8125 487 c 0
 56.1455078125 524.333007812 55.6455078125 548.833007812 55.3125 560.5 c 0
 55.2294921875 563.416015625 55.1875 566.73828125 55.1875 570.466796875 c 0xe8
 55.1875 581.654296875 55.5625 596.498046875 56.3125 614.999023438 c 0
 57.3125 639.666015625 57.8125 654.666992188 57.8125 660 c 0
 58.4794921875 678 63.4794921875 691.5 72.8125 700.5 c 0
 82.1455078125 709.5 93.8125 714 107.8125 714 c 0
 116.479492188 714 127.479492188 713.333007812 140.8125 712 c 0
 154.145507812 710.666992188 171.3125 708 192.3125 704 c 0
 213.3125 700 234.8125 694.5 256.8125 687.5 c 0
 278.8125 680.5 302.645507812 670.666992188 328.3125 658 c 0
 353.979492188 645.333007812 378.3125 630.666015625 401.3125 613.999023438 c 0
 424.3125 597.33203125 446.479492188 576.499023438 467.8125 551.499023438 c 0
 489.145507812 526.499023438 507.645507812 499.166015625 523.3125 469.499023438 c 0
 538.979492188 439.83203125 551.479492188 404.499023438 560.8125 363.499023438 c 0
 570.145507812 322.499023438 574.8125 278.33203125 574.8125 230.999023438 c 0
 574.8125 207.666015625 571.645507812 183.999023438 565.3125 159.999023438 c 0
 558.979492188 135.999023438 549.3125 112.499023438 536.3125 89.4990234375 c 0
 523.3125 66.4990234375 508.145507812 45.9990234375 490.8125 27.9990234375 c 0
 473.479492188 9.9990234375 452.646484375 -4.333984375 428.313476562 -15.0009765625 c 0
 403.98046875 -25.66796875 378.147460938 -31.0009765625 350.814453125 -31.0009765625 c 0
EndSplineSet
Validated: 524289
EndChar

StartChar: E
Encoding: 69 69 37
Width: 630
GlyphClass: 2
Flags: HMW
HStem: -17.498 85.4132 -6.2352 90.7323 312.001 85.999 332.001 80.999 615.159 82.8417
VStem: 68.3136 97.4971
LayerCount: 2
Fore
SplineSet
511.30859375 -6 m 0x4c
 509.124023438 -5.87890625 506.376953125 -5.818359375 503.06640625 -5.818359375 c 0
 488.189453125 -5.818359375 461.939453125 -7.044921875 424.311523438 -9.4990234375 c 0
 378.311523438 -12.4990234375 327.811523438 -15.166015625 272.811523438 -17.4990234375 c 0
 243.1953125 -18.7548828125 217.009765625 -19.3828125 194.255859375 -19.3828125 c 0
 174.75390625 -19.3828125 157.772460938 -18.9208984375 143.311523438 -17.998046875 c 0
 127.978515625 -17.3310546875 112.645507812 -9.8310546875 97.3125 4.501953125 c 0
 81.9794921875 18.8349609375 72.9794921875 36.3349609375 70.3125 57.001953125 c 0
 68.3125 74.3349609375 67.3125 105.501953125 67.3125 150.501953125 c 0
 67.3125 195.501953125 67.6455078125 243.334960938 68.3125 294.001953125 c 0
 68.53515625 310.899414062 68.646484375 328.500976562 68.646484375 346.806640625 c 0
 68.646484375 383.391601562 68.2021484375 422.790039062 67.3134765625 465.001953125 c 0
 66.646484375 505.001953125 66.146484375 531.501953125 65.8134765625 544.501953125 c 0
 65.73046875 547.750976562 65.6884765625 551.385742188 65.6884765625 555.405273438 c 0
 65.6884765625 567.467773438 66.0634765625 583 66.8134765625 602.000976562 c 0
 67.8134765625 627.333984375 68.3134765625 643.000976562 68.3134765625 649.000976562 c 0
 68.98046875 667.000976562 73.98046875 680.66796875 83.3134765625 690.000976562 c 0
 92.646484375 699.333984375 104.313476562 704.000976562 118.313476562 704.000976562 c 0
 119.2265625 704.036132812 120.127929688 704.053710938 121.018554688 704.053710938 c 0
 137.040039062 704.053710938 149.471679688 698.369140625 158.313476562 687.000976562 c 1
 196.313476562 692.333984375 240.813476562 695.666992188 291.813476562 697 c 0
 317.313476562 697.666015625 341.35546875 697.999023438 363.938476562 697.999023438 c 0
 386.521484375 697.999023438 407.646484375 697.666015625 427.3125 697 c 0
 466.645507812 695.666992188 497.978515625 693.666992188 521.311523438 691 c 0
 537.311523438 689 548.311523438 685 554.311523438 679 c 0
 560.311523438 673 563.64453125 664.666992188 564.311523438 654 c 0
 564.311523438 648 563.64453125 642.333007812 562.311523438 637 c 0
 560.978515625 631.666992188 558.811523438 626.833984375 555.811523438 622.500976562 c 0
 552.811523438 618.16796875 548.311523438 614.66796875 542.311523438 612.000976562 c 0
 536.311523438 609.333984375 529.311523438 608.666992188 521.311523438 610 c 0
 475.137695312 613.438476562 428.692382812 615.158203125 381.975585938 615.158203125 c 0
 365.2890625 615.158203125 348.567382812 614.938476562 331.811523438 614.5 c 0
 268.14453125 612.833007812 213.64453125 608.666015625 168.311523438 601.999023438 c 1
 165.64453125 532.666015625 164.311523438 464.666015625 164.311523438 397.999023438 c 1xac
 212.978515625 397.999023438 279.311523438 400.499023438 363.311523438 405.499023438 c 0
 447.311523438 410.499023438 494.64453125 412.999023438 505.311523438 412.999023438 c 0
 520.64453125 412.999023438 531.477539062 409.666015625 537.810546875 402.999023438 c 0
 544.143554688 396.33203125 547.310546875 386.999023438 547.310546875 374.999023438 c 0
 547.310546875 346.318359375 533.92578125 331.977539062 507.157226562 331.977539062 c 0
 506.548828125 331.977539062 505.93359375 331.985351562 505.311523438 332 c 0x1c
 493.311523438 332 441.811523438 328.666992188 350.811523438 322 c 0
 259.811523438 315.333007812 197.978515625 312 165.311523438 312 c 1
 165.311523438 297.333007812 165.478515625 278.166015625 165.811523438 254.499023438 c 0
 166.14453125 230.83203125 166.477539062 210.499023438 166.810546875 193.499023438 c 0
 167.143554688 176.499023438 167.4765625 158.999023438 167.809570312 140.999023438 c 0
 168.142578125 122.999023438 168.809570312 108.166015625 169.809570312 96.4990234375 c 0
 170.809570312 84.83203125 172.309570312 76.6650390625 174.309570312 71.998046875 c 0
 184.420898438 69.275390625 206.387695312 67.9140625 240.208984375 67.9140625 c 0xac
 264.36328125 67.9140625 294.563476562 68.6083984375 330.809570312 69.9970703125 c 0
 417.809570312 73.330078125 473.642578125 77.6630859375 498.309570312 82.99609375 c 0
 507.642578125 84.3291015625 515.642578125 84.8291015625 522.309570312 84.49609375 c 0
 528.9765625 84.1630859375 534.809570312 82.830078125 539.809570312 80.4970703125 c 0
 544.809570312 78.1640625 548.809570312 75.6640625 551.809570312 72.9970703125 c 0
 554.809570312 70.330078125 557.142578125 66.830078125 558.809570312 62.4970703125 c 0
 560.4765625 58.1640625 561.809570312 54.3310546875 562.809570312 50.998046875 c 0
 563.809570312 47.6650390625 564.309570312 44.33203125 564.309570312 40.9990234375 c 0
 564.309570312 28.33203125 559.809570312 16.9990234375 550.809570312 6.9990234375 c 0
 542.868164062 -1.82421875 531.682617188 -6.2353515625 517.252929688 -6.2353515625 c 0
 515.329101562 -6.2353515625 513.34765625 -6.1572265625 511.30859375 -6 c 0x4c
EndSplineSet
Validated: 524289
EndChar

StartChar: F
Encoding: 70 70 38
Width: 630
GlyphClass: 2
Flags: HMW
HStem: -21.0722 21G 322.534 84.6107 621.784 84.7164 694.192 20G
VStem: 70.2351 103.262 72.7521 93.745
LayerCount: 2
Fore
SplineSet
173.497070312 24 m 0xe8
 172.1640625 10 165.669921875 -1.166015625 154.002929688 -9.4990234375 c 0
 143.200195312 -17.21484375 131.112304688 -21.072265625 117.73828125 -21.072265625 c 0
 116.66796875 -21.072265625 115.588867188 -21.0478515625 114.501953125 -20.998046875 c 0
 101.168945312 -20.998046875 90.1689453125 -16.498046875 81.501953125 -7.498046875 c 0
 73.990234375 0.302734375 70.234375 10.732421875 70.234375 23.791015625 c 0xe8
 70.234375 25.7998046875 70.3232421875 27.8701171875 70.5009765625 30.0029296875 c 0
 72.0009765625 52.001953125 72.7509765625 89.09375 72.7509765625 141.279296875 c 0
 72.7509765625 158.676757812 72.66796875 177.750976562 72.5009765625 198.502929688 c 0
 71.833984375 281.502929688 70.1669921875 367.002929688 67.5 455.002929688 c 0
 66.1669921875 499.669921875 65.5 529.669921875 65.5 545.002929688 c 0
 65.5 560.3359375 66 581.002929688 67 607.002929688 c 0
 68 633.002929688 68.5 650.669921875 68.5 660.002929688 c 0
 69.1669921875 678.002929688 74.1669921875 691.502929688 83.5 700.502929688 c 0
 92.8330078125 709.502929688 104.5 714.002929688 118.5 714.002929688 c 0
 120.213867188 714.129882812 121.888671875 714.193359375 123.524414062 714.193359375 c 0xd4
 139.063476562 714.193359375 151.055664062 708.462890625 159.5 697.001953125 c 1
 224.833007812 701.668945312 291 704.668945312 358 706.001953125 c 0
 374.749023438 706.334960938 390.73828125 706.501953125 405.966796875 706.501953125 c 0
 451.655273438 706.501953125 490.5 705.001953125 522.500976562 702.001953125 c 0
 537.833984375 700.668945312 548.666992188 696.8359375 555 690.502929688 c 0
 561.333007812 684.169921875 564.5 675.336914062 564.5 664.00390625 c 0
 564.5 651.336914062 560.833007812 640.669921875 553.5 632.002929688 c 0
 546.166992188 623.3359375 534.5 619.002929688 518.5 619.002929688 c 0
 481.166992188 620.857421875 442.704101562 621.78515625 403.112304688 621.78515625 c 0
 328.877929688 621.78515625 250.673828125 618.524414062 168.5 612.002929688 c 1
 168.5 600.669921875 168.166992188 582.502929688 167.5 557.502929688 c 0
 166.833007812 532.502929688 166.166015625 507.002929688 165.499023438 481.002929688 c 0
 165.165039062 468.002929688 164.998046875 454.919921875 164.998046875 441.752929688 c 0
 164.998046875 428.5859375 165.165039062 415.3359375 165.499023438 402.001953125 c 1
 195.783203125 405.430664062 229.005859375 407.145507812 265.166992188 407.145507812 c 0
 271.1953125 407.145507812 277.305664062 407.09765625 283.498046875 407.001953125 c 0
 326.831054688 406.334960938 366.1640625 404.501953125 401.497070312 401.501953125 c 0
 436.830078125 398.501953125 464.497070312 395.334960938 484.497070312 392.001953125 c 0
 500.497070312 389.334960938 511.497070312 385.001953125 517.497070312 379.001953125 c 0
 523.497070312 373.001953125 526.830078125 364.668945312 527.497070312 354.001953125 c 0
 527.497070312 348.001953125 526.997070312 342.501953125 525.997070312 337.501953125 c 0
 524.997070312 332.501953125 523.1640625 327.668945312 520.497070312 323.001953125 c 0
 517.830078125 318.334960938 513.497070312 314.834960938 507.497070312 312.501953125 c 0
 501.497070312 310.168945312 493.830078125 309.3359375 484.497070312 310.002929688 c 0
 463.830078125 313.3359375 435.497070312 316.168945312 399.497070312 318.501953125 c 0
 363.497070312 320.834960938 322.997070312 322.16796875 277.997070312 322.500976562 c 0
 275 322.5234375 272.038085938 322.534179688 269.110351562 322.534179688 c 0
 228.081054688 322.534179688 193.875976562 320.356445312 166.497070312 316 c 1xe4
 170.497070312 139.333007812 172.830078125 42 173.497070312 24 c 0xe8
EndSplineSet
Validated: 524289
EndChar

StartChar: G
Encoding: 71 71 39
Width: 630
GlyphClass: 2
Flags: HMW
HStem: -31.0616 90.0616 278 81.8571 643.002 80.999
VStem: 55.665 100.001
LayerCount: 2
Fore
SplineSet
543.669921875 244 m 0
 542.336914062 230 538.162109375 213.669921875 531.162109375 195.002929688 c 0
 524.162109375 176.3359375 515.495117188 156.502929688 505.162109375 135.502929688 c 0
 494.829101562 114.502929688 481.49609375 94.169921875 465.163085938 74.5029296875 c 0
 448.830078125 54.8359375 431.663085938 37.0029296875 413.663085938 21.0029296875 c 0
 395.663085938 5.0029296875 374.663085938 -7.830078125 350.663085938 -17.4970703125 c 0
 328.211914062 -26.5400390625 306.052734375 -31.0615234375 284.185546875 -31.0615234375 c 0
 282.676757812 -31.0615234375 281.168945312 -31.0400390625 279.663085938 -30.9970703125 c 0
 252.330078125 -30.9970703125 226.497070312 -26.330078125 202.1640625 -16.9970703125 c 0
 177.831054688 -7.6640625 156.998046875 4.6689453125 139.665039062 20.001953125 c 0
 122.33203125 35.3349609375 107.165039062 53.16796875 94.1650390625 73.5009765625 c 0
 81.1650390625 93.833984375 71.498046875 115.500976562 65.1650390625 138.500976562 c 0
 58.83203125 161.500976562 55.6650390625 184.66796875 55.6650390625 208.000976562 c 0
 55.6650390625 257.333984375 60.498046875 305.333984375 70.1650390625 352.000976562 c 0
 79.83203125 398.66796875 93.33203125 440.66796875 110.665039062 478.000976562 c 0
 127.998046875 515.333984375 147.998046875 549.500976562 170.665039062 580.500976562 c 0
 193.33203125 611.500976562 217.499023438 637.500976562 243.166015625 658.500976562 c 0
 268.833007812 679.500976562 295 695.66796875 321.666992188 707.000976562 c 0
 348.333984375 718.333984375 374.000976562 724.000976562 398.66796875 724.000976562 c 0
 426.66796875 724.000976562 457.834960938 717.500976562 492.16796875 704.500976562 c 0
 526.500976562 691.500976562 549.000976562 680.333984375 559.66796875 671.000976562 c 0
 569.446289062 661.22265625 574.334960938 649.518554688 574.334960938 635.888671875 c 0
 574.334960938 629.07421875 573.11328125 621.778320312 570.668945312 614.000976562 c 0
 568.001953125 605.333984375 561.668945312 599.000976562 551.668945312 595.000976562 c 0
 546.668945312 593.000976562 541.501953125 592.000976562 536.168945312 592.000976562 c 0
 530.8359375 592.000976562 525.3359375 593.000976562 519.669921875 595.000976562 c 0
 515.669921875 596.333984375 506.502929688 601.333984375 492.169921875 610.000976562 c 0
 477.836914062 618.66796875 463.169921875 626.334960938 448.169921875 633.001953125 c 0
 433.169921875 639.668945312 419.336914062 643.001953125 406.669921875 643.001953125 c 0
 386.002929688 643.001953125 363.8359375 636.168945312 340.168945312 622.501953125 c 0
 316.501953125 608.834960938 293.834960938 589.16796875 272.16796875 563.500976562 c 0
 250.500976562 537.833984375 230.833984375 508.666992188 213.166992188 476 c 0
 195.5 443.333007812 181.5 406.333007812 171.166992188 365 c 0
 160.833984375 323.666992188 155.666992188 282 155.666992188 240 c 0
 155.666992188 210.666992188 161.333984375 182 172.666992188 154 c 0
 184 126 200.166992188 103.166992188 221.166992188 85.5 c 0
 242.166992188 67.8330078125 265.333984375 59 290.666992188 59 c 0
 306.666992188 59 323.166992188 64.1669921875 340.166992188 74.5 c 0
 357.166992188 84.8330078125 372.333984375 98 385.666992188 114 c 0
 399 130 411.5 148 423.166992188 168 c 0
 434.833984375 188 444.833984375 207.333007812 453.166992188 226 c 0
 461.5 244.666992188 468 262 472.666992188 278 c 1
 430.666992188 276 389.5 272.333007812 349.166992188 267 c 0
 308.833984375 261.666992188 281.000976562 254.666992188 265.66796875 246 c 0
 260.299804688 243.158203125 255.043945312 241.737304688 249.900390625 241.737304688 c 0
 244.184570312 241.737304688 238.607421875 243.491210938 233.168945312 247 c 0
 222.8359375 253.666992188 217.002929688 262.666992188 215.669921875 274 c 0
 215.1796875 277.1015625 214.934570312 280.118164062 214.934570312 283.05078125 c 0
 214.934570312 304.064453125 227.512695312 320.713867188 252.668945312 333 c 0
 271.3359375 342.333007812 312.168945312 349.5 375.168945312 354.5 c 0
 420.168945312 358.071289062 458.111328125 359.857421875 488.99609375 359.857421875 c 0
 501.349609375 359.857421875 512.57421875 359.571289062 522.668945312 359 c 0
 539.3359375 358.333007812 550.8359375 355.5 557.168945312 350.5 c 0
 563.501953125 345.5 568.001953125 337.666992188 570.668945312 327 c 0
 571.024414062 323.7109375 571.202148438 320.587890625 571.202148438 317.630859375 c 0
 571.202148438 298.41015625 563.69140625 286.200195312 548.669921875 281 c 0
 548.669921875 279 547.836914062 273.666992188 546.169921875 265 c 0
 544.502929688 256.333007812 543.669921875 249.333007812 543.669921875 244 c 0
EndSplineSet
Validated: 524289
EndChar

StartChar: H
Encoding: 72 72 40
Width: 630
GlyphClass: 2
Flags: HMW
HStem: -21.0741 21G 311.999 86.001 694.074 20G
VStem: 82.63 98.002 453.723 99.5773
LayerCount: 2
Fore
SplineSet
546.633789062 24 m 0
 545.30078125 10 538.799804688 -1.169921875 527.1328125 -9.5029296875 c 0
 516.329101562 -17.21875 504.528320312 -21.076171875 491.725585938 -21.076171875 c 0
 490.700195312 -21.076171875 489.668945312 -21.0517578125 488.6328125 -21.001953125 c 0
 475.299804688 -21.001953125 464.299804688 -16.501953125 455.6328125 -7.501953125 c 0
 448.12109375 0.2978515625 444.364257812 10.7275390625 444.364257812 23.7861328125 c 0
 444.364257812 25.794921875 444.454101562 27.865234375 444.631835938 29.998046875 c 0
 450.692382812 114.237304688 453.72265625 207.841796875 453.72265625 310.811523438 c 0
 453.72265625 321.11328125 453.692382812 331.508789062 453.631835938 341.998046875 c 1
 442.297851562 341.331054688 401.465820312 336.1640625 331.1328125 326.497070312 c 0
 260.799804688 316.830078125 210.6328125 311.997070312 180.6328125 311.997070312 c 1
 180.6328125 309.997070312 180.465820312 306.497070312 180.1328125 301.497070312 c 0
 179.799804688 296.497070312 179.6328125 292.997070312 179.6328125 290.997070312 c 0
 177.6328125 257.997070312 176.6328125 219.247070312 176.6328125 174.747070312 c 0
 176.6328125 130.247070312 177.6328125 79.9970703125 179.6328125 23.9970703125 c 0
 178.299804688 9.9970703125 171.6328125 -1.169921875 159.6328125 -9.5029296875 c 0
 148.522460938 -17.21875 136.5546875 -21.076171875 123.729492188 -21.076171875 c 0
 122.703125 -21.076171875 121.670898438 -21.0517578125 120.633789062 -21.001953125 c 0
 107.30078125 -21.001953125 96.30078125 -16.501953125 87.6337890625 -7.501953125 c 0
 80.1220703125 0.298828125 76.3662109375 10.728515625 76.3662109375 23.787109375 c 0
 76.3662109375 25.7958984375 76.455078125 27.8662109375 76.6328125 29.9990234375 c 0
 77.2998046875 39.33203125 77.7998046875 54.33203125 78.1328125 74.9990234375 c 0
 78.4658203125 95.666015625 78.6328125 123.333007812 78.6328125 158 c 0
 78.6328125 192.666992188 78.9658203125 224 79.6328125 252 c 0
 79.6328125 274.666992188 80.2998046875 307.166992188 81.6328125 349.5 c 0
 82.9658203125 391.833007812 83.798828125 423.166015625 84.1318359375 443.499023438 c 0
 84.2431640625 450.270507812 84.298828125 458.168945312 84.298828125 467.1953125 c 0
 84.298828125 485.2734375 84.076171875 507.875 83.630859375 535 c 0
 82.9638671875 565 82.630859375 584.166992188 82.630859375 592.5 c 0
 82.630859375 600.833007812 82.9638671875 612.333007812 83.630859375 627 c 0
 84.2978515625 641.666992188 84.96484375 652.666992188 85.6318359375 660 c 0
 86.298828125 678 91.1318359375 691.5 100.131835938 700.5 c 0
 109.131835938 709.5 120.631835938 714 134.631835938 714 c 0
 135.71875 714.049804688 136.791992188 714.07421875 137.8515625 714.07421875 c 0
 151.088867188 714.07421875 162.182617188 710.216796875 171.1328125 702.500976562 c 0
 180.799804688 694.16796875 185.6328125 681.000976562 185.6328125 663.000976562 c 0
 185.6328125 656.333984375 184.799804688 642.000976562 183.1328125 620.000976562 c 0
 181.465820312 598.000976562 180.6328125 577.66796875 180.6328125 559.000976562 c 0
 180.6328125 541.66796875 180.965820312 515.16796875 181.6328125 479.500976562 c 0
 182.299804688 443.833984375 182.6328125 416.666992188 182.6328125 398 c 1
 217.299804688 398 252.965820312 400 289.633789062 404 c 0
 326.30078125 408 359.633789062 412 389.633789062 416 c 0
 419.633789062 420 440.633789062 422.666992188 452.633789062 424 c 1
 452.633789062 428.666992188 452.30078125 435.5 451.633789062 444.5 c 0
 450.965820312 453.5 450.633789062 460.333007812 450.633789062 465 c 0
 449.965820312 506.333007812 449.633789062 533.666015625 449.633789062 546.999023438 c 0
 449.633789062 560.33203125 450.133789062 580.999023438 451.133789062 608.999023438 c 0
 452.133789062 636.999023438 452.965820312 653.999023438 453.633789062 659.999023438 c 0
 453.633789062 677.999023438 458.465820312 691.499023438 468.133789062 700.499023438 c 0
 477.80078125 709.499023438 489.30078125 713.999023438 502.633789062 713.999023438 c 0
 503.719726562 714.048828125 504.793945312 714.073242188 505.852539062 714.073242188 c 0
 519.090820312 714.073242188 530.184570312 710.215820312 539.133789062 702.5 c 0
 548.801757812 694.166992188 553.633789062 681 553.633789062 663 c 0
 553.633789062 650.333007812 553.301757812 624.333007812 552.633789062 585 c 0
 551.967773438 545.666992188 551.467773438 511.166992188 551.133789062 481.5 c 0
 551.067382812 475.5703125 551.03515625 469.114257812 551.03515625 462.131835938 c 0
 551.03515625 434.18359375 551.567382812 397.806640625 552.633789062 353 c 0
 553.079101562 337.448242188 553.30078125 320.267578125 553.30078125 301.458007812 c 0
 553.30078125 263.825195312 552.411132812 219.672851562 550.633789062 169 c 0
 547.965820312 93 546.633789062 44.6669921875 546.633789062 24 c 0
EndSplineSet
Validated: 524289
EndChar

StartChar: I
Encoding: 73 73 41
Width: 630
GlyphClass: 2
Flags: HMW
HStem: -13.998 80.001 -6.39919 77.8992 612.001 89.001 625.002 85.3327
VStem: 260.043 101.995 268.109 100.596
LayerCount: 2
Fore
SplineSet
523.036132812 -11 m 0x68
 505.703125 -8.3330078125 477.213867188 -6.8310546875 437.546875 -6.498046875 c 0
 429.618164062 -6.431640625 421.743164062 -6.3984375 413.920898438 -6.3984375 c 0x68
 382.609375 -6.3984375 352.151367188 -6.931640625 322.546875 -7.998046875 c 0
 285.546875 -9.3310546875 245.879882812 -10.6640625 203.546875 -11.9970703125 c 0
 161.213867188 -13.330078125 131.713867188 -13.9970703125 115.046875 -13.9970703125 c 0
 97.7138671875 -13.9970703125 85.046875 -10.6640625 77.046875 -3.9970703125 c 0
 65.25 5.833984375 64.9638671875 17.4921875 64.9638671875 24.966796875 c 0
 64.9638671875 35.6865234375 68.32421875 44.865234375 75.0458984375 52.50390625 c 0
 82.37890625 60.8369140625 94.7119140625 65.3369140625 112.044921875 66.00390625 c 0
 140.043945312 67.3369140625 189.377929688 69.00390625 260.043945312 71.00390625 c 1x88
 265.421875 154.600585938 268.110351562 241.782226562 268.110351562 332.547851562 c 0
 268.110351562 365.559570312 267.754882812 399.044921875 267.043945312 433.004882812 c 0
 266.375976562 457.004882812 265.875976562 479.671875 265.543945312 501.004882812 c 0
 265.2109375 522.337890625 265.043945312 537.670898438 265.043945312 547.00390625 c 0
 265.043945312 556.336914062 265.7109375 570.836914062 267.043945312 590.50390625 c 0
 268.375976562 610.170898438 269.043945312 621.670898438 269.043945312 625.00390625 c 0
 238.709960938 625.669921875 211.375976562 626.002929688 187.041992188 626.002929688 c 0
 162.708007812 626.002929688 141.374023438 625.669921875 123.040039062 625.002929688 c 0
 106.374023438 625.002929688 93.541015625 628.669921875 84.541015625 636.002929688 c 0
 71.2666015625 646.818359375 70.966796875 659.26953125 70.966796875 666.641601562 c 0
 70.966796875 677.5234375 74.82421875 686.9765625 82.5400390625 695.000976562 c 0
 90.873046875 703.66796875 104.040039062 708.000976562 122.040039062 708.000976562 c 0
 177.598632812 709.556640625 229.305664062 710.334960938 277.161132812 710.334960938 c 0x94
 372.860351562 710.334960938 453.153320312 707.223632812 518.040039062 701.001953125 c 0
 547.372070312 698.334960938 562.706054688 684.66796875 564.0390625 660.000976562 c 0
 564.0390625 654.000976562 563.206054688 648.16796875 561.5390625 642.500976562 c 0
 559.872070312 636.833984375 557.0390625 631.333984375 553.0390625 626.000976562 c 0
 549.0390625 620.66796875 543.706054688 616.500976562 537.0390625 613.500976562 c 0
 530.372070312 610.500976562 523.372070312 610.000976562 516.0390625 612.000976562 c 0
 496.0390625 615.333984375 447.0390625 619.000976562 369.0390625 623.000976562 c 1
 369.0390625 617.66796875 368.706054688 602.66796875 368.0390625 578.000976562 c 0
 367.372070312 553.333984375 367.0390625 533.666992188 367.0390625 519 c 2
 367.0390625 456 l 2
 367.0390625 428.666992188 367.372070312 401.666992188 368.0390625 375 c 0
 368.483398438 359.2265625 368.704101562 342.157226562 368.704101562 323.791992188 c 0x24
 368.704101562 287.047851562 367.81640625 245.1171875 366.038085938 198 c 0
 363.37109375 127.333007812 362.038085938 85.3330078125 362.038085938 72 c 1
 390.704101562 72 424.038085938 71.8330078125 462.038085938 71.5 c 0
 500.038085938 71.1669921875 520.37109375 71 523.038085938 71 c 0
 538.37109375 71 549.204101562 67.5 555.536132812 60.5 c 0
 561.870117188 53.5 565.036132812 44.3330078125 565.036132812 33 c 0
 565.036132812 27 564.704101562 21.5 564.036132812 16.5 c 0
 563.370117188 11.5 561.370117188 6.5 558.036132812 1.5 c 0
 554.704101562 -3.5 550.204101562 -7.1669921875 544.536132812 -9.5 c 0
 538.870117188 -11.8330078125 531.703125 -12.3330078125 523.036132812 -11 c 0x68
EndSplineSet
Validated: 524289
EndChar

StartChar: J
Encoding: 74 74 42
Width: 630
GlyphClass: 2
Flags: HMW
HStem: -35.001 101.001 625 82.999
VStem: 62.1676 89 325.168 93.9971
LayerCount: 2
Fore
SplineSet
416.165039062 215 m 0
 410.83203125 155 402.833007812 106.33203125 392.166015625 68.9990234375 c 0
 381.499023438 31.666015625 368.499023438 4.9990234375 353.166015625 -11.0009765625 c 0
 337.833007812 -27.0009765625 319.833007812 -35.0009765625 299.166015625 -35.0009765625 c 0
 276.499023438 -35.0009765625 254.166015625 -31.0009765625 232.166015625 -23.0009765625 c 0
 210.166015625 -15.0009765625 190.999023438 -4.333984375 174.666015625 8.9990234375 c 0
 158.333007812 22.33203125 143.166015625 36.83203125 129.166015625 52.4990234375 c 0
 115.166015625 68.166015625 103.499023438 83.8330078125 94.166015625 99.5 c 0
 84.8330078125 115.166992188 77.5 129.166992188 72.1669921875 141.5 c 0
 66.833984375 153.833007812 63.833984375 163.666015625 63.1669921875 170.999023438 c 0
 61.833984375 176.999023438 61.5009765625 184.166015625 62.16796875 192.499023438 c 0
 62.8349609375 200.83203125 64.3349609375 208.665039062 66.66796875 215.998046875 c 0
 69.0009765625 223.331054688 73.0009765625 229.831054688 78.66796875 235.498046875 c 0
 84.3349609375 241.165039062 92.16796875 244.665039062 102.16796875 245.998046875 c 0
 105.723632812 246.64453125 109.11328125 246.967773438 112.3359375 246.967773438 c 0
 122.40625 246.967773438 130.849609375 243.811523438 137.66796875 237.499023438 c 0
 146.66796875 229.166015625 151.16796875 218.666015625 151.16796875 205.999023438 c 0
 151.16796875 198.666015625 152.500976562 189.833007812 155.16796875 179.5 c 0
 157.834960938 169.166992188 162.334960938 157.166992188 168.66796875 143.5 c 0
 175.000976562 129.833007812 182.833984375 117.333007812 192.166992188 106 c 0
 201.5 94.6669921875 214.666992188 85.1669921875 231.666992188 77.5 c 0
 248.666992188 69.8330078125 266.833984375 66 286.166992188 66 c 0
 310.166992188 66 323.833984375 124 327.166992188 240 c 0
 327.166992188 254.666992188 326.5 301.666992188 325.166992188 381 c 0
 324.500976562 420.666015625 324.16796875 460.749023438 324.16796875 501.249023438 c 0
 324.16796875 541.749023438 324.500976562 582.666015625 325.166992188 624 c 1
 280.368164062 625.200195312 238.688476562 625.799804688 200.12890625 625.799804688 c 0
 174.421875 625.799804688 150.1015625 625.533203125 127.16796875 625 c 0
 110.500976562 625 97.833984375 628.666992188 89.1669921875 636 c 0
 76.4384765625 646.76953125 76.0927734375 659.155273438 76.0927734375 666.639648438 c 0
 76.0927734375 677.521484375 79.9501953125 686.974609375 87.666015625 694.999023438 c 0
 95.9990234375 703.666015625 108.83203125 707.999023438 126.165039062 707.999023438 c 0
 181.724609375 709.5546875 233.39453125 710.333007812 281.174804688 710.333007812 c 0
 376.7265625 710.333007812 456.723632812 707.221679688 521.166015625 701 c 0
 550.499023438 698.333007812 566.166015625 684.666015625 568.166015625 659.999023438 c 0
 568.166015625 653.999023438 567.166015625 648.166015625 565.166015625 642.499023438 c 0
 563.166015625 636.83203125 560.499023438 631.33203125 557.166015625 625.999023438 c 0
 553.833007812 620.666015625 548.833007812 616.499023438 542.166015625 613.499023438 c 0
 535.499023438 610.499023438 527.83203125 609.999023438 519.165039062 611.999023438 c 0
 495.83203125 615.33203125 460.165039062 618.33203125 412.165039062 620.999023438 c 1
 412.165039062 601.666015625 412.83203125 572.333007812 414.165039062 533 c 0
 415.498046875 493.666992188 416.665039062 457.833984375 417.665039062 425.500976562 c 0
 418.665039062 393.16796875 419.165039062 357.16796875 419.165039062 317.500976562 c 0
 419.165039062 277.833984375 418.165039062 243.666992188 416.165039062 215 c 0
EndSplineSet
Validated: 524289
EndChar

StartChar: K
Encoding: 75 75 43
Width: 630
GlyphClass: 2
Flags: HMW
HStem: -21.0751 21G 694.072 20G
VStem: 71.7335 95.2646
LayerCount: 2
Fore
SplineSet
174.999023438 24 m 0
 173.666015625 10 167.170898438 -1.16796875 155.502929688 -9.5009765625 c 0
 144.701171875 -17.216796875 132.612304688 -21.07421875 119.239257812 -21.07421875 c 0
 118.168945312 -21.07421875 117.08984375 -21.0498046875 116.002929688 -21 c 0
 102.669921875 -21 91.669921875 -16.5 83.0029296875 -7.5 c 0
 75.4912109375 0.30078125 71.7353515625 10.73046875 71.7353515625 23.7890625 c 0
 71.7353515625 25.7978515625 71.82421875 27.8681640625 72.001953125 30.0009765625 c 0
 73.501953125 52 74.251953125 89.091796875 74.251953125 141.276367188 c 0
 74.251953125 158.673828125 74.1689453125 177.748046875 74.001953125 198.5 c 0
 73.3349609375 281.5 71.66796875 367 69.0009765625 455 c 0
 67.66796875 497.666992188 67.0009765625 526.5 67.0009765625 541.5 c 0
 67.0009765625 556.5 67.5009765625 578.166992188 68.5009765625 606.5 c 0
 69.5009765625 634.833007812 70.0009765625 652.666015625 70.0009765625 659.999023438 c 0
 70.66796875 677.999023438 75.66796875 691.499023438 85.0009765625 700.499023438 c 0
 94.333984375 709.499023438 106.000976562 713.999023438 120.000976562 713.999023438 c 0
 121.087890625 714.048828125 122.161132812 714.073242188 123.220703125 714.073242188 c 0
 136.458007812 714.073242188 147.551757812 710.215820312 156.501953125 702.5 c 0
 166.168945312 694.166992188 171.001953125 681 171.001953125 663 c 0
 171.001953125 647 170.334960938 612 169.001953125 558 c 0
 167.668945312 504 167.001953125 459.333007812 167.001953125 424 c 1
 191.001953125 447.333007812 227.001953125 482.666015625 275.001953125 529.999023438 c 0
 323.001953125 577.33203125 361.334960938 614.83203125 390.001953125 642.499023438 c 0
 418.668945312 670.166015625 437.001953125 687.333007812 445.001953125 694 c 0
 454.334960938 702.666992188 463.334960938 708.5 472.001953125 711.5 c 0
 480.668945312 714.5 488.168945312 715.166992188 494.501953125 713.5 c 0
 500.834960938 711.833007812 506.666992188 708.333007812 512.000976562 703 c 0
 519.510742188 694.911132812 523.267578125 685.946289062 523.267578125 676.10546875 c 0
 523.267578125 663.235351562 516.844726562 648.8671875 503.999023438 633 c 0
 493.999023438 621 458.666992188 584.5 397.999023438 523.5 c 0
 337.333007812 462.5 283.333007812 409.333007812 235.999023438 364 c 1
 258.666992188 340 297.166992188 302.5 351.499023438 251.5 c 0
 405.833007812 200.5 452.999023438 155.666992188 492.999023438 117 c 0
 532.999023438 78.3330078125 555.333007812 54 559.999023438 44 c 0
 561.999023438 37.666015625 562.999023438 31.666015625 562.999023438 25.9990234375 c 0
 562.999023438 20.33203125 561.999023438 14.9990234375 559.999023438 9.9990234375 c 0
 555.999023438 -0.0009765625 549.999023438 -7.66796875 541.999023438 -13.0009765625 c 0
 533.724609375 -18.5986328125 525.494140625 -21.3974609375 517.307617188 -21.3974609375 c 0
 503.069335938 -21.3974609375 488.967773438 -12.931640625 474.999023438 4 c 0
 468.331054688 12.6669921875 444.499023438 35.6669921875 403.499023438 73 c 0
 362.499023438 110.333007812 318.331054688 151.5 270.999023438 196.5 c 0
 223.666015625 241.5 188.999023438 277.333007812 166.999023438 304 c 1
 166.999023438 284 l 2
 166.999023438 272.666992188 169.666015625 186 174.999023438 24 c 0
EndSplineSet
Validated: 524289
EndChar

StartChar: L
Encoding: 76 76 44
Width: 630
GlyphClass: 2
Flags: HMW
HStem: -15.0049 86.9159
VStem: 67.1323 103.002 96.932 91.7021
LayerCount: 2
Fore
SplineSet
520.134765625 10 m 0xc0
 474.801757812 1.3330078125 406.133789062 -5.005859375 314.133789062 -9.005859375 c 0
 222.133789062 -13.005859375 154.466796875 -15.005859375 111.1328125 -15.005859375 c 0
 97.80078125 -15.005859375 86.80078125 -10.505859375 78.1328125 -1.505859375 c 0
 70.62109375 6.294921875 66.865234375 16.724609375 66.865234375 29.783203125 c 0
 66.865234375 31.7919921875 66.955078125 33.8623046875 67.1328125 35.9951171875 c 0xc0
 67.1328125 41.328125 70.96484375 79.4951171875 78.6328125 150.495117188 c 0
 86.298828125 221.495117188 91.798828125 289.995117188 95.1328125 355.995117188 c 0
 96.33203125 373.995117188 96.931640625 400.994140625 96.931640625 436.993164062 c 0
 96.931640625 460.993164062 96.666015625 488.994140625 96.1328125 520.995117188 c 0
 94.798828125 600.995117188 94.1328125 644.328125 94.1328125 650.995117188 c 0
 94.798828125 668.995117188 99.966796875 682.662109375 109.6328125 691.995117188 c 0
 119.30078125 701.328125 130.80078125 705.995117188 144.133789062 705.995117188 c 0
 145.220703125 706.044921875 146.293945312 706.069335938 147.353515625 706.069335938 c 0
 160.590820312 706.069335938 171.684570312 702.211914062 180.634765625 694.49609375 c 0
 190.301757812 686.163085938 195.134765625 672.99609375 195.134765625 654.99609375 c 0
 195.134765625 635.663085938 194.466796875 609.330078125 193.134765625 575.997070312 c 0
 191.801757812 542.6640625 190.301757812 500.6640625 188.634765625 449.997070312 c 0xa0
 186.966796875 399.330078125 185.466796875 355.330078125 184.134765625 317.997070312 c 0
 183.466796875 289.997070312 180.966796875 249.330078125 176.634765625 195.997070312 c 0
 172.301757812 142.6640625 170.134765625 101.331054688 170.134765625 71.998046875 c 1
 175.005859375 71.9404296875 179.946289062 71.9111328125 184.955078125 71.9111328125 c 0
 237.541015625 71.9111328125 297.767578125 75.107421875 365.634765625 81.498046875 c 0
 439.966796875 88.498046875 489.466796875 95.3310546875 514.134765625 101.998046875 c 0
 522.134765625 103.998046875 529.301757812 103.665039062 535.634765625 100.998046875 c 0
 541.966796875 98.3310546875 546.966796875 94.3310546875 550.634765625 88.998046875 c 0
 554.301757812 83.6650390625 557.301757812 77.83203125 559.634765625 71.4990234375 c 0
 561.966796875 65.166015625 563.134765625 59.3330078125 563.134765625 54 c 0
 563.134765625 42 560.134765625 32.3330078125 554.134765625 25 c 0
 548.134765625 17.6669921875 536.801757812 12.6669921875 520.134765625 10 c 0xc0
EndSplineSet
Validated: 524289
EndChar

StartChar: M
Encoding: 77 77 45
Width: 630
GlyphClass: 2
Flags: HMW
HStem: -9.99414 21G<84.999 91.665>
VStem: 48.9975 83.001 261 104.999
LayerCount: 2
Fore
SplineSet
131.998046875 59 m 0
 132.04296875 57.578125 132.06640625 56.17578125 132.06640625 54.7939453125 c 0
 132.06640625 35.443359375 127.708984375 20.0166015625 118.998046875 8.505859375 c 0
 109.666015625 -3.8271484375 98.33203125 -9.994140625 85 -9.994140625 c 0
 61 -9.3271484375 49 15.33984375 49 64.0068359375 c 0
 49 72.0068359375 50 85.673828125 52 105.006835938 c 0
 54 124.33984375 56.5 149.672851562 59.5 181.005859375 c 0
 62.5 212.338867188 65 239.671875 67 263.004882812 c 0
 67.666015625 271.004882812 68.666015625 283.337890625 70 300.004882812 c 0
 74 349.337890625 77.166015625 387.837890625 79.5 415.504882812 c 0
 81.83203125 443.171875 85.33203125 477.671875 90 519.004882812 c 0
 94.666015625 560.337890625 98.833984375 592.837890625 102.5 616.504882812 c 0
 106.16796875 640.171875 110.66796875 656.671875 116 666.004882812 c 0
 122.666992188 680.004882812 132.833984375 690.171875 146.501953125 696.504882812 c 0
 157.791015625 701.736328125 168.740234375 704.352539062 179.349609375 704.352539062 c 0
 181.581054688 704.352539062 183.798828125 704.236328125 186.001953125 704.004882812 c 0
 216.001953125 704.004882812 234.66796875 691.671875 242.001953125 667.004882812 c 0
 250.001953125 637.671875 258.66796875 589.171875 268.001953125 521.504882812 c 0
 277.333984375 453.837890625 286.833984375 376.670898438 296.501953125 290.00390625 c 0
 306.16796875 203.336914062 313.001953125 146.00390625 317.001953125 118.00390625 c 1
 323.66796875 212.00390625 331.334960938 296.670898438 340.001953125 372.00390625 c 0
 346.001953125 427.336914062 354.169921875 483.00390625 364.501953125 539.00390625 c 0
 374.834960938 595.00390625 384.001953125 637.670898438 392.001953125 667.00390625 c 0
 394.669921875 677.00390625 400.169921875 685.170898438 408.501953125 691.50390625 c 0
 416.834960938 697.836914062 425.66796875 701.669921875 435.001953125 703.002929688 c 0
 441.221679688 703.891601562 446.998046875 704.3359375 452.330078125 704.3359375 c 0
 454.998046875 704.3359375 457.5546875 704.224609375 460 704.001953125 c 2
 464 704.001953125 l 1
 477.5 704.001953125 l 2
 481.166992188 704.001953125 486.166992188 703.168945312 492.5 701.501953125 c 0
 498.833984375 699.834960938 504 697.66796875 508 695.000976562 c 0
 512 692.333984375 515.666992188 688.166992188 519 682.5 c 0
 522.333984375 676.833007812 524.666015625 670 525.999023438 662 c 0
 528.666015625 642 536.333984375 544.333007812 549 369 c 0
 561.666992188 193.666992188 571 94.6669921875 577 72 c 0
 579.666992188 60.5712890625 581 50.33984375 581 41.3056640625 c 0
 581 18.720703125 572.666992188 3.6181640625 556 -4.0009765625 c 0
 550.208984375 -6.4384765625 544.41796875 -7.6572265625 538.626953125 -7.6572265625 c 2
 517.998046875 -2.5 l 2
 505.331054688 3.8330078125 495.998046875 17.666015625 489.998046875 38.9990234375 c 0
 475.998046875 83.666015625 463.666015625 278.333007812 452.998046875 623 c 1
 433.666015625 526.333007812 420.998046875 438.333007812 414.998046875 359 c 0
 408.998046875 283 400.831054688 210.833007812 390.498046875 142.5 c 0
 380.166015625 74.1669921875 371.998046875 32.333984375 365.998046875 17.0009765625 c 0
 358.666015625 1.0009765625 339.998046875 -6.9990234375 309.998046875 -6.9990234375 c 0
 308.331054688 -7.08203125 306.703125 -7.1240234375 305.115234375 -7.1240234375 c 0
 293.995117188 -7.1240234375 284.791015625 -5.08203125 277.499023438 -0.9990234375 c 0
 269.166015625 3.66796875 263.666015625 10.3349609375 260.999023438 19.001953125 c 0
 252.999023438 51.001953125 239.666015625 124.501953125 220.999023438 239.501953125 c 0
 202.33203125 354.501953125 185.33203125 464.668945312 169.999023438 570.001953125 c 1
 167.999023438 548.668945312 166.166015625 524.668945312 164.499023438 498.001953125 c 0
 162.83203125 471.334960938 161.33203125 448.16796875 159.999023438 428.500976562 c 0
 158.666015625 408.833984375 156.499023438 379.666992188 153.499023438 341 c 0
 150.499023438 302.333007812 148.33203125 273 146.999023438 253 c 0
 145.666015625 225 143.666015625 196.166992188 140.999023438 166.5 c 0
 138.33203125 136.833007812 136.166015625 113.5 134.498046875 96.5 c 0
 132.831054688 79.5 131.998046875 67 131.998046875 59 c 0
EndSplineSet
Validated: 524289
EndChar

StartChar: N
Encoding: 78 78 46
Width: 630
GlyphClass: 2
Flags: HMW
HStem: -14.1178 21G
VStem: 68.9102 82.7479 468.33 92.5787 477.911 83.18
LayerCount: 2
Fore
SplineSet
486.909179688 -14 m 0xd0
 485.416992188 -14.078125 483.955078125 -14.1181640625 482.5234375 -14.1181640625 c 0
 471.797851562 -14.1181640625 462.7578125 -11.9140625 455.40625 -7.5029296875 c 0
 447.073242188 -2.5029296875 441.240234375 4.330078125 437.907226562 12.9970703125 c 0
 431.907226562 26.330078125 415.907226562 55.6630859375 389.907226562 100.99609375 c 0
 363.907226562 146.329101562 337.07421875 193.49609375 309.407226562 242.49609375 c 0
 281.740234375 291.49609375 252.740234375 346.329101562 222.407226562 406.99609375 c 0
 192.07421875 467.663085938 169.241210938 519.330078125 153.908203125 561.997070312 c 1
 157.108398438 503.86328125 158.708007812 448.9296875 158.708007812 397.196289062 c 0
 158.708007812 384.262695312 158.608398438 371.529296875 158.408203125 358.99609375 c 0
 157.408203125 296.329101562 155.908203125 232.49609375 153.908203125 167.49609375 c 0
 152.408203125 118.748046875 151.658203125 84.3427734375 151.658203125 64.2802734375 c 0
 151.658203125 55.919921875 151.974609375 44.9990234375 151.974609375 44.8046875 c 0
 151.974609375 25.599609375 147.619140625 11.330078125 138.908203125 1.9970703125 c 0
 130.159179688 -7.3779296875 119.65234375 -12.0654296875 107.387695312 -12.0654296875 c 0
 106.569335938 -12.0654296875 105.743164062 -12.044921875 104.909179688 -12.0029296875 c 0
 90.9091796875 -12.0029296875 81.4091796875 -6.3359375 76.4091796875 4.9970703125 c 0
 71.4091796875 16.330078125 68.9091796875 32.9970703125 68.9091796875 54.9970703125 c 0
 68.9091796875 68.330078125 69.9091796875 119.997070312 71.9091796875 209.997070312 c 0
 73.9091796875 299.997070312 75.2421875 378.6640625 75.9091796875 445.997070312 c 0
 76.076171875 462.83203125 76.1591796875 479.5 76.1591796875 496.001953125 c 0
 76.1591796875 545.5 75.4091796875 593.499023438 73.9091796875 639.998046875 c 0
 73.8134765625 641.903320312 73.765625 643.767578125 73.765625 645.590820312 c 0
 73.765625 656.528320312 75.48046875 665.997070312 78.9091796875 673.99609375 c 0
 82.9091796875 683.329101562 88.576171875 690.162109375 95.9091796875 694.495117188 c 0
 103.2421875 698.828125 110.909179688 701.828125 118.909179688 703.495117188 c 0
 126.909179688 705.162109375 135.576171875 705.329101562 144.909179688 703.99609375 c 0
 173.576171875 703.99609375 191.576171875 691.663085938 198.909179688 666.99609375 c 0
 212.909179688 622.99609375 251.576171875 541.99609375 314.909179688 423.99609375 c 0
 378.2421875 305.99609375 431.909179688 210.663085938 475.909179688 137.99609375 c 1
 477.6875 179.779296875 478.576171875 234.232421875 478.576171875 301.35546875 c 0
 478.576171875 334.904296875 478.354492188 371.618164062 477.91015625 411.497070312 c 0xd0
 476.577148438 531.1640625 473.577148438 609.997070312 468.91015625 647.997070312 c 0
 468.5234375 651.09375 468.330078125 654.096679688 468.330078125 657.005859375 c 0
 468.330078125 669.12890625 471.690429688 679.625976562 478.411132812 688.497070312 c 0
 486.744140625 699.497070312 497.577148438 704.997070312 510.91015625 704.997070312 c 0
 518.243164062 704.997070312 524.576171875 704.1640625 529.909179688 702.497070312 c 0
 535.2421875 700.830078125 539.409179688 698.830078125 542.409179688 696.497070312 c 0
 545.409179688 694.1640625 547.909179688 690.331054688 549.909179688 684.998046875 c 0
 551.909179688 679.665039062 553.409179688 674.83203125 554.409179688 670.499023438 c 0
 555.409179688 666.166015625 556.576171875 659.333007812 557.909179688 650 c 0
 559.2421875 639.333007812 560.2421875 585.833007812 560.909179688 489.5 c 0xe0
 561.030273438 471.981445312 561.090820312 454.34765625 561.090820312 436.59765625 c 0
 561.090820312 356.741210938 559.86328125 274.541992188 557.409179688 190 c 0
 554.409179688 86.6669921875 549.2421875 27 541.909179688 11 c 0
 535.2421875 -5.6669921875 516.909179688 -14 486.909179688 -14 c 0xd0
EndSplineSet
Validated: 524289
EndChar

StartChar: O
Encoding: 79 79 47
Width: 630
GlyphClass: 2
Flags: HMW
HStem: -24 83.998 636.997 81.001
VStem: 70.2358 96.3855 463.736 96.0643
LayerCount: 2
Fore
SplineSet
282.237304688 -24 m 0
 240.904296875 -23.3330078125 203.904296875 -10.8369140625 171.237304688 13.49609375 c 0
 138.569335938 37.8291015625 113.403320312 70.49609375 95.736328125 111.49609375 c 0
 78.7119140625 151.004882812 70.2001953125 194.072265625 70.2001953125 240.700195312 c 0
 70.2001953125 242.4609375 70.2119140625 244.2265625 70.236328125 245.997070312 c 2
 70.236328125 262.997070312 l 2
 70.236328125 292.997070312 70.4033203125 316.997070312 70.736328125 334.997070312 c 0
 71.0693359375 352.997070312 72.40234375 376.997070312 74.7353515625 406.997070312 c 0
 77.068359375 436.997070312 81.068359375 465.497070312 86.7353515625 492.497070312 c 0
 92.40234375 519.497070312 99.5693359375 544.997070312 108.236328125 568.997070312 c 0
 124.903320312 612.330078125 154.569335938 647.997070312 197.237304688 675.997070312 c 0
 239.904296875 703.997070312 287.237304688 717.997070312 339.237304688 717.997070312 c 0
 365.904296875 717.997070312 391.571289062 712.830078125 416.237304688 702.497070312 c 0
 440.905273438 692.1640625 462.905273438 677.331054688 482.237304688 657.998046875 c 0
 501.571289062 638.665039062 517.737304688 613.998046875 530.737304688 583.998046875 c 0
 543.737304688 553.998046875 551.905273438 520.331054688 555.237304688 482.998046875 c 0
 557.905273438 449.665039062 559.405273438 413.998046875 559.737304688 375.998046875 c 0
 559.780273438 371.251953125 559.799804688 366.498046875 559.799804688 361.736328125 c 0
 559.799804688 328.374023438 558.780273438 294.627929688 556.737304688 260.499023438 c 0
 554.405273438 221.499023438 549.905273438 190.666015625 543.237304688 167.999023438 c 0
 534.571289062 136.666015625 523.904296875 109.666015625 511.237304688 86.9990234375 c 0
 498.569335938 64.33203125 484.569335938 45.83203125 469.237304688 31.4990234375 c 0
 453.904296875 17.166015625 436.237304688 5.8330078125 416.237304688 -2.5 c 0
 396.237304688 -10.8330078125 375.737304688 -16.5 354.737304688 -19.5 c 0
 333.737304688 -22.5 309.569335938 -24 282.237304688 -24 c 0
282.237304688 59.99609375 m 0
 300.237304688 59.99609375 317.233398438 62.1640625 333.233398438 66.4970703125 c 0
 349.233398438 70.830078125 364.901367188 77.830078125 380.233398438 87.4970703125 c 0
 395.567382812 97.1640625 409.233398438 109.997070312 421.233398438 125.997070312 c 0
 433.233398438 141.997070312 442.567382812 160.6640625 449.233398438 181.997070312 c 0
 451.901367188 190.6640625 454.568359375 210.6640625 457.235351562 241.997070312 c 0
 459.901367188 273.330078125 462.069335938 310.663085938 463.736328125 353.99609375 c 0
 464.225585938 366.741210938 464.471679688 379.428710938 464.471679688 392.05859375 c 0
 464.471679688 422.370117188 463.059570312 452.349609375 460.236328125 481.99609375 c 0
 456.236328125 525.99609375 442.069335938 562.829101562 417.736328125 592.49609375 c 0
 393.403320312 622.163085938 363.569335938 636.99609375 328.237304688 636.99609375 c 0
 292.237304688 636.99609375 262.069335938 623.829101562 237.737304688 597.49609375 c 0
 213.404296875 571.163085938 195.904296875 534.330078125 185.237304688 486.997070312 c 0
 172.827148438 433.408203125 166.622070312 371.466796875 166.622070312 301.171875 c 0
 166.622070312 288.389648438 166.827148438 275.331054688 167.237304688 261.99609375 c 0
 167.904296875 240.663085938 169.737304688 220.99609375 172.737304688 202.99609375 c 0
 175.737304688 184.99609375 179.904296875 166.99609375 185.237304688 148.99609375 c 0
 190.569335938 130.99609375 197.569335938 115.49609375 206.237304688 102.49609375 c 0
 214.904296875 89.49609375 225.737304688 79.1630859375 238.737304688 71.49609375 c 0
 251.737304688 63.8291015625 266.237304688 59.99609375 282.237304688 59.99609375 c 0
EndSplineSet
Validated: 524289
EndChar

StartChar: P
Encoding: 80 80 48
Width: 630
GlyphClass: 2
Flags: HMW
HStem: -19.0771 21G 230.001 81.9374 630.003 80.998
VStem: 89.7116 94.3366 94.7878 102.314 459.046 92.0029
LayerCount: 2
Fore
SplineSet
197.102539062 21.7568359375 m 0xec
 197.102539062 8.837890625 191.583984375 -1.2421875 180.547851562 -8.4951171875 c 0
 169.814453125 -15.548828125 157.811523438 -19.0751953125 144.5390625 -19.0751953125 c 0
 143.384765625 -19.0751953125 142.220703125 -19.048828125 141.046875 -18.9951171875 c 0
 127.046875 -18.9951171875 115.546875 -14.828125 106.546875 -6.4951171875 c 0
 98.7080078125 0.7626953125 94.7890625 10.9287109375 94.7890625 24.0029296875 c 0xec
 94.7890625 25.939453125 94.875 27.939453125 95.046875 30.00390625 c 0
 95.7138671875 40.6708984375 96.046875 56.50390625 96.046875 77.50390625 c 0
 96.046875 98.50390625 95.8798828125 124.50390625 95.546875 155.50390625 c 0
 95.2138671875 186.50390625 94.7138671875 216.50390625 94.046875 245.50390625 c 0
 93.3798828125 274.50390625 92.546875 310.00390625 91.546875 352.00390625 c 0
 90.546875 394.00390625 90.046875 429.00390625 90.046875 457.00390625 c 0
 89.82421875 471.455078125 89.712890625 487.463867188 89.712890625 505.029296875 c 0xf4
 89.712890625 540.134765625 90.1572265625 581.458984375 91.0458984375 629.002929688 c 0
 87.712890625 632.3359375 85.712890625 634.002929688 85.0458984375 634.002929688 c 0
 79.712890625 642.002929688 77.8798828125 650.169921875 79.546875 658.502929688 c 0
 81.2138671875 666.8359375 84.880859375 674.3359375 90.5478515625 681.002929688 c 0
 96.21484375 687.669921875 102.381835938 691.669921875 109.048828125 693.002929688 c 0
 133.048828125 698.3359375 168.215820312 702.668945312 214.548828125 706.001953125 c 0
 260.881835938 709.334960938 293.381835938 711.001953125 312.048828125 711.001953125 c 0
 357.381835938 711.001953125 397.881835938 703.001953125 433.548828125 687.001953125 c 0
 469.215820312 671.001953125 497.548828125 646.834960938 518.548828125 614.501953125 c 0
 539.548828125 582.168945312 550.381835938 543.668945312 551.048828125 499.001953125 c 0
 551.048828125 461.668945312 544.881835938 426.501953125 532.548828125 393.501953125 c 0
 520.215820312 360.501953125 503.548828125 332.001953125 482.548828125 308.001953125 c 0
 461.548828125 284.001953125 435.715820312 265.001953125 405.048828125 251.001953125 c 0
 374.381835938 237.001953125 341.048828125 230.001953125 305.048828125 230.001953125 c 0
 253.048828125 230.001953125 212.048828125 233.668945312 182.048828125 241.001953125 c 1
 183.381835938 213.001953125 185.048828125 186.168945312 187.048828125 160.501953125 c 0
 189.048828125 134.834960938 191.048828125 108.16796875 193.048828125 80.5009765625 c 0
 195.313476562 49.16796875 197.102539062 24.41796875 197.102539062 21.7568359375 c 0xec
312.047851562 630.005859375 m 0
 288.71484375 630.005859375 246.716796875 627.336914062 186.049804688 622.00390625 c 1
 186.049804688 608.670898438 185.3828125 584.00390625 184.049804688 548.00390625 c 0xf4
 182.716796875 512.00390625 181.716796875 475.00390625 181.049804688 437.00390625 c 0
 180.3828125 399.00390625 180.049804688 362.00390625 180.049804688 326.00390625 c 1
 205.673828125 316.62890625 235.399414062 311.94140625 269.2265625 311.94140625 c 0
 271.482421875 311.94140625 273.756835938 311.961914062 276.049804688 312.00390625 c 0
 295.3828125 312.00390625 312.8828125 313.336914062 328.549804688 316.00390625 c 0
 344.216796875 318.670898438 357.883789062 322.337890625 369.55078125 327.004882812 c 0
 381.217773438 331.671875 391.717773438 337.838867188 401.05078125 345.505859375 c 0
 410.383789062 353.172851562 418.216796875 360.83984375 424.549804688 368.506835938 c 0
 430.8828125 376.173828125 436.215820312 385.173828125 440.548828125 395.506835938 c 0
 444.881835938 405.83984375 448.21484375 415.172851562 450.547851562 423.505859375 c 0
 452.880859375 431.838867188 454.713867188 441.505859375 456.046875 452.505859375 c 0
 457.379882812 463.505859375 458.212890625 472.505859375 458.545898438 479.505859375 c 0
 458.87890625 486.505859375 459.045898438 495.005859375 459.045898438 505.005859375 c 0
 459.045898438 523.672851562 455.545898438 540.505859375 448.545898438 555.505859375 c 0
 441.545898438 570.505859375 432.87890625 582.505859375 422.545898438 591.505859375 c 0
 412.212890625 600.505859375 400.379882812 608.005859375 387.046875 614.005859375 c 0
 373.713867188 620.005859375 360.880859375 624.172851562 348.547851562 626.505859375 c 0
 336.21484375 628.838867188 324.047851562 630.005859375 312.047851562 630.005859375 c 0
EndSplineSet
Validated: 524289
EndChar

StartChar: Q
Encoding: 81 81 49
Width: 630
GlyphClass: 2
Flags: HMW
HStem: -24.1963 84.2021 637.005 80.9971
VStem: 65.8147 95.6075 270.602 73.1323 463.845 93.3379
LayerCount: 2
Fore
SplineSet
540.744140625 -206 m 0
 533.634765625 -210.443359375 526.225585938 -212.6640625 518.521484375 -212.6640625 c 0
 514.666015625 -212.6640625 510.737304688 -212.108398438 506.735351562 -210.997070312 c 0
 494.735351562 -207.6640625 484.068359375 -199.997070312 474.735351562 -187.997070312 c 0
 465.40234375 -175.997070312 449.40234375 -153.6640625 426.735351562 -120.997070312 c 0
 404.068359375 -88.330078125 382.068359375 -54.9970703125 360.735351562 -20.9970703125 c 1
 346.870117188 -23.130859375 331.938476562 -24.197265625 315.939453125 -24.197265625 c 0
 311.938476562 -24.197265625 307.870117188 -24.130859375 303.735351562 -23.9970703125 c 0
 274.40234375 -23.9970703125 247.069335938 -19.330078125 221.736328125 -9.9970703125 c 0
 196.403320312 -0.6640625 174.5703125 12.3359375 156.237304688 29.0029296875 c 0
 137.904296875 45.669921875 122.071289062 65.5029296875 108.73828125 88.5029296875 c 0
 95.4052734375 111.502929688 85.4052734375 136.169921875 78.73828125 162.502929688 c 0
 72.0712890625 188.8359375 68.0712890625 216.668945312 66.73828125 246.001953125 c 0
 66.1220703125 263.084960938 65.8134765625 279.766601562 65.8134765625 296.046875 c 0
 65.8134765625 403.024414062 79.1220703125 492.67578125 105.73828125 565.001953125 c 0
 123.071289062 609.001953125 152.73828125 645.501953125 194.73828125 674.501953125 c 0
 236.73828125 703.501953125 283.73828125 718.001953125 335.73828125 718.001953125 c 0
 363.071289062 718.001953125 388.571289062 713.334960938 412.23828125 704.001953125 c 0
 435.905273438 694.668945312 457.405273438 681.001953125 476.73828125 663.001953125 c 0
 496.071289062 645.001953125 512.23828125 620.668945312 525.23828125 590.001953125 c 0
 538.23828125 559.334960938 547.071289062 523.66796875 551.73828125 483.000976562 c 0
 555.368164062 447.220703125 557.18359375 405.2890625 557.18359375 357.20703125 c 0
 557.18359375 343.473632812 557.03515625 329.23828125 556.739257812 314.500976562 c 0
 555.40625 248.16796875 551.073242188 197.66796875 543.740234375 163.000976562 c 0
 529.740234375 91.0009765625 497.073242188 39.66796875 445.740234375 9.0009765625 c 1
 459.073242188 -10.33203125 473.240234375 -29.9990234375 488.240234375 -49.9990234375 c 0
 503.240234375 -69.9990234375 517.573242188 -88.666015625 531.240234375 -105.999023438 c 0
 544.907226562 -123.33203125 554.07421875 -134.999023438 558.741210938 -140.999023438 c 0
 563.408203125 -148.33203125 565.075195312 -156.33203125 563.7421875 -164.999023438 c 0
 562.409179688 -173.666015625 559.576171875 -181.833007812 555.243164062 -189.5 c 0
 550.91015625 -197.166992188 546.077148438 -202.666992188 540.744140625 -206 c 0
163.735351562 262.004882812 m 0
 165.735351562 224.004882812 172.901367188 189.837890625 185.234375 159.504882812 c 0
 197.567382812 129.171875 214.067382812 105.004882812 234.734375 87.0048828125 c 0
 255.401367188 69.0048828125 278.401367188 60.0048828125 303.734375 60.0048828125 c 2
 313.734375 60.0048828125 l 1
 297.734375 90.0048828125 286.401367188 113.337890625 279.734375 130.004882812 c 0
 273.646484375 146.33203125 270.602539062 160.706054688 270.602539062 173.127929688 c 0
 270.602539062 190.630859375 276.646484375 204.256835938 288.734375 214.005859375 c 0
 294.734375 218.672851562 301.234375 221.505859375 308.234375 222.505859375 c 0
 315.234375 223.505859375 321.901367188 221.505859375 328.234375 216.505859375 c 0
 334.567382812 211.505859375 339.734375 204.005859375 343.734375 194.005859375 c 0
 355.734375 160.672851562 373.067382812 124.33984375 395.734375 85.0068359375 c 1
 424.401367188 104.33984375 443.401367188 135.33984375 452.734375 178.006835938 c 0
 454.734375 188.006835938 456.901367188 208.173828125 459.234375 238.506835938 c 0
 461.567382812 268.83984375 463.067382812 306.672851562 463.734375 352.005859375 c 0
 463.80859375 357.044921875 463.845703125 362.059570312 463.845703125 367.049804688 c 0
 463.845703125 406.948242188 461.475585938 445.266601562 456.735351562 482.004882812 c 0
 451.40234375 529.337890625 436.90234375 567.004882812 413.235351562 595.004882812 c 0
 389.568359375 623.004882812 360.068359375 637.004882812 324.735351562 637.004882812 c 0
 288.068359375 637.004882812 257.568359375 624.004882812 233.235351562 598.004882812 c 0
 208.90234375 572.004882812 191.40234375 535.671875 180.735351562 489.004882812 c 0
 167.859375 437.5 161.420898438 382.5 161.420898438 324.004882812 c 0
 161.420898438 303.756835938 162.192382812 283.08984375 163.735351562 262.004882812 c 0
EndSplineSet
Validated: 524289
EndChar

StartChar: R
Encoding: 82 82 50
Width: 630
GlyphClass: 2
Flags: HMW
HStem: -19.0801 21G 694.06 20G
VStem: 71.0342 95 75.4892 102.598 75.5342 93.498 79.0342 81 456.034 92
LayerCount: 2
Fore
SplineSet
178.0859375 21.755859375 m 0xd2
 178.0859375 8.8369140625 172.571289062 -1.248046875 161.53515625 -8.5 c 0
 150.801757812 -15.5537109375 138.517578125 -19.080078125 124.681640625 -19.080078125 c 0
 123.477539062 -19.080078125 122.26171875 -19.0537109375 121.034179688 -19 c 0
 107.034179688 -19 95.5341796875 -14.8330078125 86.5341796875 -6.5 c 0
 79.1708984375 0.318359375 75.4892578125 9.703125 75.4892578125 21.6533203125 c 0xd2
 75.4892578125 24.30859375 75.6708984375 27.0908203125 76.0341796875 30 c 0
 78.701171875 64.6669921875 80.0341796875 94.1669921875 80.0341796875 118.5 c 0
 80.0341796875 142.833007812 79.701171875 202.666015625 79.0341796875 297.999023438 c 0xc6
 79.0341796875 310.666015625 79.701171875 337.833007812 81.0341796875 379.5 c 0
 81.7001953125 400.333984375 82.033203125 420.625976562 82.033203125 440.375976562 c 0
 82.033203125 460.125976562 81.7001953125 479.333984375 81.0341796875 498 c 0
 80.3671875 520.666992188 78.5341796875 551.333984375 75.5341796875 590.000976562 c 0xca
 72.5341796875 628.66796875 71.0341796875 652.000976562 71.0341796875 660.000976562 c 2
 71.0341796875 666.000976562 l 2xe2
 70.9892578125 666.845703125 70.966796875 667.68359375 70.966796875 668.513671875 c 0
 70.966796875 680.127929688 75.322265625 690.290039062 84.033203125 699.000976562 c 0
 92.1904296875 709.040039062 103.299804688 714.059570312 117.361328125 714.059570312 c 0
 118.240234375 714.059570312 119.130859375 714.040039062 120.033203125 714.000976562 c 0
 133.366210938 714.000976562 144.033203125 711.333984375 152.033203125 706.000976562 c 1
 207.366210938 703.333984375 257.533203125 696.166992188 302.533203125 684.5 c 0
 347.533203125 672.833007812 385.033203125 658.333007812 415.033203125 641 c 0
 445.033203125 623.666992188 470.366210938 604 491.033203125 582 c 0
 511.700195312 560 526.3671875 538 535.034179688 516 c 0
 543.701171875 494 548.034179688 471.666992188 548.034179688 449 c 0
 548.034179688 432.333007812 545.8671875 417 541.534179688 403 c 0
 537.201171875 389 531.034179688 376.833007812 523.034179688 366.5 c 0
 515.034179688 356.166992188 504.701171875 347 492.034179688 339 c 0
 479.3671875 331 465.8671875 324.166992188 451.534179688 318.5 c 0
 437.201171875 312.833007812 420.201171875 307.833007812 400.534179688 303.5 c 0
 380.8671875 299.166992188 361.3671875 295.833984375 342.034179688 293.500976562 c 0
 322.701171875 291.16796875 301.034179688 289.000976562 277.034179688 287.000976562 c 1
 344.3671875 252.333984375 403.700195312 211.833984375 455.033203125 165.500976562 c 0
 506.366210938 119.16796875 540.033203125 79.66796875 556.033203125 47.0009765625 c 0
 558.033203125 41.0009765625 559.033203125 35.2509765625 559.033203125 29.7509765625 c 0
 559.033203125 24.2509765625 558.033203125 19.0009765625 556.033203125 14.0009765625 c 0
 552.033203125 4.0009765625 545.700195312 -3.9990234375 537.033203125 -9.9990234375 c 0
 529.700195312 -15.3759765625 521.918945312 -18.064453125 513.689453125 -18.064453125 c 0
 510.696289062 -18.064453125 507.643554688 -17.708984375 504.532226562 -16.998046875 c 0
 492.865234375 -14.3310546875 482.032226562 -6.3310546875 472.032226562 7.001953125 c 0
 461.365234375 21.001953125 446.198242188 38.1689453125 426.53125 58.501953125 c 0
 406.864257812 78.8349609375 383.197265625 101.501953125 355.530273438 126.501953125 c 0
 327.86328125 151.501953125 296.36328125 176.168945312 261.030273438 200.501953125 c 0
 225.697265625 224.834960938 191.364257812 244.334960938 158.03125 259.001953125 c 1
 160.03125 220.334960938 163.698242188 174.66796875 169.03125 122.000976562 c 0xca
 171.907226562 93.6025390625 178.0859375 31.578125 178.0859375 21.755859375 c 0xd2
171.036132812 498 m 0
 171.036132812 490.666992188 170.538085938 480.833984375 169.538085938 468.500976562 c 0
 168.538085938 456.16796875 167.705078125 445.16796875 167.038085938 435.500976562 c 0
 166.37109375 425.833984375 165.204101562 412.500976562 163.537109375 395.500976562 c 0
 161.870117188 378.500976562 160.703125 366.333984375 160.036132812 359.000976562 c 1xc6
 168.036132812 357.4765625 178.321289062 356.71484375 190.891601562 356.71484375 c 0
 200.3203125 356.71484375 211.03515625 357.143554688 223.036132812 358.000976562 c 0
 250.369140625 359.333984375 273.369140625 360.833984375 292.036132812 362.500976562 c 0
 310.703125 364.16796875 329.536132812 366.500976562 348.536132812 369.500976562 c 0
 367.536132812 372.500976562 383.036132812 376.000976562 395.036132812 380.000976562 c 0
 407.036132812 384.000976562 418.036132812 389.000976562 428.036132812 395.000976562 c 0
 438.036132812 401.000976562 445.203125 408.16796875 449.536132812 416.500976562 c 0
 453.869140625 424.833984375 456.036132812 434.333984375 456.036132812 445.000976562 c 0
 456.036132812 463.66796875 449.203125 481.66796875 435.536132812 499.000976562 c 0
 421.869140625 516.333984375 404.536132812 531.666992188 383.536132812 545 c 0
 362.536132812 558.333007812 338.703125 570.5 312.036132812 581.5 c 0
 285.369140625 592.5 259.869140625 601.333007812 235.536132812 608 c 0
 211.203125 614.666992188 188.036132812 620 166.036132812 624 c 1xe2
 168.036132812 575.333007812 169.703125 533.333007812 171.036132812 498 c 0
EndSplineSet
Validated: 524289
EndChar

